<?xml version="1.0" encoding="utf-8"?>
<!-- Generator: Adobe Illustrator 22.0.1, SVG Export Plug-In . SVG Version: 6.00 Build 0)  -->
<svg version="1.1" id="Layer_1" xmlns="http://www.w3.org/2000/svg" xmlns:xlink="http://www.w3.org/1999/xlink" x="0px" y="0px"
	 viewBox="0 0 48 48" enable-background="new 0 0 48 48" xml:space="preserve">
<filter  filterUnits="objectBoundingBox" height="215.0%" id="filter-2" width="215.0%" x="-57.5%" y="-47.5%">
	<feOffset  dx="0" dy="4" in="SourceAlpha" result="shadowOffsetOuter1"></feOffset>
	<feGaussianBlur  in="shadowOffsetOuter1" result="shadowBlurOuter1" stdDeviation="7"></feGaussianBlur>

		<feColorMatrix  in="shadowBlurOuter1" type="matrix" values="0 0 0 0 0.298039216   0 0 0 0 0.729411765   0 0 0 0 0.847058824  0 0 0 0.5 0">
		</feColorMatrix>
</filter>
<title>arrow</title>
<desc>Created with Sketch.</desc>
<g id="Page-1">
	<g id="osakakuma_website" transform="translate(-986.000000, -4561.000000)">
		<g id="Group-10" transform="translate(380.000000, 4561.000000)">
			<g id="arrow" transform="translate(620.000000, 9.000000)">
				<g id="Oval-2">
					<g filter="url(#filter-2)">
						<circle id="path-1_4_" cx="10" cy="14" r="20"/>
					</g>
					<g>
						<circle id="path-1_1_" fill="#00C4B3" cx="10" cy="14" r="20"/>
					</g>
				</g>
				<path id="Path" fill="#FFFFFF" d="M4.6,14.6h9l-2.3,2.3c-0.2,0.2-0.2,0.6,0,0.8c0.1,0.1,0.3,0.2,0.4,0.2c0.2,0,0.3-0.1,0.4-0.2
					l3.4-3.4c0.2-0.2,0.2-0.6,0-0.8l-3.4-3.4c-0.2-0.2-0.6-0.2-0.8,0s-0.2,0.6,0,0.8l2.3,2.3h-9C4.3,13.4,4,13.6,4,14
					S4.3,14.6,4.6,14.6z"/>
			</g>
		</g>
	</g>
</g>
</svg>
