<?xml version="1.0" encoding="UTF-8"?>
<svg width="56px" height="55px" viewBox="0 0 56 55" version="1.1" xmlns="http://www.w3.org/2000/svg" xmlns:xlink="http://www.w3.org/1999/xlink">
    <!-- Generator: Sketch 52.5 (67469) - http://www.bohemiancoding.com/sketch -->
    <title>arrow</title>
    <desc>Created with Sketch.</desc>
    <defs>
        <circle id="path-1" cx="16" cy="16.9247177" r="20"></circle>
        <filter x="-57.5%" y="-47.5%" width="215.0%" height="215.0%" filterUnits="objectBoundingBox" id="filter-2">
            <feOffset dx="0" dy="4" in="SourceAlpha" result="shadowOffsetOuter1"></feOffset>
            <feGaussianBlur stdDeviation="7" in="shadowOffsetOuter1" result="shadowBlurOuter1"></feGaussianBlur>
            <feColorMatrix values="0 0 0 0 0.298039216   0 0 0 0 0.729411765   0 0 0 0 0.847058824  0 0 0 0.5 0" type="matrix" in="shadowBlurOuter1"></feColorMatrix>
        </filter>
    </defs>
    <g id="Page-1" stroke="none" stroke-width="1" fill="none" fill-rule="evenodd">
        <g id="osakakuma_website" transform="translate(-986.000000, -4561.000000)">
            <g id="Group-10" transform="translate(380.000000, 4561.000000)">
                <g id="arrow" transform="translate(620.000000, 9.000000)">
                    <g id="Oval-2">
                        <use fill="black" fill-opacity="1" filter="url(#filter-2)" xlink:href="#path-1"></use>
                        <use fill="#00C4B3" fill-rule="evenodd" xlink:href="#path-1"></use>
                    </g>
                    <path d="M14.601222,21.4900945 L23.5657841,21.4900945 L21.2195519,23.8363267 C20.9849287,24.0709499 20.9849287,24.4473246 21.2195519,24.6819478 C21.3368635,24.7992594 21.488391,24.8579152 21.6448065,24.8579152 C21.801222,24.8579152 21.9527495,24.7992594 22.0700611,24.6819478 L25.4378819,21.3141271 C25.6725051,21.0795038 25.6725051,20.7031291 25.4378819,20.4685059 L22.0700611,17.1006851 C21.8354379,16.8660619 21.4590631,16.8660619 21.2244399,17.1006851 C20.9898167,17.3353083 20.9898167,17.7116831 21.2244399,17.9463063 L23.5706721,20.2925385 L14.601222,20.2925385 C14.2688391,20.2925385 14,20.5613776 14,20.8937605 C14,21.2261434 14.2688391,21.4900945 14.601222,21.4900945 Z" id="Path" fill="#FFFFFF" fill-rule="nonzero"></path>
                </g>
            </g>
        </g>
    </g>
</svg>