<?xml version="1.0" encoding="UTF-8"?>
<svg width="322px" height="20px" viewBox="0 0 322 20" version="1.1" xmlns="http://www.w3.org/2000/svg" xmlns:xlink="http://www.w3.org/1999/xlink">
    <!-- Generator: Sketch 52.5 (67469) - http://www.bohemiancoding.com/sketch -->
    <title>Group 13</title>
    <desc>Created with Sketch.</desc>
    <g id="Page-1" stroke="none" stroke-width="1" fill="none" fill-rule="evenodd">
        <g id="Group-13" transform="translate(-1.000000, 0.000000)">
            <path d="M8.098,0.644 L14.988,0.644 L22.086,19 L16.054,19 L14.806,15.282 L8.254,15.282 L7.032,19 L0.974,19 L8.098,0.644 Z M11.556,5.402 L9.58,11.33 L13.506,11.33 L11.556,5.402 Z M23.9914285,0.644 L34.3654285,0.644 C35.5614285,0.644 37.2254285,0.67 38.4214285,1.008 C39.7214285,1.398 40.4234285,1.996 40.8654285,2.568 C41.2294285,3.062 41.6974285,3.868 41.6974285,5.09 C41.6974285,6 41.5154285,6.91 40.8914285,7.794 C40.8654285,7.82 40.6314285,8.132 40.4494285,8.314 C40.2934285,8.444 40.2154285,8.522 39.9294285,8.73 C39.6954285,8.912 39.4874285,9.094 39.0454285,9.198 C39.1494285,9.198 39.3574285,9.25 39.3574285,9.25 C39.4614285,9.276 40.0854285,9.536 40.5274285,9.848 C41.4894285,10.524 42.3994285,11.668 42.3994285,13.67 C42.3994285,14.086 42.3994285,15.022 41.8534285,16.088 C41.8274285,16.14 41.6714285,16.452 41.4894285,16.686 C41.2034285,17.102 40.6574285,17.7 39.7994285,18.142 C38.3434285,18.87 36.9654285,18.948 35.4834285,19 L23.9914285,19 L23.9914285,0.644 Z M29.4774285,4.882 L29.4774285,7.586 L34.1834285,7.586 C34.6514285,7.56 35.4574285,7.56 35.9254285,7.04 C36.0294285,6.936 36.2374285,6.598 36.2374285,6.156 C36.2374285,5.792 36.0814285,5.558 35.9514285,5.428 C35.5874285,5.012 35.1974285,4.96 34.3654285,4.882 L29.4774285,4.882 Z M29.4774285,11.694 L29.4774285,14.788 L34.1054285,14.788 C35.0674285,14.736 35.5874285,14.736 36.0554285,14.476 C36.5494285,14.216 36.8094285,13.696 36.8094285,13.254 C36.8094285,12.396 36.2374285,12.032 35.8474285,11.876 C35.4054285,11.72 34.6774285,11.72 34.2354285,11.694 L29.4774285,11.694 Z M55.328857,0.098 C59.124857,-0.006 61.620857,1.294 63.232857,2.75 C63.544857,3.036 63.856857,3.348 64.090857,3.66 C64.324857,3.92 64.506857,4.206 64.714857,4.518 C64.870857,4.752 65.026857,5.012 65.156857,5.246 C65.598857,6.052 66.222857,7.742 66.222857,9.848 C66.222857,10.524 66.222857,13.514 63.934857,16.114 C63.752857,16.296 63.362857,16.738 62.842857,17.154 C62.192857,17.7 60.710857,18.662 58.942857,19.104 C58.370857,19.26 57.148857,19.494 55.640857,19.494 C52.832857,19.494 51.194857,18.87 49.894857,18.168 C48.490857,17.388 47.970857,16.842 47.398857,16.244 C47.268857,16.088 47.112857,15.906 46.982857,15.724 C46.618857,15.282 46.358857,14.996 45.942857,14.086 C45.526857,13.254 44.980857,11.824 44.980857,9.718 C44.980857,9.042 45.032857,6.936 46.306857,4.83 C46.488857,4.492 46.644857,4.284 47.138857,3.686 C48.230857,2.386 49.192857,1.814 49.842857,1.476 C52.208857,0.202 54.548857,0.124 55.328857,0.098 Z M55.588857,4.57 C55.380857,4.57 53.040857,4.596 51.636857,6.364 C51.168857,6.988 50.570857,8.21 50.570857,9.822 C50.570857,10.498 50.778857,11.564 51.064857,12.24 C51.246857,12.63 51.558857,13.124 51.766857,13.384 C53.092857,14.996 55.354857,15.022 55.588857,15.022 C55.874857,15.022 57.148857,14.97 58.214857,14.398 C58.604857,14.19 58.916857,13.904 59.020857,13.826 C59.722857,13.15 59.956857,12.656 60.138857,12.266 C60.372857,11.72 60.632857,10.966 60.632857,9.77 C60.632857,9.38 60.606857,7.95 59.748857,6.624 C59.618857,6.442 59.410857,6.104 58.968857,5.714 C58.656857,5.454 58.188857,5.142 57.798857,4.986 C57.590857,4.908 57.252857,4.778 56.758857,4.674 C56.368857,4.622 55.978857,4.57 55.588857,4.57 Z M69.1942855,0.644 L74.7322855,0.644 L74.7322855,10.992 C74.7322855,11.226 74.7322855,11.434 74.7582855,11.668 C74.8622855,12.552 75.0962855,13.046 75.3562855,13.436 C75.5382855,13.748 75.7202855,13.878 75.8762855,14.034 C76.0062855,14.138 76.1622855,14.268 76.4222855,14.424 C76.6822855,14.554 77.0202855,14.658 77.0722855,14.684 C77.4622855,14.814 77.9562855,14.97 78.8142855,14.97 C80.1402855,14.97 80.9722855,14.58 81.5442855,14.086 C81.7522855,13.904 82.1682855,13.488 82.4022855,12.864 C82.6362855,12.292 82.6882855,11.772 82.7402855,10.654 L82.7402855,0.644 L88.2522855,0.644 L88.2522855,11.902 C88.2262855,12.396 88.1742855,12.89 88.1222855,13.358 C87.8362855,15.334 87.1342855,16.426 86.1462855,17.336 C84.7422855,18.584 82.6882855,19.312 79.4642855,19.468 C79.1522855,19.468 78.8142855,19.494 78.5022855,19.494 C78.1382855,19.494 73.9782855,19.598 71.4822855,17.414 C70.9102855,16.92 70.4942855,16.4 70.3382855,16.166 C70.1302855,15.88 69.8962855,15.464 69.6882855,14.788 C69.3242855,13.8 69.2202855,13.098 69.1942855,11.174 L69.1942855,0.644 Z M90.703714,0.644 L107.577714,0.644 L107.577714,4.908 L101.909714,4.908 L101.909714,19 L96.371714,19 L96.371714,4.908 L90.703714,4.908 L90.703714,0.644 Z" id="ABOUT" fill="#363636"></path>
            <path d="M130.362,0.098 C134.158,-0.006 136.654,1.294 138.266,2.75 C138.578,3.036 138.89,3.348 139.124,3.66 C139.358,3.92 139.54,4.206 139.748,4.518 C139.904,4.752 140.06,5.012 140.19,5.246 C140.632,6.052 141.256,7.742 141.256,9.848 C141.256,10.524 141.256,13.514 138.968,16.114 C138.786,16.296 138.396,16.738 137.876,17.154 C137.226,17.7 135.744,18.662 133.976,19.104 C133.404,19.26 132.182,19.494 130.674,19.494 C127.866,19.494 126.228,18.87 124.928,18.168 C123.524,17.388 123.004,16.842 122.432,16.244 C122.302,16.088 122.146,15.906 122.016,15.724 C121.652,15.282 121.392,14.996 120.976,14.086 C120.56,13.254 120.014,11.824 120.014,9.718 C120.014,9.042 120.066,6.936 121.34,4.83 C121.522,4.492 121.678,4.284 122.172,3.686 C123.264,2.386 124.226,1.814 124.876,1.476 C127.242,0.202 129.582,0.124 130.362,0.098 Z M130.622,4.57 C130.414,4.57 128.074,4.596 126.67,6.364 C126.202,6.988 125.604,8.21 125.604,9.822 C125.604,10.498 125.812,11.564 126.098,12.24 C126.28,12.63 126.592,13.124 126.8,13.384 C128.126,14.996 130.388,15.022 130.622,15.022 C130.908,15.022 132.182,14.97 133.248,14.398 C133.638,14.19 133.95,13.904 134.054,13.826 C134.756,13.15 134.99,12.656 135.172,12.266 C135.406,11.72 135.666,10.966 135.666,9.77 C135.666,9.38 135.64,7.95 134.782,6.624 C134.652,6.442 134.444,6.104 134.002,5.714 C133.69,5.454 133.222,5.142 132.832,4.986 C132.624,4.908 132.286,4.778 131.792,4.674 C131.402,4.622 131.012,4.57 130.622,4.57 Z M161.517429,5.844 L155.927429,6.208 C155.849428,5.896 155.771429,5.688 155.511428,5.376 C155.329429,5.168 155.303429,5.142 155.199429,5.064 C155.121428,5.012 155.043429,4.986 154.965428,4.908 C154.835428,4.856 154.705429,4.778 154.601429,4.726 C154.263429,4.57 153.405429,4.362 152.443428,4.362 C151.013429,4.362 149.635428,4.778 149.635428,5.74 C149.635428,5.87 149.635428,6.13 149.947428,6.39 C150.389428,6.754 151.507429,6.91 151.923429,6.988 L154.263429,7.3 C154.991429,7.404 155.719428,7.508 156.421428,7.664 C158.241429,8.08 159.203428,8.6 160.035429,9.276 C160.321429,9.536 160.529428,9.744 160.607429,9.822 C161.465428,10.81 161.725428,12.162 161.725428,13.254 C161.725428,13.592 161.699429,15.178 160.789429,16.504 C160.607429,16.79 160.165429,17.31 159.515428,17.804 C158.137429,18.844 156.161428,19.52 153.015428,19.52 C152.391429,19.52 149.817429,19.546 147.529428,18.584 C147.165429,18.428 146.775429,18.246 146.437429,18.012 C146.177429,17.856 145.943428,17.674 145.735429,17.518 C145.657428,17.44 145.579429,17.388 145.501428,17.336 C145.397429,17.258 145.293429,17.128 145.189428,17.024 C144.955429,16.764 144.799429,16.634 144.461428,16.114 C144.149428,15.646 143.785429,14.97 143.499429,13.852 C143.447428,13.67 143.447428,13.514 143.395428,13.332 C143.369429,13.228 143.343429,13.124 143.291428,13.02 L148.855429,12.682 C148.933429,12.89 149.089429,13.462 149.557429,13.982 C150.805428,15.308 153.145428,15.204 153.197428,15.204 C153.795428,15.204 154.757429,15.126 155.355429,14.788 C155.979428,14.45 156.057429,13.956 156.057429,13.722 C156.057429,13.67 156.031429,13.41 155.849428,13.15 C155.537428,12.682 154.861429,12.474 153.873429,12.292 C153.119429,12.162 152.365429,12.032 151.611429,11.928 C149.791428,11.642 146.957428,11.278 145.319428,9.77 C144.461428,8.99 143.863428,7.976 143.863428,6.208 C143.863428,5.818 143.889428,5.428 143.941429,5.038 C143.993428,4.622 144.201428,3.712 145.033428,2.724 C145.865429,1.71 147.113428,1.164 147.347429,1.06 C148.595428,0.514 150.129429,0.124 152.859428,0.124 C153.327428,0.124 156.473429,0.02 158.839429,1.658 C158.943428,1.71 159.281429,1.97 159.619429,2.282 C159.957428,2.62 160.581428,3.244 161.075429,4.336 C161.283428,4.83 161.413429,5.35 161.517429,5.844 Z M169.636857,0.644 L176.526857,0.644 L183.624857,19 L177.592857,19 L176.344857,15.282 L169.792857,15.282 L168.570857,19 L162.512857,19 L169.636857,0.644 Z M173.094857,5.402 L171.118857,11.33 L175.044857,11.33 L173.094857,5.402 Z M185.582285,0.644 L191.042285,0.644 L191.042285,7.378 C191.458285,6.962 191.796285,6.676 192.160286,6.364 C192.472285,6.078 192.862286,5.714 193.226285,5.402 C193.382285,5.246 193.538285,5.142 193.668285,5.012 C193.876286,4.804 194.084286,4.622 194.266285,4.466 C194.968286,3.842 195.774285,3.114 196.528285,2.438 C197.178286,1.84 197.854285,1.294 198.504286,0.644 L205.810285,0.644 L196.944285,8.366 C197.100285,8.496 197.230285,8.626 197.360285,8.756 C197.568286,8.99 197.750286,9.224 197.984285,9.484 C198.166286,9.718 198.400285,9.978 198.608286,10.212 C199.518286,11.252 200.376286,12.266 201.260286,13.28 C201.806285,13.904 202.378285,14.58 202.924286,15.204 C203.236286,15.568 203.574285,15.984 203.886285,16.348 C204.120286,16.634 204.354285,16.868 204.588285,17.154 C204.926285,17.518 205.212285,17.882 205.550286,18.272 C205.732286,18.506 205.966285,18.766 206.174286,19 L199.362286,19 C198.400285,17.882 197.490286,16.816 196.554286,15.698 C196.372285,15.49 196.216285,15.308 196.034285,15.1 C195.878285,14.918 195.696286,14.71 195.514286,14.502 C195.332285,14.32 195.176285,14.112 194.994285,13.93 C194.708285,13.592 194.474286,13.28 194.188286,12.994 C194.058286,12.838 193.928286,12.656 193.772286,12.5 C193.512285,12.214 193.304286,11.928 193.096285,11.642 L191.068286,13.462 L191.068286,19 L185.582285,19 L185.582285,0.644 Z M213.695714,0.644 L220.585714,0.644 L227.683714,19 L221.651714,19 L220.403714,15.282 L213.851714,15.282 L212.629714,19 L206.571714,19 L213.695714,0.644 Z M217.153714,5.402 L215.177714,11.33 L219.103714,11.33 L217.153714,5.402 Z M229.641142,0.644 L235.101142,0.644 L235.101142,7.378 C235.517142,6.962 235.855142,6.676 236.219143,6.364 C236.531142,6.078 236.921143,5.714 237.285142,5.402 C237.441142,5.246 237.597142,5.142 237.727142,5.012 C237.935143,4.804 238.143143,4.622 238.325142,4.466 C239.027143,3.842 239.833142,3.114 240.587142,2.438 C241.237143,1.84 241.913142,1.294 242.563143,0.644 L249.869142,0.644 L241.003142,8.366 C241.159142,8.496 241.289142,8.626 241.419142,8.756 C241.627143,8.99 241.809143,9.224 242.043142,9.484 C242.225143,9.718 242.459142,9.978 242.667143,10.212 C243.577143,11.252 244.435143,12.266 245.319143,13.28 C245.865142,13.904 246.437142,14.58 246.983143,15.204 C247.295143,15.568 247.633142,15.984 247.945142,16.348 C248.179143,16.634 248.413142,16.868 248.647142,17.154 C248.985142,17.518 249.271142,17.882 249.609143,18.272 C249.791143,18.506 250.025142,18.766 250.233143,19 L243.421143,19 C242.459142,17.882 241.549143,16.816 240.613143,15.698 C240.431142,15.49 240.275142,15.308 240.093142,15.1 C239.937142,14.918 239.755143,14.71 239.573143,14.502 C239.391142,14.32 239.235142,14.112 239.053142,13.93 C238.767142,13.592 238.533143,13.28 238.247143,12.994 C238.117143,12.838 237.987143,12.656 237.831143,12.5 C237.571142,12.214 237.363143,11.928 237.155142,11.642 L235.127143,13.462 L235.127143,19 L229.641142,19 L229.641142,0.644 Z M252.216571,0.644 L257.754571,0.644 L257.754571,10.992 C257.754571,11.226 257.754571,11.434 257.780571,11.668 C257.884571,12.552 258.118571,13.046 258.378571,13.436 C258.560571,13.748 258.742571,13.878 258.898571,14.034 C259.028571,14.138 259.184571,14.268 259.444571,14.424 C259.704571,14.554 260.042571,14.658 260.094571,14.684 C260.484571,14.814 260.978571,14.97 261.836571,14.97 C263.162571,14.97 263.994571,14.58 264.566571,14.086 C264.774571,13.904 265.190571,13.488 265.424571,12.864 C265.658571,12.292 265.710571,11.772 265.762571,10.654 L265.762571,0.644 L271.274571,0.644 L271.274571,11.902 C271.248571,12.396 271.196571,12.89 271.144571,13.358 C270.858571,15.334 270.156571,16.426 269.168571,17.336 C267.764571,18.584 265.710571,19.312 262.486571,19.468 C262.174571,19.468 261.836571,19.494 261.524571,19.494 C261.160571,19.494 257.000571,19.598 254.504571,17.414 C253.932571,16.92 253.516571,16.4 253.360571,16.166 C253.152571,15.88 252.918571,15.464 252.710571,14.788 C252.346571,13.8 252.242571,13.098 252.216571,11.174 L252.216571,0.644 Z M275.883999,0.644 L283.502,0.644 L287.557999,13.332 L291.691999,0.644 L299.205999,0.644 L299.205999,19 L293.797999,19 C293.824,16.348 293.85,13.722 293.901999,11.07 C293.953999,9.276 294.006,7.456 294.057999,5.662 C293.668,7.144 293.278,8.652 292.836,10.134 C292.524,11.2 292.159999,12.292 291.821999,13.358 C291.249999,15.23 290.703999,17.102 290.105999,19 L284.984,19 C284.568,17.648 284.151999,16.322 283.735999,14.97 C283.423999,13.982 283.086,12.994 282.8,12.006 C282.488,10.94 282.202,9.9 281.915999,8.834 C281.604,7.768 281.292,6.702 281.006,5.636 L281.318,19 L275.883999,19 L275.883999,0.644 Z M308.339428,0.644 L315.229428,0.644 L322.327428,19 L316.295428,19 L315.047428,15.282 L308.495428,15.282 L307.273428,19 L301.215428,19 L308.339428,0.644 Z M311.797428,5.402 L309.821428,11.33 L313.747428,11.33 L311.797428,5.402 Z" id="OSAKAKUMA" fill="#00C4B3"></path>
        </g>
    </g>
</svg>