<?xml version="1.0" encoding="UTF-8"?>
<svg width="203px" height="50px" viewBox="0 0 203 50" version="1.1" xmlns="http://www.w3.org/2000/svg" xmlns:xlink="http://www.w3.org/1999/xlink">
    <!-- Generator: Sketch 52.5 (67469) - http://www.bohemiancoding.com/sketch -->
    <title>Group 17</title>
    <desc>Created with Sketch.</desc>
    <g id="Page-1" stroke="none" stroke-width="1" fill="none" fill-rule="evenodd">
        <g id="Group-17">
            <g id="Group-16">
                <path d="M54.3634287,0.644 L61.2534287,0.644 L68.3514287,19 L62.3194287,19 L61.0714287,15.282 L54.5194287,15.282 L53.2974287,19 L47.2394287,19 L54.3634287,0.644 Z M57.8214287,5.402 L55.8454287,11.33 L59.7714287,11.33 L57.8214287,5.402 Z M70.2568572,0.644 L80.6308572,0.644 C81.8268572,0.644 83.4908572,0.67 84.6868572,1.008 C85.9868572,1.398 86.6888572,1.996 87.1308572,2.568 C87.4948572,3.062 87.9628572,3.868 87.9628572,5.09 C87.9628572,6 87.7808572,6.91 87.1568572,7.794 C87.1308572,7.82 86.8968572,8.132 86.7148572,8.314 C86.5588572,8.444 86.4808572,8.522 86.1948572,8.73 C85.9608572,8.912 85.7528572,9.094 85.3108572,9.198 C85.4148572,9.198 85.6228572,9.25 85.6228572,9.25 C85.7268572,9.276 86.3508572,9.536 86.7928572,9.848 C87.7548572,10.524 88.6648572,11.668 88.6648572,13.67 C88.6648572,14.086 88.6648572,15.022 88.1188572,16.088 C88.0928572,16.14 87.9368572,16.452 87.7548572,16.686 C87.4688572,17.102 86.9228572,17.7 86.0648572,18.142 C84.6088572,18.87 83.2308572,18.948 81.7488572,19 L70.2568572,19 L70.2568572,0.644 Z M75.7428572,4.882 L75.7428572,7.586 L80.4488572,7.586 C80.9168572,7.56 81.7228572,7.56 82.1908572,7.04 C82.2948572,6.936 82.5028572,6.598 82.5028572,6.156 C82.5028572,5.792 82.3468572,5.558 82.2168572,5.428 C81.8528572,5.012 81.4628572,4.96 80.6308572,4.882 L75.7428572,4.882 Z M75.7428572,11.694 L75.7428572,14.788 L80.3708572,14.788 C81.3328572,14.736 81.8528572,14.736 82.3208572,14.476 C82.8148572,14.216 83.0748572,13.696 83.0748572,13.254 C83.0748572,12.396 82.5028572,12.032 82.1128572,11.876 C81.6708572,11.72 80.9428572,11.72 80.5008572,11.694 L75.7428572,11.694 Z M101.594286,0.098 C105.390286,-0.006 107.886286,1.294 109.498286,2.75 C109.810286,3.036 110.122286,3.348 110.356286,3.66 C110.590286,3.92 110.772286,4.206 110.980286,4.518 C111.136286,4.752 111.292286,5.012 111.422286,5.246 C111.864286,6.052 112.488286,7.742 112.488286,9.848 C112.488286,10.524 112.488286,13.514 110.200286,16.114 C110.018286,16.296 109.628286,16.738 109.108286,17.154 C108.458286,17.7 106.976286,18.662 105.208286,19.104 C104.636286,19.26 103.414286,19.494 101.906286,19.494 C99.0982857,19.494 97.4602857,18.87 96.1602857,18.168 C94.7562857,17.388 94.2362857,16.842 93.6642857,16.244 C93.5342857,16.088 93.3782857,15.906 93.2482857,15.724 C92.8842857,15.282 92.6242857,14.996 92.2082857,14.086 C91.7922857,13.254 91.2462857,11.824 91.2462857,9.718 C91.2462857,9.042 91.2982857,6.936 92.5722857,4.83 C92.7542857,4.492 92.9102857,4.284 93.4042857,3.686 C94.4962857,2.386 95.4582857,1.814 96.1082857,1.476 C98.4742857,0.202 100.814286,0.124 101.594286,0.098 Z M101.854286,4.57 C101.646286,4.57 99.3062857,4.596 97.9022857,6.364 C97.4342857,6.988 96.8362857,8.21 96.8362857,9.822 C96.8362857,10.498 97.0442857,11.564 97.3302857,12.24 C97.5122857,12.63 97.8242857,13.124 98.0322857,13.384 C99.3582857,14.996 101.620286,15.022 101.854286,15.022 C102.140286,15.022 103.414286,14.97 104.480286,14.398 C104.870286,14.19 105.182286,13.904 105.286286,13.826 C105.988286,13.15 106.222286,12.656 106.404286,12.266 C106.638286,11.72 106.898286,10.966 106.898286,9.77 C106.898286,9.38 106.872286,7.95 106.014286,6.624 C105.884286,6.442 105.676286,6.104 105.234286,5.714 C104.922286,5.454 104.454286,5.142 104.064286,4.986 C103.856286,4.908 103.518286,4.778 103.024286,4.674 C102.634286,4.622 102.244286,4.57 101.854286,4.57 Z M115.459714,0.644 L120.997714,0.644 L120.997714,10.992 C120.997714,11.226 120.997714,11.434 121.023714,11.668 C121.127714,12.552 121.361714,13.046 121.621714,13.436 C121.803714,13.748 121.985714,13.878 122.141714,14.034 C122.271714,14.138 122.427714,14.268 122.687714,14.424 C122.947714,14.554 123.285714,14.658 123.337714,14.684 C123.727714,14.814 124.221714,14.97 125.079714,14.97 C126.405714,14.97 127.237714,14.58 127.809714,14.086 C128.017714,13.904 128.433714,13.488 128.667714,12.864 C128.901714,12.292 128.953714,11.772 129.005714,10.654 L129.005714,0.644 L134.517714,0.644 L134.517714,11.902 C134.491714,12.396 134.439714,12.89 134.387714,13.358 C134.101714,15.334 133.399714,16.426 132.411714,17.336 C131.007714,18.584 128.953714,19.312 125.729714,19.468 C125.417714,19.468 125.079714,19.494 124.767714,19.494 C124.403714,19.494 120.243714,19.598 117.747714,17.414 C117.175714,16.92 116.759714,16.4 116.603714,16.166 C116.395714,15.88 116.161714,15.464 115.953714,14.788 C115.589714,13.8 115.485714,13.098 115.459714,11.174 L115.459714,0.644 Z M136.969143,0.644 L153.843143,0.644 L153.843143,4.908 L148.175143,4.908 L148.175143,19 L142.637143,19 L142.637143,4.908 L136.969143,4.908 L136.969143,0.644 Z" id="ABOUT" fill="#363636"></path>
                <path d="M10.4995717,30.098 C14.2955717,29.994 16.7915717,31.294 18.4035717,32.75 C18.7155717,33.036 19.0275717,33.348 19.2615717,33.66 C19.4955717,33.92 19.6775717,34.206 19.8855717,34.518 C20.0415717,34.752 20.1975717,35.012 20.3275717,35.246 C20.7695717,36.052 21.3935717,37.742 21.3935717,39.848 C21.3935717,40.524 21.3935717,43.514 19.1055717,46.114 C18.9235717,46.296 18.5335717,46.738 18.0135717,47.154 C17.3635717,47.7 15.8815717,48.662 14.1135717,49.104 C13.5415717,49.26 12.3195717,49.494 10.8115717,49.494 C8.00357175,49.494 6.36557175,48.87 5.06557175,48.168 C3.66157175,47.388 3.14157175,46.842 2.56957175,46.244 C2.43957175,46.088 2.28357175,45.906 2.15357175,45.724 C1.78957175,45.282 1.52957175,44.996 1.11357175,44.086 C0.69757175,43.254 0.15157175,41.824 0.15157175,39.718 C0.15157175,39.042 0.20357175,36.936 1.47757175,34.83 C1.65957175,34.492 1.81557175,34.284 2.30957175,33.686 C3.40157175,32.386 4.36357175,31.814 5.01357175,31.476 C7.37957175,30.202 9.71957175,30.124 10.4995717,30.098 Z M10.7595717,34.57 C10.5515717,34.57 8.21157175,34.596 6.80757175,36.364 C6.33957175,36.988 5.74157175,38.21 5.74157175,39.822 C5.74157175,40.498 5.94957175,41.564 6.23557175,42.24 C6.41757175,42.63 6.72957175,43.124 6.93757175,43.384 C8.26357175,44.996 10.5255717,45.022 10.7595717,45.022 C11.0455717,45.022 12.3195717,44.97 13.3855717,44.398 C13.7755717,44.19 14.0875717,43.904 14.1915717,43.826 C14.8935717,43.15 15.1275717,42.656 15.3095717,42.266 C15.5435717,41.72 15.8035717,40.966 15.8035717,39.77 C15.8035717,39.38 15.7775717,37.95 14.9195717,36.624 C14.7895717,36.442 14.5815717,36.104 14.1395717,35.714 C13.8275717,35.454 13.3595717,35.142 12.9695717,34.986 C12.7615717,34.908 12.4235717,34.778 11.9295717,34.674 C11.5395717,34.622 11.1495717,34.57 10.7595717,34.57 Z M41.6550002,35.844 L36.0650002,36.208 C35.9870002,35.896 35.9090002,35.688 35.6490002,35.376 C35.4670002,35.168 35.4410002,35.142 35.3370002,35.064 C35.2590002,35.012 35.1810002,34.986 35.1030002,34.908 C34.9730002,34.856 34.8430002,34.778 34.7390002,34.726 C34.4010002,34.57 33.5430002,34.362 32.5810002,34.362 C31.1510002,34.362 29.7730002,34.778 29.7730002,35.74 C29.7730002,35.87 29.7730002,36.13 30.0850002,36.39 C30.5270002,36.754 31.6450002,36.91 32.0610002,36.988 L34.4010002,37.3 C35.1290002,37.404 35.8570002,37.508 36.5590002,37.664 C38.3790002,38.08 39.3410002,38.6 40.1730002,39.276 C40.4590002,39.536 40.6670002,39.744 40.7450002,39.822 C41.6030002,40.81 41.8630002,42.162 41.8630002,43.254 C41.8630002,43.592 41.8370002,45.178 40.9270002,46.504 C40.7450002,46.79 40.3030002,47.31 39.6530002,47.804 C38.2750002,48.844 36.2990002,49.52 33.1530002,49.52 C32.5290002,49.52 29.9550002,49.546 27.6670002,48.584 C27.3030002,48.428 26.9130002,48.246 26.5750002,48.012 C26.3150002,47.856 26.0810002,47.674 25.8730002,47.518 C25.7950002,47.44 25.7170002,47.388 25.6390002,47.336 C25.5350002,47.258 25.4310002,47.128 25.3270002,47.024 C25.0930002,46.764 24.9370002,46.634 24.5990002,46.114 C24.2870002,45.646 23.9230002,44.97 23.6370002,43.852 C23.5850002,43.67 23.5850002,43.514 23.5330002,43.332 C23.5070002,43.228 23.4810002,43.124 23.4290002,43.02 L28.9930002,42.682 C29.0710002,42.89 29.2270002,43.462 29.6950002,43.982 C30.9430002,45.308 33.2830002,45.204 33.3350002,45.204 C33.9330002,45.204 34.8950002,45.126 35.4930002,44.788 C36.1170002,44.45 36.1950002,43.956 36.1950002,43.722 C36.1950002,43.67 36.1690002,43.41 35.9870002,43.15 C35.6750002,42.682 34.9990002,42.474 34.0110002,42.292 C33.2570002,42.162 32.5030002,42.032 31.7490002,41.928 C29.9290002,41.642 27.0950002,41.278 25.4570002,39.77 C24.5990002,38.99 24.0010002,37.976 24.0010002,36.208 C24.0010002,35.818 24.0270002,35.428 24.0790002,35.038 C24.1310002,34.622 24.3390002,33.712 25.1710002,32.724 C26.0030002,31.71 27.2510002,31.164 27.4850002,31.06 C28.7330002,30.514 30.2670002,30.124 32.9970002,30.124 C33.4650002,30.124 36.6110002,30.02 38.9770002,31.658 C39.0810002,31.71 39.4190002,31.97 39.7570002,32.282 C40.0950002,32.62 40.7190002,33.244 41.2130002,34.336 C41.4210002,34.83 41.5510002,35.35 41.6550002,35.844 Z M49.7744287,30.644 L56.6644287,30.644 L63.7624287,49 L57.7304287,49 L56.4824287,45.282 L49.9304287,45.282 L48.7084287,49 L42.6504287,49 L49.7744287,30.644 Z M53.2324287,35.402 L51.2564287,41.33 L55.1824287,41.33 L53.2324287,35.402 Z M65.7198572,30.644 L71.1798572,30.644 L71.1798572,37.378 C71.5958572,36.962 71.9338572,36.676 72.2978572,36.364 C72.6098572,36.078 72.9998572,35.714 73.3638572,35.402 C73.5198572,35.246 73.6758572,35.142 73.8058572,35.012 C74.0138572,34.804 74.2218572,34.622 74.4038572,34.466 C75.1058572,33.842 75.9118572,33.114 76.6658572,32.438 C77.3158572,31.84 77.9918572,31.294 78.6418572,30.644 L85.9478572,30.644 L77.0818572,38.366 C77.2378572,38.496 77.3678572,38.626 77.4978572,38.756 C77.7058572,38.99 77.8878572,39.224 78.1218572,39.484 C78.3038572,39.718 78.5378572,39.978 78.7458572,40.212 C79.6558572,41.252 80.5138572,42.266 81.3978572,43.28 C81.9438572,43.904 82.5158572,44.58 83.0618572,45.204 C83.3738572,45.568 83.7118572,45.984 84.0238572,46.348 C84.2578572,46.634 84.4918572,46.868 84.7258572,47.154 C85.0638572,47.518 85.3498572,47.882 85.6878572,48.272 C85.8698572,48.506 86.1038572,48.766 86.3118572,49 L79.4998572,49 C78.5378572,47.882 77.6278572,46.816 76.6918572,45.698 C76.5098572,45.49 76.3538572,45.308 76.1718572,45.1 C76.0158572,44.918 75.8338572,44.71 75.6518572,44.502 C75.4698572,44.32 75.3138572,44.112 75.1318572,43.93 C74.8458572,43.592 74.6118572,43.28 74.3258572,42.994 C74.1958572,42.838 74.0658572,42.656 73.9098572,42.5 C73.6498572,42.214 73.4418572,41.928 73.2338572,41.642 L71.2058572,43.462 L71.2058572,49 L65.7198572,49 L65.7198572,30.644 Z M93.8332857,30.644 L100.723286,30.644 L107.821286,49 L101.789286,49 L100.541286,45.282 L93.9892857,45.282 L92.7672857,49 L86.7092857,49 L93.8332857,30.644 Z M97.2912857,35.402 L95.3152857,41.33 L99.2412857,41.33 L97.2912857,35.402 Z M109.778714,30.644 L115.238714,30.644 L115.238714,37.378 C115.654714,36.962 115.992714,36.676 116.356714,36.364 C116.668714,36.078 117.058714,35.714 117.422714,35.402 C117.578714,35.246 117.734714,35.142 117.864714,35.012 C118.072714,34.804 118.280714,34.622 118.462714,34.466 C119.164714,33.842 119.970714,33.114 120.724714,32.438 C121.374714,31.84 122.050714,31.294 122.700714,30.644 L130.006714,30.644 L121.140714,38.366 C121.296714,38.496 121.426714,38.626 121.556714,38.756 C121.764714,38.99 121.946714,39.224 122.180714,39.484 C122.362714,39.718 122.596714,39.978 122.804714,40.212 C123.714714,41.252 124.572714,42.266 125.456714,43.28 C126.002714,43.904 126.574714,44.58 127.120714,45.204 C127.432714,45.568 127.770714,45.984 128.082714,46.348 C128.316714,46.634 128.550714,46.868 128.784714,47.154 C129.122714,47.518 129.408714,47.882 129.746714,48.272 C129.928714,48.506 130.162714,48.766 130.370714,49 L123.558714,49 C122.596714,47.882 121.686714,46.816 120.750714,45.698 C120.568714,45.49 120.412714,45.308 120.230714,45.1 C120.074714,44.918 119.892714,44.71 119.710714,44.502 C119.528714,44.32 119.372714,44.112 119.190714,43.93 C118.904714,43.592 118.670714,43.28 118.384714,42.994 C118.254714,42.838 118.124714,42.656 117.968714,42.5 C117.708714,42.214 117.500714,41.928 117.292714,41.642 L115.264714,43.462 L115.264714,49 L109.778714,49 L109.778714,30.644 Z M132.354143,30.644 L137.892143,30.644 L137.892143,40.992 C137.892143,41.226 137.892143,41.434 137.918143,41.668 C138.022143,42.552 138.256143,43.046 138.516143,43.436 C138.698143,43.748 138.880143,43.878 139.036143,44.034 C139.166143,44.138 139.322143,44.268 139.582143,44.424 C139.842143,44.554 140.180143,44.658 140.232143,44.684 C140.622143,44.814 141.116143,44.97 141.974143,44.97 C143.300143,44.97 144.132143,44.58 144.704143,44.086 C144.912143,43.904 145.328143,43.488 145.562143,42.864 C145.796143,42.292 145.848143,41.772 145.900143,40.654 L145.900143,30.644 L151.412143,30.644 L151.412143,41.902 C151.386143,42.396 151.334143,42.89 151.282143,43.358 C150.996143,45.334 150.294143,46.426 149.306143,47.336 C147.902143,48.584 145.848143,49.312 142.624143,49.468 C142.312143,49.468 141.974143,49.494 141.662143,49.494 C141.298143,49.494 137.138143,49.598 134.642143,47.414 C134.070143,46.92 133.654143,46.4 133.498143,46.166 C133.290143,45.88 133.056143,45.464 132.848143,44.788 C132.484143,43.8 132.380143,43.098 132.354143,41.174 L132.354143,30.644 Z M156.021571,30.644 L163.639571,30.644 L167.695571,43.332 L171.829571,30.644 L179.343571,30.644 L179.343571,49 L173.935571,49 C173.961571,46.348 173.987571,43.722 174.039571,41.07 C174.091571,39.276 174.143571,37.456 174.195571,35.662 C173.805571,37.144 173.415571,38.652 172.973571,40.134 C172.661571,41.2 172.297571,42.292 171.959571,43.358 C171.387571,45.23 170.841571,47.102 170.243571,49 L165.121571,49 C164.705571,47.648 164.289571,46.322 163.873571,44.97 C163.561571,43.982 163.223571,42.994 162.937571,42.006 C162.625571,40.94 162.339571,39.9 162.053571,38.834 C161.741571,37.768 161.429571,36.702 161.143571,35.636 L161.455571,49 L156.021571,49 L156.021571,30.644 Z M188.477,30.644 L195.367,30.644 L202.465,49 L196.433,49 L195.185,45.282 L188.633,45.282 L187.411,49 L181.353,49 L188.477,30.644 Z M191.935,35.402 L189.959,41.33 L193.885,41.33 L191.935,35.402 Z" id="OSAKAKUMA" fill="#00C4B3"></path>
            </g>
        </g>
    </g>
</svg>