<?xml version="1.0" encoding="UTF-8"?>
<svg width="475px" height="157px" viewBox="0 0 475 157" version="1.1" xmlns="http://www.w3.org/2000/svg" xmlns:xlink="http://www.w3.org/1999/xlink">
    <!-- Generator: Sketch 52.5 (67469) - http://www.bohemiancoding.com/sketch -->
    <title>. BEST SELECTION . B Copy 2</title>
    <desc>Created with Sketch.</desc>
    <g id="Page-1" stroke="none" stroke-width="1" fill="none" fill-rule="evenodd">
        <path d="M12.4632136,23.271 L12.4632136,32 L3.7342136,32 L3.7342136,23.271 L12.4632136,23.271 Z M32.8697852,1.642 L50.0267852,1.642 C52.0047852,1.642 54.7567852,1.685 56.7347852,2.244 C58.8847852,2.889 60.0457852,3.878 60.7767852,4.824 C61.3787852,5.641 62.1527852,6.974 62.1527852,8.995 C62.1527852,10.5 61.8517852,12.005 60.8197852,13.467 C60.7767852,13.51 60.3897852,14.026 60.0887852,14.327 C59.8307852,14.542 59.7017852,14.671 59.2287852,15.015 C58.8417852,15.316 58.4977852,15.617 57.7667852,15.789 C57.9387852,15.789 58.2827852,15.875 58.2827852,15.875 C58.4547852,15.918 59.4867852,16.348 60.2177852,16.864 C61.8087852,17.982 63.3137852,19.874 63.3137852,23.185 C63.3137852,23.873 63.3137852,25.421 62.4107852,27.184 C62.3677852,27.27 62.1097852,27.786 61.8087852,28.173 C61.3357852,28.861 60.4327852,29.85 59.0137852,30.581 C56.6057852,31.785 54.3267852,31.914 51.8757852,32 L32.8697852,32 L32.8697852,1.642 Z M41.9427852,8.651 L41.9427852,13.123 L49.7257852,13.123 C50.4997852,13.08 51.8327852,13.08 52.6067852,12.22 C52.7787852,12.048 53.1227852,11.489 53.1227852,10.758 C53.1227852,10.156 52.8647852,9.769 52.6497852,9.554 C52.0477852,8.866 51.4027852,8.78 50.0267852,8.651 L41.9427852,8.651 Z M41.9427852,19.917 L41.9427852,25.034 L49.5967852,25.034 C51.1877852,24.948 52.0477852,24.948 52.8217852,24.518 C53.6387852,24.088 54.0687852,23.228 54.0687852,22.497 C54.0687852,21.078 53.1227852,20.476 52.4777852,20.218 C51.7467852,19.96 50.5427852,19.96 49.8117852,19.917 L41.9427852,19.917 Z M70.292071,1.642 L98.414071,1.642 L98.414071,8.694 L79.408071,8.694 L79.408071,12.994 L97.597071,12.994 L97.597071,19.917 L79.408071,19.917 L79.408071,24.905 L99.016071,24.905 L99.016071,32 L70.292071,32 L70.292071,1.642 Z M132.654357,10.242 L123.409357,10.844 C123.280357,10.328 123.151357,9.984 122.721357,9.468 C122.420357,9.124 122.377357,9.081 122.205357,8.952 C122.076357,8.866 121.947357,8.823 121.818357,8.694 C121.603357,8.608 121.388357,8.479 121.216357,8.393 C120.657357,8.135 119.238357,7.791 117.647357,7.791 C115.282357,7.791 113.003357,8.479 113.003357,10.07 C113.003357,10.285 113.003357,10.715 113.519357,11.145 C114.250357,11.747 116.099357,12.005 116.787357,12.134 L120.657357,12.65 C121.861357,12.822 123.065357,12.994 124.226357,13.252 C127.236357,13.94 128.827357,14.8 130.203357,15.918 C130.676357,16.348 131.020357,16.692 131.149357,16.821 C132.568357,18.455 132.998357,20.691 132.998357,22.497 C132.998357,23.056 132.955357,25.679 131.450357,27.872 C131.149357,28.345 130.418357,29.205 129.343357,30.022 C127.064357,31.742 123.796357,32.86 118.593357,32.86 C117.561357,32.86 113.304357,32.903 109.520357,31.312 C108.918357,31.054 108.273357,30.753 107.714357,30.366 C107.284357,30.108 106.897357,29.807 106.553357,29.549 C106.424357,29.42 106.295357,29.334 106.166357,29.248 C105.994357,29.119 105.822357,28.904 105.650357,28.732 C105.263357,28.302 105.005357,28.087 104.446357,27.227 C103.930357,26.453 103.328357,25.335 102.855357,23.486 C102.769357,23.185 102.769357,22.927 102.683357,22.626 C102.640357,22.454 102.597357,22.282 102.511357,22.11 L111.713357,21.551 C111.842357,21.895 112.100357,22.841 112.874357,23.701 C114.938357,25.894 118.808357,25.722 118.894357,25.722 C119.883357,25.722 121.474357,25.593 122.463357,25.034 C123.495357,24.475 123.624357,23.658 123.624357,23.271 C123.624357,23.185 123.581357,22.755 123.280357,22.325 C122.764357,21.551 121.646357,21.207 120.012357,20.906 C118.765357,20.691 117.518357,20.476 116.271357,20.304 C113.261357,19.831 108.574357,19.229 105.865357,16.735 C104.446357,15.445 103.457357,13.768 103.457357,10.844 C103.457357,10.199 103.500357,9.554 103.586357,8.909 C103.672357,8.221 104.016357,6.716 105.392357,5.082 C106.768357,3.405 108.832357,2.502 109.219357,2.33 C111.283357,1.427 113.820357,0.782 118.335357,0.782 C119.109357,0.782 124.312357,0.61 128.225357,3.319 C128.397357,3.405 128.956357,3.835 129.515357,4.351 C130.074357,4.91 131.106357,5.942 131.923357,7.748 C132.267357,8.565 132.482357,9.425 132.654357,10.242 Z M135.160643,1.642 L163.067643,1.642 L163.067643,8.694 L153.693643,8.694 L153.693643,32 L144.534643,32 L144.534643,8.694 L135.160643,8.694 L135.160643,1.642 Z M210.650214,10.242 L201.405214,10.844 C201.276214,10.328 201.147214,9.984 200.717214,9.468 C200.416214,9.124 200.373214,9.081 200.201214,8.952 C200.072214,8.866 199.943214,8.823 199.814214,8.694 C199.599214,8.608 199.384214,8.479 199.212214,8.393 C198.653214,8.135 197.234214,7.791 195.643214,7.791 C193.278214,7.791 190.999214,8.479 190.999214,10.07 C190.999214,10.285 190.999214,10.715 191.515214,11.145 C192.246214,11.747 194.095214,12.005 194.783214,12.134 L198.653214,12.65 C199.857214,12.822 201.061214,12.994 202.222214,13.252 C205.232214,13.94 206.823214,14.8 208.199214,15.918 C208.672214,16.348 209.016214,16.692 209.145214,16.821 C210.564214,18.455 210.994214,20.691 210.994214,22.497 C210.994214,23.056 210.951214,25.679 209.446214,27.872 C209.145214,28.345 208.414214,29.205 207.339214,30.022 C205.060214,31.742 201.792214,32.86 196.589214,32.86 C195.557214,32.86 191.300214,32.903 187.516214,31.312 C186.914214,31.054 186.269214,30.753 185.710214,30.366 C185.280214,30.108 184.893214,29.807 184.549214,29.549 C184.420214,29.42 184.291214,29.334 184.162214,29.248 C183.990214,29.119 183.818214,28.904 183.646214,28.732 C183.259214,28.302 183.001214,28.087 182.442214,27.227 C181.926214,26.453 181.324214,25.335 180.851214,23.486 C180.765214,23.185 180.765214,22.927 180.679214,22.626 C180.636214,22.454 180.593214,22.282 180.507214,22.11 L189.709214,21.551 C189.838214,21.895 190.096214,22.841 190.870214,23.701 C192.934214,25.894 196.804214,25.722 196.890214,25.722 C197.879214,25.722 199.470214,25.593 200.459214,25.034 C201.491214,24.475 201.620214,23.658 201.620214,23.271 C201.620214,23.185 201.577214,22.755 201.276214,22.325 C200.760214,21.551 199.642214,21.207 198.008214,20.906 C196.761214,20.691 195.514214,20.476 194.267214,20.304 C191.257214,19.831 186.570214,19.229 183.861214,16.735 C182.442214,15.445 181.453214,13.768 181.453214,10.844 C181.453214,10.199 181.496214,9.554 181.582214,8.909 C181.668214,8.221 182.012214,6.716 183.388214,5.082 C184.764214,3.405 186.828214,2.502 187.215214,2.33 C189.279214,1.427 191.816214,0.782 196.331214,0.782 C197.105214,0.782 202.308214,0.61 206.221214,3.319 C206.393214,3.405 206.952214,3.835 207.511214,4.351 C208.070214,4.91 209.102214,5.942 209.919214,7.748 C210.263214,8.565 210.478214,9.425 210.650214,10.242 Z M215.8225,1.642 L243.9445,1.642 L243.9445,8.694 L224.9385,8.694 L224.9385,12.994 L243.1275,12.994 L243.1275,19.917 L224.9385,19.917 L224.9385,24.905 L244.5465,24.905 L244.5465,32 L215.8225,32 L215.8225,1.642 Z M251.352786,1.642 L260.554786,1.642 L260.554786,24.905 L277.668786,24.905 L277.668786,32 L251.352786,32 L251.352786,1.642 Z M282.497072,1.642 L310.619072,1.642 L310.619072,8.694 L291.613072,8.694 L291.613072,12.994 L309.802072,12.994 L309.802072,19.917 L291.613072,19.917 L291.613072,24.905 L311.221072,24.905 L311.221072,32 L282.497072,32 L282.497072,1.642 Z M348.987357,11.36 L339.355357,12.005 C339.269357,11.704 339.140357,11.403 338.968357,11.059 C338.753357,10.715 338.194357,9.941 337.420357,9.425 C336.646357,8.866 334.969357,8.178 332.862357,8.178 C332.346357,8.178 329.938357,8.221 327.917357,9.683 C327.186357,10.199 326.713357,10.715 326.498357,11.016 C326.154357,11.403 325.896357,11.79 325.509357,12.564 C325.380357,12.822 325.251357,13.08 325.165357,13.381 C324.950357,13.897 324.606357,15.273 324.606357,16.821 C324.606357,17.423 324.692357,19.917 326.154357,22.11 C326.713357,22.97 327.530357,23.658 327.874357,23.916 C328.261357,24.174 328.992357,24.604 329.981357,24.948 C331.400357,25.378 332.475357,25.378 333.034357,25.378 C333.464357,25.378 336.646357,25.464 338.710357,23.099 C339.226357,22.497 339.398357,22.153 339.570357,21.852 C339.699357,21.594 339.785357,21.293 339.871357,21.035 L349.718357,21.465 C349.632357,21.766 349.202357,23.228 348.557357,24.475 C347.138357,27.356 344.472357,29.549 341.892357,30.882 C340.086357,31.785 337.377357,32.817 333.163357,32.817 C332.131357,32.817 327.358357,32.946 323.273357,30.796 C322.155357,30.194 320.650357,29.033 320.564357,28.904 C319.618357,28.173 318.070357,26.539 316.995357,24.217 C316.307357,22.841 315.361357,20.218 315.361357,16.649 C315.361357,15.488 315.404357,12.951 316.823357,9.898 C317.425357,8.565 317.898357,7.877 318.328357,7.275 C318.801357,6.673 319.102357,6.286 320.177357,5.254 C322.198357,3.362 323.832357,2.717 324.649357,2.33 C326.369357,1.642 329.250357,0.739 333.335357,0.739 C334.496357,0.739 335.700357,0.825 336.861357,1.04 C337.893357,1.212 343.397357,2.158 346.837357,6.587 C347.826357,7.92 348.428357,9.468 348.600357,9.898 C348.772357,10.371 348.901357,10.887 348.987357,11.36 Z M350.934643,1.642 L378.841643,1.642 L378.841643,8.694 L369.467643,8.694 L369.467643,32 L360.308643,32 L360.308643,8.694 L350.934643,8.694 L350.934643,1.642 Z M382.852929,1.642 L392.011929,1.642 L392.011929,32 L382.852929,32 L382.852929,1.642 Z M414.040215,0.739 C420.318215,0.567 424.446215,2.717 427.112215,5.125 C427.628215,5.598 428.144215,6.114 428.531215,6.63 C428.918215,7.06 429.219215,7.533 429.563215,8.049 C429.821215,8.436 430.079215,8.866 430.294215,9.253 C431.025215,10.586 432.057215,13.381 432.057215,16.864 C432.057215,17.982 432.057215,22.927 428.273215,27.227 C427.972215,27.528 427.327215,28.259 426.467215,28.947 C425.392215,29.85 422.941215,31.441 420.017215,32.172 C419.071215,32.43 417.050215,32.817 414.556215,32.817 C409.912215,32.817 407.203215,31.785 405.053215,30.624 C402.731215,29.334 401.871215,28.431 400.925215,27.442 C400.710215,27.184 400.452215,26.883 400.237215,26.582 C399.635215,25.851 399.205215,25.378 398.517215,23.873 C397.829215,22.497 396.926215,20.132 396.926215,16.649 C396.926215,15.531 397.012215,12.048 399.119215,8.565 C399.420215,8.006 399.678215,7.662 400.495215,6.673 C402.301215,4.523 403.892215,3.577 404.967215,3.018 C408.880215,0.911 412.750215,0.782 414.040215,0.739 Z M414.470215,8.135 C414.126215,8.135 410.256215,8.178 407.934215,11.102 C407.160215,12.134 406.171215,14.155 406.171215,16.821 C406.171215,17.939 406.515215,19.702 406.988215,20.82 C407.289215,21.465 407.805215,22.282 408.149215,22.712 C410.342215,25.378 414.083215,25.421 414.470215,25.421 C414.943215,25.421 417.050215,25.335 418.813215,24.389 C419.458215,24.045 419.974215,23.572 420.146215,23.443 C421.307215,22.325 421.694215,21.508 421.995215,20.863 C422.382215,19.96 422.812215,18.713 422.812215,16.735 C422.812215,16.09 422.769215,13.725 421.350215,11.532 C421.135215,11.231 420.791215,10.672 420.060215,10.027 C419.544215,9.597 418.770215,9.081 418.125215,8.823 C417.781215,8.694 417.222215,8.479 416.405215,8.307 C415.760215,8.221 415.115215,8.135 414.470215,8.135 Z M436.928501,1.642 L446.431501,1.642 C446.861501,2.158 447.205501,2.588 447.549501,3.061 C447.678501,3.233 447.850501,3.448 447.979501,3.62 C448.280501,4.007 448.581501,4.351 448.925501,4.781 C449.441501,5.426 449.914501,6.028 450.387501,6.63 C451.118501,7.533 451.806501,8.393 452.494501,9.253 C453.483501,10.457 454.472501,11.747 455.504501,13.037 C456.450501,14.198 457.353501,15.316 458.213501,16.477 C458.901501,17.38 459.675501,18.24 460.320501,19.315 L460.320501,1.642 L469.393501,1.642 L469.393501,32 L460.191501,32 C459.718501,31.441 459.288501,30.882 458.858501,30.323 C458.385501,29.721 457.869501,29.119 457.396501,28.474 C456.880501,27.872 456.407501,27.27 455.977501,26.711 C455.547501,26.195 455.160501,25.722 454.730501,25.206 C453.440501,23.615 452.236501,22.067 450.989501,20.476 C450.043501,19.315 449.054501,18.111 448.151501,16.95 C447.635501,16.348 447.162501,15.746 446.689501,15.101 C446.431501,14.714 446.173501,14.327 445.915501,13.983 C446.130501,14.929 446.087501,15.617 446.087501,16.047 L446.087501,32 L436.928501,32 L436.928501,1.642 Z M79.9977852,85.271 L79.9977852,94 L71.2687852,94 L71.2687852,85.271 L79.9977852,85.271 Z M100.404357,63.642 L117.561357,63.642 C119.539357,63.642 122.291357,63.685 124.269357,64.244 C126.419357,64.889 127.580357,65.878 128.311357,66.824 C128.913357,67.641 129.687357,68.974 129.687357,70.995 C129.687357,72.5 129.386357,74.005 128.354357,75.467 C128.311357,75.51 127.924357,76.026 127.623357,76.327 C127.365357,76.542 127.236357,76.671 126.763357,77.015 C126.376357,77.316 126.032357,77.617 125.301357,77.789 C125.473357,77.789 125.817357,77.875 125.817357,77.875 C125.989357,77.918 127.021357,78.348 127.752357,78.864 C129.343357,79.982 130.848357,81.874 130.848357,85.185 C130.848357,85.873 130.848357,87.421 129.945357,89.184 C129.902357,89.27 129.644357,89.786 129.343357,90.173 C128.870357,90.861 127.967357,91.85 126.548357,92.581 C124.140357,93.785 121.861357,93.914 119.410357,94 L100.404357,94 L100.404357,63.642 Z M109.477357,70.651 L109.477357,75.123 L117.260357,75.123 C118.034357,75.08 119.367357,75.08 120.141357,74.22 C120.313357,74.048 120.657357,73.489 120.657357,72.758 C120.657357,72.156 120.399357,71.769 120.184357,71.554 C119.582357,70.866 118.937357,70.78 117.561357,70.651 L109.477357,70.651 Z M109.477357,81.917 L109.477357,87.034 L117.131357,87.034 C118.722357,86.948 119.582357,86.948 120.356357,86.518 C121.173357,86.088 121.603357,85.228 121.603357,84.497 C121.603357,83.078 120.657357,82.476 120.012357,82.218 C119.281357,81.96 118.077357,81.96 117.346357,81.917 L109.477357,81.917 Z M137.826643,63.642 L165.948643,63.642 L165.948643,70.694 L146.942643,70.694 L146.942643,74.994 L165.131643,74.994 L165.131643,81.917 L146.942643,81.917 L146.942643,86.905 L166.550643,86.905 L166.550643,94 L137.826643,94 L137.826643,63.642 Z M200.188928,72.242 L190.943928,72.844 C190.814928,72.328 190.685928,71.984 190.255928,71.468 C189.954928,71.124 189.911928,71.081 189.739928,70.952 C189.610928,70.866 189.481928,70.823 189.352928,70.694 C189.137928,70.608 188.922928,70.479 188.750928,70.393 C188.191928,70.135 186.772928,69.791 185.181928,69.791 C182.816928,69.791 180.537928,70.479 180.537928,72.07 C180.537928,72.285 180.537928,72.715 181.053928,73.145 C181.784928,73.747 183.633928,74.005 184.321928,74.134 L188.191928,74.65 C189.395928,74.822 190.599928,74.994 191.760928,75.252 C194.770928,75.94 196.361928,76.8 197.737928,77.918 C198.210928,78.348 198.554928,78.692 198.683928,78.821 C200.102928,80.455 200.532928,82.691 200.532928,84.497 C200.532928,85.056 200.489928,87.679 198.984928,89.872 C198.683928,90.345 197.952928,91.205 196.877928,92.022 C194.598928,93.742 191.330928,94.86 186.127928,94.86 C185.095928,94.86 180.838928,94.903 177.054928,93.312 C176.452928,93.054 175.807928,92.753 175.248928,92.366 C174.818928,92.108 174.431928,91.807 174.087928,91.549 C173.958928,91.42 173.829928,91.334 173.700928,91.248 C173.528928,91.119 173.356928,90.904 173.184928,90.732 C172.797928,90.302 172.539928,90.087 171.980928,89.227 C171.464928,88.453 170.862928,87.335 170.389928,85.486 C170.303928,85.185 170.303928,84.927 170.217928,84.626 C170.174928,84.454 170.131928,84.282 170.045928,84.11 L179.247928,83.551 C179.376928,83.895 179.634928,84.841 180.408928,85.701 C182.472928,87.894 186.342928,87.722 186.428928,87.722 C187.417928,87.722 189.008928,87.593 189.997928,87.034 C191.029928,86.475 191.158928,85.658 191.158928,85.271 C191.158928,85.185 191.115928,84.755 190.814928,84.325 C190.298928,83.551 189.180928,83.207 187.546928,82.906 C186.299928,82.691 185.052928,82.476 183.805928,82.304 C180.795928,81.831 176.108928,81.229 173.399928,78.735 C171.980928,77.445 170.991928,75.768 170.991928,72.844 C170.991928,72.199 171.034928,71.554 171.120928,70.909 C171.206928,70.221 171.550928,68.716 172.926928,67.082 C174.302928,65.405 176.366928,64.502 176.753928,64.33 C178.817928,63.427 181.354928,62.782 185.869928,62.782 C186.643928,62.782 191.846928,62.61 195.759928,65.319 C195.931928,65.405 196.490928,65.835 197.049928,66.351 C197.608928,66.91 198.640928,67.942 199.457928,69.748 C199.801928,70.565 200.016928,71.425 200.188928,72.242 Z M202.695214,63.642 L230.602214,63.642 L230.602214,70.694 L221.228214,70.694 L221.228214,94 L212.069214,94 L212.069214,70.694 L202.695214,70.694 L202.695214,63.642 Z M249.546786,63.642 L267.176786,63.642 C267.821786,63.642 268.423786,63.685 269.068786,63.728 C269.584786,63.771 273.497786,63.857 276.335786,66.265 C277.367786,67.125 277.754786,67.813 277.926786,68.071 C278.227786,68.501 278.485786,68.974 278.700786,69.447 C279.044786,70.307 279.517786,71.855 279.517786,74.005 C279.517786,75.596 279.173786,77.574 278.313786,79.122 C278.055786,79.638 277.195786,81.057 275.690786,82.089 C272.766786,84.067 268.724786,83.981 265.843786,83.981 L258.705786,83.981 L258.705786,94 L249.546786,94 L249.546786,63.642 Z M258.662786,70.694 L258.662786,77.144 L265.929786,77.144 C267.348786,77.058 269.670786,77.015 270.315786,74.865 C270.358786,74.693 270.444786,74.306 270.444786,73.833 C270.444786,73.489 270.358786,73.016 270.229786,72.629 C269.584786,70.608 267.133786,70.694 265.800786,70.694 L258.662786,70.694 Z M285.120072,63.642 L301.761072,63.642 C303.094072,63.642 304.427072,63.685 305.717072,63.771 C306.405072,63.814 308.813072,63.943 311.092072,65.276 C312.855072,66.308 314.661072,68.544 314.661072,72.113 C314.661072,72.543 314.704072,75.381 313.156072,77.488 C312.038072,78.907 310.490072,79.81 310.232072,79.982 C310.877072,80.369 311.823072,80.756 312.554072,82.218 C312.726072,82.519 312.812072,82.82 312.941072,83.164 C313.070072,83.551 313.199072,83.981 313.285072,84.368 C313.500072,85.271 313.543072,86.174 313.672072,87.077 C314.231072,90.689 314.790072,92.065 315.693072,94 L306.147072,94 C305.717072,93.011 305.244072,91.893 304.900072,89.786 C304.728072,88.711 304.642072,87.679 304.341072,86.647 C304.169072,86.131 304.083072,85.83 303.954072,85.615 C303.395072,84.626 302.234072,84.282 301.976072,84.196 C301.374072,84.067 300.514072,84.067 300.385072,84.024 L294.236072,84.024 L294.236072,94 L285.120072,94 L285.120072,63.642 Z M294.236072,70.694 L294.236072,77.187 L300.643072,77.187 C302.406072,77.101 303.395072,77.101 304.169072,76.585 C304.943072,76.112 305.588072,75.338 305.588072,73.919 C305.588072,73.704 305.588072,73.231 305.416072,72.715 C304.857072,70.995 303.352072,70.78 302.105072,70.694 L294.236072,70.694 Z M321.596357,63.642 L330.755357,63.642 L330.755357,94 L321.596357,94 L321.596357,63.642 Z M369.295643,73.36 L359.663643,74.005 C359.577643,73.704 359.448643,73.403 359.276643,73.059 C359.061643,72.715 358.502643,71.941 357.728643,71.425 C356.954643,70.866 355.277643,70.178 353.170643,70.178 C352.654643,70.178 350.246643,70.221 348.225643,71.683 C347.494643,72.199 347.021643,72.715 346.806643,73.016 C346.462643,73.403 346.204643,73.79 345.817643,74.564 C345.688643,74.822 345.559643,75.08 345.473643,75.381 C345.258643,75.897 344.914643,77.273 344.914643,78.821 C344.914643,79.423 345.000643,81.917 346.462643,84.11 C347.021643,84.97 347.838643,85.658 348.182643,85.916 C348.569643,86.174 349.300643,86.604 350.289643,86.948 C351.708643,87.378 352.783643,87.378 353.342643,87.378 C353.772643,87.378 356.954643,87.464 359.018643,85.099 C359.534643,84.497 359.706643,84.153 359.878643,83.852 C360.007643,83.594 360.093643,83.293 360.179643,83.035 L370.026643,83.465 C369.940643,83.766 369.510643,85.228 368.865643,86.475 C367.446643,89.356 364.780643,91.549 362.200643,92.882 C360.394643,93.785 357.685643,94.817 353.471643,94.817 C352.439643,94.817 347.666643,94.946 343.581643,92.796 C342.463643,92.194 340.958643,91.033 340.872643,90.904 C339.926643,90.173 338.378643,88.539 337.303643,86.217 C336.615643,84.841 335.669643,82.218 335.669643,78.649 C335.669643,77.488 335.712643,74.951 337.131643,71.898 C337.733643,70.565 338.206643,69.877 338.636643,69.275 C339.109643,68.673 339.410643,68.286 340.485643,67.254 C342.506643,65.362 344.140643,64.717 344.957643,64.33 C346.677643,63.642 349.558643,62.739 353.643643,62.739 C354.804643,62.739 356.008643,62.825 357.169643,63.04 C358.201643,63.212 363.705643,64.158 367.145643,68.587 C368.134643,69.92 368.736643,71.468 368.908643,71.898 C369.080643,72.371 369.209643,72.887 369.295643,73.36 Z M373.908929,63.642 L402.030929,63.642 L402.030929,70.694 L383.024929,70.694 L383.024929,74.994 L401.213929,74.994 L401.213929,81.917 L383.024929,81.917 L383.024929,86.905 L402.632929,86.905 L402.632929,94 L373.908929,94 L373.908929,63.642 Z M9.14490065,147.271 L9.14490065,156 L0.41590065,156 L0.41590065,147.271 L9.14490065,147.271 Z M40.8604723,126.158 L48.6434722,126.158 L48.6434722,156 L40.1294722,156 L40.1294722,137.123 L33.0774723,137.123 L33.1204722,131.318 C35.0984722,131.318 38.0224722,131.318 39.7854722,129.168 C40.0864723,128.781 40.2584722,128.48 40.3014723,128.394 C40.3874723,128.179 40.5594722,127.792 40.6024722,127.62 C40.8604723,126.846 40.9034723,126.631 40.8604723,126.158 Z M78.626758,128.953 L78.970758,129.297 C79.1857581,129.469 79.916758,130.329 80.4327581,131.06 C81.679758,132.952 82.969758,136.349 82.969758,141.079 C82.969758,141.982 82.969758,145.852 81.335758,149.335 C80.6907581,150.711 79.9597581,151.657 79.443758,152.216 C78.6697581,153.119 77.680758,154.108 75.917758,155.011 C74.3697581,155.785 72.1337581,156.602 68.607758,156.602 C67.7047581,156.602 63.791758,156.645 60.394758,154.323 C59.921758,153.979 59.491758,153.635 58.975758,153.119 C57.6857581,151.829 56.7397581,150.41 56.1377581,149.034 C54.675758,145.809 54.675758,142.025 54.675758,141.251 C54.675758,140.262 54.7187581,136.693 56.1377581,133.339 C56.309758,132.952 56.6967581,132.135 57.4277581,131.06 C57.6427581,130.802 57.7717581,130.544 58.0297581,130.286 C58.3307581,129.899 58.760758,129.469 59.104758,129.125 C60.0937581,128.136 61.598758,127.233 62.630758,126.76 C63.8347581,126.244 65.8557581,125.556 68.7797581,125.513 C69.3387581,125.47 71.961758,125.513 74.2407581,126.244 C75.229758,126.588 75.8747581,126.975 76.3477581,127.233 C77.5087581,127.964 77.9817581,128.394 78.626758,128.953 Z M68.822758,132.006 C68.478758,132.006 66.844758,132.049 65.4687581,133.124 C64.737758,133.769 63.920758,134.887 63.4047581,136.521 C63.1467581,137.338 62.845758,139.058 62.845758,141.208 C62.845758,141.509 62.845758,144.218 63.4907581,146.067 C63.6197581,146.368 64.1787581,147.787 65.167758,148.647 C66.6727581,149.98 68.3927581,149.98 68.822758,149.98 C69.5967581,149.98 70.585758,149.808 71.402758,149.335 C71.6607581,149.206 71.875758,149.034 72.090758,148.862 C72.219758,148.776 72.5207581,148.561 72.692758,148.346 C72.8217581,148.217 72.993758,148.002 73.122758,147.787 C73.6817581,146.97 73.8967581,146.368 74.1547581,145.508 C74.4557581,144.519 74.756758,143.143 74.756758,140.907 C74.756758,140.692 74.8427581,136.693 73.3377581,134.285 C72.649758,133.21 71.2307581,131.877 68.822758,132.006 Z M110.588044,128.953 L110.932044,129.297 C111.147044,129.469 111.878044,130.329 112.394044,131.06 C113.641044,132.952 114.931044,136.349 114.931044,141.079 C114.931044,141.982 114.931044,145.852 113.297044,149.335 C112.652044,150.711 111.921044,151.657 111.405044,152.216 C110.631044,153.119 109.642044,154.108 107.879044,155.011 C106.331044,155.785 104.095044,156.602 100.569044,156.602 C99.6660439,156.602 95.7530438,156.645 92.3560438,154.323 C91.8830438,153.979 91.4530438,153.635 90.9370439,153.119 C89.6470439,151.829 88.7010439,150.41 88.0990439,149.034 C86.6370438,145.809 86.6370438,142.025 86.6370438,141.251 C86.6370438,140.262 86.6800439,136.693 88.0990439,133.339 C88.2710438,132.952 88.6580438,132.135 89.3890439,131.06 C89.6040439,130.802 89.7330439,130.544 89.9910439,130.286 C90.2920438,129.899 90.7220438,129.469 91.0660438,129.125 C92.0550439,128.136 93.5600438,127.233 94.5920438,126.76 C95.7960439,126.244 97.8170439,125.556 100.741044,125.513 C101.300044,125.47 103.923044,125.513 106.202044,126.244 C107.191044,126.588 107.836044,126.975 108.309044,127.233 C109.470044,127.964 109.943044,128.394 110.588044,128.953 Z M100.784044,132.006 C100.440044,132.006 98.8060438,132.049 97.4300439,133.124 C96.6990438,133.769 95.8820438,134.887 95.3660439,136.521 C95.1080439,137.338 94.8070438,139.058 94.8070438,141.208 C94.8070438,141.509 94.8070438,144.218 95.4520439,146.067 C95.5810439,146.368 96.1400439,147.787 97.1290439,148.647 C98.6340439,149.98 100.354044,149.98 100.784044,149.98 C101.558044,149.98 102.547044,149.808 103.364044,149.335 C103.622044,149.206 103.837044,149.034 104.052044,148.862 C104.181044,148.776 104.482044,148.561 104.654044,148.346 C104.783044,148.217 104.955044,148.002 105.084044,147.787 C105.643044,146.97 105.858044,146.368 106.116044,145.508 C106.417044,144.519 106.718044,143.143 106.718044,140.907 C106.718044,140.692 106.804044,136.693 105.299044,134.285 C104.611044,133.21 103.192044,131.877 100.784044,132.006 Z M126.42433,125.771 C127.02633,125.728 129.73533,125.728 132.05733,127.233 C133.30433,128.05 134.12133,129.211 134.20733,129.383 C134.50833,129.813 134.80933,130.329 135.19633,131.318 C135.49733,132.221 135.92733,133.511 135.92733,135.575 C135.92733,136.048 135.97033,139.574 134.16433,142.111 C133.82033,142.584 133.73433,142.67 133.30433,143.1 C132.53033,143.831 132.01433,144.175 131.71333,144.347 C130.81033,144.863 129.21933,145.465 127.02633,145.465 C126.55333,145.465 124.57533,145.422 122.89833,144.691 C122.55433,144.519 122.16733,144.304 121.82333,144.089 C121.56533,143.917 120.57633,143.315 119.71633,142.111 C118.77033,140.778 117.95333,138.757 117.95333,135.661 C117.95333,135.188 117.99633,132.995 118.64133,131.103 C119.58733,128.566 121.86633,125.9 126.42433,125.771 Z M143.53833,126.029 L148.13933,126.029 L135.45433,156 L130.85333,156 L143.53833,126.029 Z M126.55333,130.114 C126.38133,130.114 125.69333,130.157 125.00533,130.673 C124.74733,130.931 124.44633,131.232 124.27433,131.49 C123.80133,132.178 123.41433,133.597 123.41433,135.403 C123.41433,137.553 123.75833,138.843 124.44633,139.789 C124.87633,140.434 125.73633,140.993 126.98333,140.993 C127.92933,140.993 128.48833,140.692 128.91833,140.348 C129.09033,140.176 129.43433,139.875 129.73533,139.402 C130.12233,138.671 130.50933,137.295 130.50933,135.489 C130.50933,135.36 130.63833,132.479 129.13333,130.931 C128.70333,130.501 127.80033,130.028 126.55333,130.114 Z M151.23533,136.564 C153.17033,136.478 155.01933,136.994 155.66433,137.295 C155.87933,137.381 156.35233,137.596 156.91133,137.94 C157.81433,138.499 158.11533,138.8 158.50233,139.23 C158.63133,139.359 158.80333,139.531 158.93233,139.703 C159.10433,139.918 159.23333,140.133 159.36233,140.348 C159.62033,140.778 159.87833,141.208 160.05033,141.681 C160.43733,142.498 160.99633,144.261 160.99633,146.454 C160.99633,147.056 160.95333,147.658 160.86733,148.303 C160.52333,151.141 159.53433,152.775 158.20133,154.065 C157.72833,154.538 157.21233,154.925 156.78233,155.183 C155.92233,155.656 154.24533,156.258 152.05233,156.258 C149.60133,156.258 147.92433,155.57 146.89233,154.925 C146.63433,154.753 145.90333,154.366 145.00033,153.248 C142.93633,150.625 143.02233,146.927 143.02233,146.454 C143.02233,144.605 143.32333,142.283 144.39833,140.477 C144.61333,140.133 145.08633,139.402 145.94633,138.628 C147.62333,137.123 149.51533,136.65 151.23533,136.564 Z M151.62233,140.95 C150.93433,140.993 150.33233,141.165 149.73033,141.81 C149.34333,142.197 149.17133,142.541 149.12833,142.67 C148.44033,144.003 148.44033,146.497 148.44033,146.497 C148.44033,147.658 148.61233,148.346 148.74133,148.862 C148.78433,149.12 148.95633,150.152 149.77333,150.926 C150.71933,151.872 151.57933,151.829 151.92333,151.829 C152.13833,151.829 153.08433,151.872 153.98733,151.141 C154.07333,151.055 154.46033,150.711 154.67533,150.41 C154.84733,150.152 154.97633,149.851 155.14833,149.292 C155.36333,148.69 155.53533,147.658 155.53533,146.11 C155.53533,144.261 155.10533,142.971 154.54633,142.197 C154.41733,142.025 154.20233,141.724 153.81533,141.423 C153.21333,141.036 152.18133,140.907 151.62233,140.95 Z M189.185901,125.642 L200.580901,125.642 L212.319901,156 L202.343901,156 L200.279901,149.851 L189.443901,149.851 L187.422901,156 L177.403901,156 L189.185901,125.642 Z M194.904901,133.511 L191.636901,143.315 L198.129901,143.315 L194.904901,133.511 Z M214.654187,125.642 L223.813187,125.642 L223.813187,142.756 C223.813187,143.143 223.813187,143.487 223.856187,143.874 C224.028187,145.336 224.415187,146.153 224.845187,146.798 C225.146187,147.314 225.447187,147.529 225.705187,147.787 C225.920187,147.959 226.178187,148.174 226.608187,148.432 C227.038187,148.647 227.597187,148.819 227.683187,148.862 C228.328187,149.077 229.145187,149.335 230.564187,149.335 C232.757187,149.335 234.133187,148.69 235.079187,147.873 C235.423187,147.572 236.111187,146.884 236.498187,145.852 C236.885187,144.906 236.971187,144.046 237.057187,142.197 L237.057187,125.642 L246.173187,125.642 L246.173187,144.261 C246.130187,145.078 246.044187,145.895 245.958187,146.669 C245.485187,149.937 244.324187,151.743 242.690187,153.248 C240.368187,155.312 236.971187,156.516 231.639187,156.774 C231.123187,156.774 230.564187,156.817 230.048187,156.817 C229.446187,156.817 222.566187,156.989 218.438187,153.377 C217.492187,152.56 216.804187,151.7 216.546187,151.313 C216.202187,150.84 215.815187,150.152 215.471187,149.034 C214.869187,147.4 214.697187,146.239 214.654187,143.057 L214.654187,125.642 Z M250.227473,125.642 L278.134473,125.642 L278.134473,132.694 L268.760473,132.694 L268.760473,156 L259.601473,156 L259.601473,132.694 L250.227473,132.694 L250.227473,125.642 Z M282.188759,125.642 L291.261759,125.642 L291.261759,136.607 L305.537759,136.607 L305.537759,125.642 L314.610759,125.642 L314.610759,156 L305.537759,156 L305.537759,143.659 L291.261759,143.659 L291.261759,156 L282.188759,156 L282.188759,125.642 Z M322.234044,125.642 L350.356044,125.642 L350.356044,132.694 L331.350044,132.694 L331.350044,136.994 L349.539044,136.994 L349.539044,143.917 L331.350044,143.917 L331.350044,148.905 L350.958044,148.905 L350.958044,156 L322.234044,156 L322.234044,125.642 Z M357.76433,125.642 L367.26733,125.642 C367.69733,126.158 368.04133,126.588 368.38533,127.061 C368.51433,127.233 368.68633,127.448 368.81533,127.62 C369.11633,128.007 369.41733,128.351 369.76133,128.781 C370.27733,129.426 370.75033,130.028 371.22333,130.63 C371.95433,131.533 372.64233,132.393 373.33033,133.253 C374.31933,134.457 375.30833,135.747 376.34033,137.037 C377.28633,138.198 378.18933,139.316 379.04933,140.477 C379.73733,141.38 380.51133,142.24 381.15633,143.315 L381.15633,125.642 L390.22933,125.642 L390.22933,156 L381.02733,156 C380.55433,155.441 380.12433,154.882 379.69433,154.323 C379.22133,153.721 378.70533,153.119 378.23233,152.474 C377.71633,151.872 377.24333,151.27 376.81333,150.711 C376.38333,150.195 375.99633,149.722 375.56633,149.206 C374.27633,147.615 373.07233,146.067 371.82533,144.476 C370.87933,143.315 369.89033,142.111 368.98733,140.95 C368.47133,140.348 367.99833,139.746 367.52533,139.101 C367.26733,138.714 367.00933,138.327 366.75133,137.983 C366.96633,138.929 366.92333,139.617 366.92333,140.047 L366.92333,156 L357.76433,156 L357.76433,125.642 Z M394.283616,125.642 L422.190616,125.642 L422.190616,132.694 L412.816616,132.694 L412.816616,156 L403.657616,156 L403.657616,132.694 L394.283616,132.694 L394.283616,125.642 Z M426.201902,125.642 L435.360902,125.642 L435.360902,156 L426.201902,156 L426.201902,125.642 Z M473.901188,135.36 L464.269188,136.005 C464.183188,135.704 464.054188,135.403 463.882188,135.059 C463.667188,134.715 463.108188,133.941 462.334188,133.425 C461.560188,132.866 459.883188,132.178 457.776188,132.178 C457.260188,132.178 454.852188,132.221 452.831188,133.683 C452.100188,134.199 451.627188,134.715 451.412188,135.016 C451.068188,135.403 450.810188,135.79 450.423188,136.564 C450.294188,136.822 450.165188,137.08 450.079188,137.381 C449.864188,137.897 449.520188,139.273 449.520188,140.821 C449.520188,141.423 449.606188,143.917 451.068188,146.11 C451.627188,146.97 452.444188,147.658 452.788188,147.916 C453.175188,148.174 453.906188,148.604 454.895188,148.948 C456.314188,149.378 457.389188,149.378 457.948188,149.378 C458.378188,149.378 461.560188,149.464 463.624188,147.099 C464.140188,146.497 464.312188,146.153 464.484188,145.852 C464.613188,145.594 464.699188,145.293 464.785188,145.035 L474.632188,145.465 C474.546188,145.766 474.116188,147.228 473.471188,148.475 C472.052188,151.356 469.386188,153.549 466.806188,154.882 C465.000188,155.785 462.291188,156.817 458.077188,156.817 C457.045188,156.817 452.272188,156.946 448.187188,154.796 C447.069188,154.194 445.564188,153.033 445.478188,152.904 C444.532188,152.173 442.984188,150.539 441.909188,148.217 C441.221188,146.841 440.275188,144.218 440.275188,140.649 C440.275188,139.488 440.318188,136.951 441.737188,133.898 C442.339188,132.565 442.812188,131.877 443.242188,131.275 C443.715188,130.673 444.016188,130.286 445.091188,129.254 C447.112188,127.362 448.746188,126.717 449.563188,126.33 C451.283188,125.642 454.164188,124.739 458.249188,124.739 C459.410188,124.739 460.614188,124.825 461.775188,125.04 C462.807188,125.212 468.311188,126.158 471.751188,130.587 C472.740188,131.92 473.342188,133.468 473.514188,133.898 C473.686188,134.371 473.815188,134.887 473.901188,135.36 Z" id=".-BEST-SELECTION-.-B-Copy-2" fill="#FFFFFF"></path>
    </g>
</svg>