<?xml version="1.0" encoding="UTF-8"?>
<svg width="475px" height="157px" viewBox="0 0 475 157" version="1.1" xmlns="http://www.w3.org/2000/svg" xmlns:xlink="http://www.w3.org/1999/xlink">
    <!-- Generator: Sketch 52.5 (67469) - http://www.bohemiancoding.com/sketch -->
    <title>. BEST SELECTION . B</title>
    <desc>Created with Sketch.</desc>
    <g id="Page-1" stroke="none" stroke-width="1" fill="none" fill-rule="evenodd">
        <path d="M12.195314,22.5416631 L12.195314,31.2706631 L3.46631395,31.2706631 L3.46631395,22.5416631 L12.195314,22.5416631 Z M32.6018856,0.912663095 L49.7588856,0.912663095 C51.7368856,0.912663095 54.4888856,0.955663095 56.4668856,1.5146631 C58.6168856,2.1596631 59.7778856,3.1486631 60.5088856,4.0946631 C61.1108856,4.9116631 61.8848856,6.2446631 61.8848856,8.2656631 C61.8848856,9.7706631 61.5838856,11.2756631 60.5518856,12.7376631 C60.5088856,12.7806631 60.1218856,13.2966631 59.8208856,13.5976631 C59.5628856,13.8126631 59.4338856,13.9416631 58.9608856,14.2856631 C58.5738856,14.5866631 58.2298856,14.8876631 57.4988856,15.0596631 C57.6708856,15.0596631 58.0148856,15.1456631 58.0148856,15.1456631 C58.1868856,15.1886631 59.2188856,15.6186631 59.9498856,16.1346631 C61.5408856,17.2526631 63.0458856,19.1446631 63.0458856,22.4556631 C63.0458856,23.1436631 63.0458856,24.6916631 62.1428856,26.4546631 C62.0998856,26.5406631 61.8418856,27.0566631 61.5408856,27.4436631 C61.0678856,28.1316631 60.1648856,29.1206631 58.7458856,29.8516631 C56.3378856,31.0556631 54.0588856,31.1846631 51.6078856,31.2706631 L32.6018856,31.2706631 L32.6018856,0.912663095 Z M41.6748856,7.9216631 L41.6748856,12.3936631 L49.4578856,12.3936631 C50.2318856,12.3506631 51.5648856,12.3506631 52.3388856,11.4906631 C52.5108856,11.3186631 52.8548856,10.7596631 52.8548856,10.0286631 C52.8548856,9.4266631 52.5968856,9.0396631 52.3818856,8.8246631 C51.7798856,8.1366631 51.1348856,8.0506631 49.7588856,7.9216631 L41.6748856,7.9216631 Z M41.6748856,19.1876631 L41.6748856,24.3046631 L49.3288856,24.3046631 C50.9198856,24.2186631 51.7798856,24.2186631 52.5538856,23.7886631 C53.3708856,23.3586631 53.8008856,22.4986631 53.8008856,21.7676631 C53.8008856,20.3486631 52.8548856,19.7466631 52.2098856,19.4886631 C51.4788856,19.2306631 50.2748856,19.2306631 49.5438856,19.1876631 L41.6748856,19.1876631 Z M70.0241714,0.912663095 L98.1461714,0.912663095 L98.1461714,7.9646631 L79.1401714,7.9646631 L79.1401714,12.2646631 L97.3291714,12.2646631 L97.3291714,19.1876631 L79.1401714,19.1876631 L79.1401714,24.1756631 L98.7481714,24.1756631 L98.7481714,31.2706631 L70.0241714,31.2706631 L70.0241714,0.912663095 Z M132.386457,9.5126631 L123.141457,10.1146631 C123.012457,9.5986631 122.883457,9.2546631 122.453457,8.7386631 C122.152457,8.3946631 122.109457,8.3516631 121.937457,8.2226631 C121.808457,8.1366631 121.679457,8.0936631 121.550457,7.9646631 C121.335457,7.8786631 121.120457,7.7496631 120.948457,7.6636631 C120.389457,7.4056631 118.970457,7.0616631 117.379457,7.0616631 C115.014457,7.0616631 112.735457,7.7496631 112.735457,9.3406631 C112.735457,9.5556631 112.735457,9.9856631 113.251457,10.4156631 C113.982457,11.0176631 115.831457,11.2756631 116.519457,11.4046631 L120.389457,11.9206631 C121.593457,12.0926631 122.797457,12.2646631 123.958457,12.5226631 C126.968457,13.2106631 128.559457,14.0706631 129.935457,15.1886631 C130.408457,15.6186631 130.752457,15.9626631 130.881457,16.0916631 C132.300457,17.7256631 132.730457,19.9616631 132.730457,21.7676631 C132.730457,22.3266631 132.687457,24.9496631 131.182457,27.1426631 C130.881457,27.6156631 130.150457,28.4756631 129.075457,29.2926631 C126.796457,31.0126631 123.528457,32.1306631 118.325457,32.1306631 C117.293457,32.1306631 113.036457,32.1736631 109.252457,30.5826631 C108.650457,30.3246631 108.005457,30.0236631 107.446457,29.6366631 C107.016457,29.3786631 106.629457,29.0776631 106.285457,28.8196631 C106.156457,28.6906631 106.027457,28.6046631 105.898457,28.5186631 C105.726457,28.3896631 105.554457,28.1746631 105.382457,28.0026631 C104.995457,27.5726631 104.737457,27.3576631 104.178457,26.4976631 C103.662457,25.7236631 103.060457,24.6056631 102.587457,22.7566631 C102.501457,22.4556631 102.501457,22.1976631 102.415457,21.8966631 C102.372457,21.7246631 102.329457,21.5526631 102.243457,21.3806631 L111.445457,20.8216631 C111.574457,21.1656631 111.832457,22.1116631 112.606457,22.9716631 C114.670457,25.1646631 118.540457,24.9926631 118.626457,24.9926631 C119.615457,24.9926631 121.206457,24.8636631 122.195457,24.3046631 C123.227457,23.7456631 123.356457,22.9286631 123.356457,22.5416631 C123.356457,22.4556631 123.313457,22.0256631 123.012457,21.5956631 C122.496457,20.8216631 121.378457,20.4776631 119.744457,20.1766631 C118.497457,19.9616631 117.250457,19.7466631 116.003457,19.5746631 C112.993457,19.1016631 108.306457,18.4996631 105.597457,16.0056631 C104.178457,14.7156631 103.189457,13.0386631 103.189457,10.1146631 C103.189457,9.4696631 103.232457,8.8246631 103.318457,8.1796631 C103.404457,7.4916631 103.748457,5.9866631 105.124457,4.3526631 C106.500457,2.6756631 108.564457,1.7726631 108.951457,1.6006631 C111.015457,0.697663095 113.552457,0.0526630955 118.067457,0.0526630955 C118.841457,0.0526630955 124.044457,-0.119336905 127.957457,2.5896631 C128.129457,2.6756631 128.688457,3.1056631 129.247457,3.6216631 C129.806457,4.1806631 130.838457,5.2126631 131.655457,7.0186631 C131.999457,7.8356631 132.214457,8.6956631 132.386457,9.5126631 Z M134.892743,0.912663095 L162.799743,0.912663095 L162.799743,7.9646631 L153.425743,7.9646631 L153.425743,31.2706631 L144.266743,31.2706631 L144.266743,7.9646631 L134.892743,7.9646631 L134.892743,0.912663095 Z M210.382315,9.5126631 L201.137315,10.1146631 C201.008315,9.5986631 200.879315,9.2546631 200.449315,8.7386631 C200.148315,8.3946631 200.105315,8.3516631 199.933315,8.2226631 C199.804315,8.1366631 199.675315,8.0936631 199.546315,7.9646631 C199.331315,7.8786631 199.116315,7.7496631 198.944315,7.6636631 C198.385315,7.4056631 196.966315,7.0616631 195.375315,7.0616631 C193.010315,7.0616631 190.731315,7.7496631 190.731315,9.3406631 C190.731315,9.5556631 190.731315,9.9856631 191.247315,10.4156631 C191.978315,11.0176631 193.827315,11.2756631 194.515315,11.4046631 L198.385315,11.9206631 C199.589315,12.0926631 200.793315,12.2646631 201.954315,12.5226631 C204.964315,13.2106631 206.555315,14.0706631 207.931315,15.1886631 C208.404315,15.6186631 208.748315,15.9626631 208.877315,16.0916631 C210.296315,17.7256631 210.726315,19.9616631 210.726315,21.7676631 C210.726315,22.3266631 210.683315,24.9496631 209.178315,27.1426631 C208.877315,27.6156631 208.146315,28.4756631 207.071315,29.2926631 C204.792315,31.0126631 201.524315,32.1306631 196.321315,32.1306631 C195.289315,32.1306631 191.032315,32.1736631 187.248315,30.5826631 C186.646315,30.3246631 186.001315,30.0236631 185.442315,29.6366631 C185.012315,29.3786631 184.625315,29.0776631 184.281315,28.8196631 C184.152315,28.6906631 184.023315,28.6046631 183.894315,28.5186631 C183.722315,28.3896631 183.550315,28.1746631 183.378315,28.0026631 C182.991315,27.5726631 182.733315,27.3576631 182.174315,26.4976631 C181.658315,25.7236631 181.056315,24.6056631 180.583315,22.7566631 C180.497315,22.4556631 180.497315,22.1976631 180.411315,21.8966631 C180.368315,21.7246631 180.325315,21.5526631 180.239315,21.3806631 L189.441315,20.8216631 C189.570315,21.1656631 189.828315,22.1116631 190.602315,22.9716631 C192.666315,25.1646631 196.536315,24.9926631 196.622315,24.9926631 C197.611315,24.9926631 199.202315,24.8636631 200.191315,24.3046631 C201.223315,23.7456631 201.352315,22.9286631 201.352315,22.5416631 C201.352315,22.4556631 201.309315,22.0256631 201.008315,21.5956631 C200.492315,20.8216631 199.374315,20.4776631 197.740315,20.1766631 C196.493315,19.9616631 195.246315,19.7466631 193.999315,19.5746631 C190.989315,19.1016631 186.302315,18.4996631 183.593315,16.0056631 C182.174315,14.7156631 181.185315,13.0386631 181.185315,10.1146631 C181.185315,9.4696631 181.228315,8.8246631 181.314315,8.1796631 C181.400315,7.4916631 181.744315,5.9866631 183.120315,4.3526631 C184.496315,2.6756631 186.560315,1.7726631 186.947315,1.6006631 C189.011315,0.697663095 191.548315,0.0526630955 196.063315,0.0526630955 C196.837315,0.0526630955 202.040315,-0.119336905 205.953315,2.5896631 C206.125315,2.6756631 206.684315,3.1056631 207.243315,3.6216631 C207.802315,4.1806631 208.834315,5.2126631 209.651315,7.0186631 C209.995315,7.8356631 210.210315,8.6956631 210.382315,9.5126631 Z M215.5546,0.912663095 L243.6766,0.912663095 L243.6766,7.9646631 L224.6706,7.9646631 L224.6706,12.2646631 L242.8596,12.2646631 L242.8596,19.1876631 L224.6706,19.1876631 L224.6706,24.1756631 L244.2786,24.1756631 L244.2786,31.2706631 L215.5546,31.2706631 L215.5546,0.912663095 Z M251.084886,0.912663095 L260.286886,0.912663095 L260.286886,24.1756631 L277.400886,24.1756631 L277.400886,31.2706631 L251.084886,31.2706631 L251.084886,0.912663095 Z M282.229172,0.912663095 L310.351172,0.912663095 L310.351172,7.9646631 L291.345172,7.9646631 L291.345172,12.2646631 L309.534172,12.2646631 L309.534172,19.1876631 L291.345172,19.1876631 L291.345172,24.1756631 L310.953172,24.1756631 L310.953172,31.2706631 L282.229172,31.2706631 L282.229172,0.912663095 Z M348.719458,10.6306631 L339.087458,11.2756631 C339.001458,10.9746631 338.872458,10.6736631 338.700458,10.3296631 C338.485458,9.9856631 337.926458,9.2116631 337.152458,8.6956631 C336.378458,8.1366631 334.701458,7.4486631 332.594458,7.4486631 C332.078458,7.4486631 329.670458,7.4916631 327.649458,8.9536631 C326.918458,9.4696631 326.445458,9.9856631 326.230458,10.2866631 C325.886458,10.6736631 325.628458,11.0606631 325.241458,11.8346631 C325.112458,12.0926631 324.983458,12.3506631 324.897458,12.6516631 C324.682458,13.1676631 324.338458,14.5436631 324.338458,16.0916631 C324.338458,16.6936631 324.424458,19.1876631 325.886458,21.3806631 C326.445458,22.2406631 327.262458,22.9286631 327.606458,23.1866631 C327.993458,23.4446631 328.724458,23.8746631 329.713458,24.2186631 C331.132458,24.6486631 332.207458,24.6486631 332.766458,24.6486631 C333.196458,24.6486631 336.378458,24.7346631 338.442458,22.3696631 C338.958458,21.7676631 339.130458,21.4236631 339.302458,21.1226631 C339.431458,20.8646631 339.517458,20.5636631 339.603458,20.3056631 L349.450458,20.7356631 C349.364458,21.0366631 348.934458,22.4986631 348.289458,23.7456631 C346.870458,26.6266631 344.204458,28.8196631 341.624458,30.1526631 C339.818458,31.0556631 337.109458,32.0876631 332.895458,32.0876631 C331.863458,32.0876631 327.090458,32.2166631 323.005458,30.0666631 C321.887458,29.4646631 320.382458,28.3036631 320.296458,28.1746631 C319.350458,27.4436631 317.802458,25.8096631 316.727458,23.4876631 C316.039458,22.1116631 315.093458,19.4886631 315.093458,15.9196631 C315.093458,14.7586631 315.136458,12.2216631 316.555458,9.1686631 C317.157458,7.8356631 317.630458,7.1476631 318.060458,6.5456631 C318.533458,5.9436631 318.834458,5.5566631 319.909458,4.5246631 C321.930458,2.6326631 323.564458,1.9876631 324.381458,1.6006631 C326.101458,0.912663095 328.982458,0.00966309547 333.067458,0.00966309547 C334.228458,0.00966309547 335.432458,0.0956630955 336.593458,0.310663095 C337.625458,0.482663095 343.129458,1.4286631 346.569458,5.8576631 C347.558458,7.1906631 348.160458,8.7386631 348.332458,9.1686631 C348.504458,9.6416631 348.633458,10.1576631 348.719458,10.6306631 Z M350.666744,0.912663095 L378.573744,0.912663095 L378.573744,7.9646631 L369.199744,7.9646631 L369.199744,31.2706631 L360.040744,31.2706631 L360.040744,7.9646631 L350.666744,7.9646631 L350.666744,0.912663095 Z M382.585029,0.912663095 L391.744029,0.912663095 L391.744029,31.2706631 L382.585029,31.2706631 L382.585029,0.912663095 Z M413.772315,0.00966309547 C420.050315,-0.162336905 424.178315,1.9876631 426.844315,4.3956631 C427.360315,4.8686631 427.876315,5.3846631 428.263315,5.9006631 C428.650315,6.3306631 428.951315,6.8036631 429.295315,7.3196631 C429.553315,7.7066631 429.811315,8.1366631 430.026315,8.5236631 C430.757315,9.8566631 431.789315,12.6516631 431.789315,16.1346631 C431.789315,17.2526631 431.789315,22.1976631 428.005315,26.4976631 C427.704315,26.7986631 427.059315,27.5296631 426.199315,28.2176631 C425.124315,29.1206631 422.673315,30.7116631 419.749315,31.4426631 C418.803315,31.7006631 416.782315,32.0876631 414.288315,32.0876631 C409.644315,32.0876631 406.935315,31.0556631 404.785315,29.8946631 C402.463315,28.6046631 401.603315,27.7016631 400.657315,26.7126631 C400.442315,26.4546631 400.184315,26.1536631 399.969315,25.8526631 C399.367315,25.1216631 398.937315,24.6486631 398.249315,23.1436631 C397.561315,21.7676631 396.658315,19.4026631 396.658315,15.9196631 C396.658315,14.8016631 396.744315,11.3186631 398.851315,7.8356631 C399.152315,7.2766631 399.410315,6.9326631 400.227315,5.9436631 C402.033315,3.7936631 403.624315,2.8476631 404.699315,2.2886631 C408.612315,0.181663095 412.482315,0.0526630955 413.772315,0.00966309547 Z M414.202315,7.4056631 C413.858315,7.4056631 409.988315,7.4486631 407.666315,10.3726631 C406.892315,11.4046631 405.903315,13.4256631 405.903315,16.0916631 C405.903315,17.2096631 406.247315,18.9726631 406.720315,20.0906631 C407.021315,20.7356631 407.537315,21.5526631 407.881315,21.9826631 C410.074315,24.6486631 413.815315,24.6916631 414.202315,24.6916631 C414.675315,24.6916631 416.782315,24.6056631 418.545315,23.6596631 C419.190315,23.3156631 419.706315,22.8426631 419.878315,22.7136631 C421.039315,21.5956631 421.426315,20.7786631 421.727315,20.1336631 C422.114315,19.2306631 422.544315,17.9836631 422.544315,16.0056631 C422.544315,15.3606631 422.501315,12.9956631 421.082315,10.8026631 C420.867315,10.5016631 420.523315,9.9426631 419.792315,9.2976631 C419.276315,8.8676631 418.502315,8.3516631 417.857315,8.0936631 C417.513315,7.9646631 416.954315,7.7496631 416.137315,7.5776631 C415.492315,7.4916631 414.847315,7.4056631 414.202315,7.4056631 Z M436.660601,0.912663095 L446.163601,0.912663095 C446.593601,1.4286631 446.937601,1.8586631 447.281601,2.3316631 C447.410601,2.5036631 447.582601,2.7186631 447.711601,2.8906631 C448.012601,3.2776631 448.313601,3.6216631 448.657601,4.0516631 C449.173601,4.6966631 449.646601,5.2986631 450.119601,5.9006631 C450.850601,6.8036631 451.538601,7.6636631 452.226601,8.5236631 C453.215601,9.7276631 454.204601,11.0176631 455.236601,12.3076631 C456.182601,13.4686631 457.085601,14.5866631 457.945601,15.7476631 C458.633601,16.6506631 459.407601,17.5106631 460.052601,18.5856631 L460.052601,0.912663095 L469.125601,0.912663095 L469.125601,31.2706631 L459.923601,31.2706631 C459.450601,30.7116631 459.020601,30.1526631 458.590601,29.5936631 C458.117601,28.9916631 457.601601,28.3896631 457.128601,27.7446631 C456.612601,27.1426631 456.139601,26.5406631 455.709601,25.9816631 C455.279601,25.4656631 454.892601,24.9926631 454.462601,24.4766631 C453.172601,22.8856631 451.968601,21.3376631 450.721601,19.7466631 C449.775601,18.5856631 448.786601,17.3816631 447.883601,16.2206631 C447.367601,15.6186631 446.894601,15.0166631 446.421601,14.3716631 C446.163601,13.9846631 445.905601,13.5976631 445.647601,13.2536631 C445.862601,14.1996631 445.819601,14.8876631 445.819601,15.3176631 L445.819601,31.2706631 L436.660601,31.2706631 L436.660601,0.912663095 Z M79.7298856,84.5416631 L79.7298856,93.2706631 L71.0008856,93.2706631 L71.0008856,84.5416631 L79.7298856,84.5416631 Z M100.136457,62.9126631 L117.293457,62.9126631 C119.271457,62.9126631 122.023457,62.9556631 124.001457,63.5146631 C126.151457,64.1596631 127.312457,65.1486631 128.043457,66.0946631 C128.645457,66.9116631 129.419457,68.2446631 129.419457,70.2656631 C129.419457,71.7706631 129.118457,73.2756631 128.086457,74.7376631 C128.043457,74.7806631 127.656457,75.2966631 127.355457,75.5976631 C127.097457,75.8126631 126.968457,75.9416631 126.495457,76.2856631 C126.108457,76.5866631 125.764457,76.8876631 125.033457,77.0596631 C125.205457,77.0596631 125.549457,77.1456631 125.549457,77.1456631 C125.721457,77.1886631 126.753457,77.6186631 127.484457,78.1346631 C129.075457,79.2526631 130.580457,81.1446631 130.580457,84.4556631 C130.580457,85.1436631 130.580457,86.6916631 129.677457,88.4546631 C129.634457,88.5406631 129.376457,89.0566631 129.075457,89.4436631 C128.602457,90.1316631 127.699457,91.1206631 126.280457,91.8516631 C123.872457,93.0556631 121.593457,93.1846631 119.142457,93.2706631 L100.136457,93.2706631 L100.136457,62.9126631 Z M109.209457,69.9216631 L109.209457,74.3936631 L116.992457,74.3936631 C117.766457,74.3506631 119.099457,74.3506631 119.873457,73.4906631 C120.045457,73.3186631 120.389457,72.7596631 120.389457,72.0286631 C120.389457,71.4266631 120.131457,71.0396631 119.916457,70.8246631 C119.314457,70.1366631 118.669457,70.0506631 117.293457,69.9216631 L109.209457,69.9216631 Z M109.209457,81.1876631 L109.209457,86.3046631 L116.863457,86.3046631 C118.454457,86.2186631 119.314457,86.2186631 120.088457,85.7886631 C120.905457,85.3586631 121.335457,84.4986631 121.335457,83.7676631 C121.335457,82.3486631 120.389457,81.7466631 119.744457,81.4886631 C119.013457,81.2306631 117.809457,81.2306631 117.078457,81.1876631 L109.209457,81.1876631 Z M137.558743,62.9126631 L165.680743,62.9126631 L165.680743,69.9646631 L146.674743,69.9646631 L146.674743,74.2646631 L164.863743,74.2646631 L164.863743,81.1876631 L146.674743,81.1876631 L146.674743,86.1756631 L166.282743,86.1756631 L166.282743,93.2706631 L137.558743,93.2706631 L137.558743,62.9126631 Z M199.921029,71.5126631 L190.676029,72.1146631 C190.547029,71.5986631 190.418029,71.2546631 189.988029,70.7386631 C189.687029,70.3946631 189.644029,70.3516631 189.472029,70.2226631 C189.343029,70.1366631 189.214029,70.0936631 189.085029,69.9646631 C188.870029,69.8786631 188.655029,69.7496631 188.483029,69.6636631 C187.924029,69.4056631 186.505029,69.0616631 184.914029,69.0616631 C182.549029,69.0616631 180.270029,69.7496631 180.270029,71.3406631 C180.270029,71.5556631 180.270029,71.9856631 180.786029,72.4156631 C181.517029,73.0176631 183.366029,73.2756631 184.054029,73.4046631 L187.924029,73.9206631 C189.128029,74.0926631 190.332029,74.2646631 191.493029,74.5226631 C194.503029,75.2106631 196.094029,76.0706631 197.470029,77.1886631 C197.943029,77.6186631 198.287029,77.9626631 198.416029,78.0916631 C199.835029,79.7256631 200.265029,81.9616631 200.265029,83.7676631 C200.265029,84.3266631 200.222029,86.9496631 198.717029,89.1426631 C198.416029,89.6156631 197.685029,90.4756631 196.610029,91.2926631 C194.331029,93.0126631 191.063029,94.1306631 185.860029,94.1306631 C184.828029,94.1306631 180.571029,94.1736631 176.787029,92.5826631 C176.185029,92.3246631 175.540029,92.0236631 174.981029,91.6366631 C174.551029,91.3786631 174.164029,91.0776631 173.820029,90.8196631 C173.691029,90.6906631 173.562029,90.6046631 173.433029,90.5186631 C173.261029,90.3896631 173.089029,90.1746631 172.917029,90.0026631 C172.530029,89.5726631 172.272029,89.3576631 171.713029,88.4976631 C171.197029,87.7236631 170.595029,86.6056631 170.122029,84.7566631 C170.036029,84.4556631 170.036029,84.1976631 169.950029,83.8966631 C169.907029,83.7246631 169.864029,83.5526631 169.778029,83.3806631 L178.980029,82.8216631 C179.109029,83.1656631 179.367029,84.1116631 180.141029,84.9716631 C182.205029,87.1646631 186.075029,86.9926631 186.161029,86.9926631 C187.150029,86.9926631 188.741029,86.8636631 189.730029,86.3046631 C190.762029,85.7456631 190.891029,84.9286631 190.891029,84.5416631 C190.891029,84.4556631 190.848029,84.0256631 190.547029,83.5956631 C190.031029,82.8216631 188.913029,82.4776631 187.279029,82.1766631 C186.032029,81.9616631 184.785029,81.7466631 183.538029,81.5746631 C180.528029,81.1016631 175.841029,80.4996631 173.132029,78.0056631 C171.713029,76.7156631 170.724029,75.0386631 170.724029,72.1146631 C170.724029,71.4696631 170.767029,70.8246631 170.853029,70.1796631 C170.939029,69.4916631 171.283029,67.9866631 172.659029,66.3526631 C174.035029,64.6756631 176.099029,63.7726631 176.486029,63.6006631 C178.550029,62.6976631 181.087029,62.0526631 185.602029,62.0526631 C186.376029,62.0526631 191.579029,61.8806631 195.492029,64.5896631 C195.664029,64.6756631 196.223029,65.1056631 196.782029,65.6216631 C197.341029,66.1806631 198.373029,67.2126631 199.190029,69.0186631 C199.534029,69.8356631 199.749029,70.6956631 199.921029,71.5126631 Z M202.427315,62.9126631 L230.334315,62.9126631 L230.334315,69.9646631 L220.960315,69.9646631 L220.960315,93.2706631 L211.801315,93.2706631 L211.801315,69.9646631 L202.427315,69.9646631 L202.427315,62.9126631 Z M249.278886,62.9126631 L266.908886,62.9126631 C267.553886,62.9126631 268.155886,62.9556631 268.800886,62.9986631 C269.316886,63.0416631 273.229886,63.1276631 276.067886,65.5356631 C277.099886,66.3956631 277.486886,67.0836631 277.658886,67.3416631 C277.959886,67.7716631 278.217886,68.2446631 278.432886,68.7176631 C278.776886,69.5776631 279.249886,71.1256631 279.249886,73.2756631 C279.249886,74.8666631 278.905886,76.8446631 278.045886,78.3926631 C277.787886,78.9086631 276.927886,80.3276631 275.422886,81.3596631 C272.498886,83.3376631 268.456886,83.2516631 265.575886,83.2516631 L258.437886,83.2516631 L258.437886,93.2706631 L249.278886,93.2706631 L249.278886,62.9126631 Z M258.394886,69.9646631 L258.394886,76.4146631 L265.661886,76.4146631 C267.080886,76.3286631 269.402886,76.2856631 270.047886,74.1356631 C270.090886,73.9636631 270.176886,73.5766631 270.176886,73.1036631 C270.176886,72.7596631 270.090886,72.2866631 269.961886,71.8996631 C269.316886,69.8786631 266.865886,69.9646631 265.532886,69.9646631 L258.394886,69.9646631 Z M284.852172,62.9126631 L301.493172,62.9126631 C302.826172,62.9126631 304.159172,62.9556631 305.449172,63.0416631 C306.137172,63.0846631 308.545172,63.2136631 310.824172,64.5466631 C312.587172,65.5786631 314.393172,67.8146631 314.393172,71.3836631 C314.393172,71.8136631 314.436172,74.6516631 312.888172,76.7586631 C311.770172,78.1776631 310.222172,79.0806631 309.964172,79.2526631 C310.609172,79.6396631 311.555172,80.0266631 312.286172,81.4886631 C312.458172,81.7896631 312.544172,82.0906631 312.673172,82.4346631 C312.802172,82.8216631 312.931172,83.2516631 313.017172,83.6386631 C313.232172,84.5416631 313.275172,85.4446631 313.404172,86.3476631 C313.963172,89.9596631 314.522172,91.3356631 315.425172,93.2706631 L305.879172,93.2706631 C305.449172,92.2816631 304.976172,91.1636631 304.632172,89.0566631 C304.460172,87.9816631 304.374172,86.9496631 304.073172,85.9176631 C303.901172,85.4016631 303.815172,85.1006631 303.686172,84.8856631 C303.127172,83.8966631 301.966172,83.5526631 301.708172,83.4666631 C301.106172,83.3376631 300.246172,83.3376631 300.117172,83.2946631 L293.968172,83.2946631 L293.968172,93.2706631 L284.852172,93.2706631 L284.852172,62.9126631 Z M293.968172,69.9646631 L293.968172,76.4576631 L300.375172,76.4576631 C302.138172,76.3716631 303.127172,76.3716631 303.901172,75.8556631 C304.675172,75.3826631 305.320172,74.6086631 305.320172,73.1896631 C305.320172,72.9746631 305.320172,72.5016631 305.148172,71.9856631 C304.589172,70.2656631 303.084172,70.0506631 301.837172,69.9646631 L293.968172,69.9646631 Z M321.328458,62.9126631 L330.487458,62.9126631 L330.487458,93.2706631 L321.328458,93.2706631 L321.328458,62.9126631 Z M369.027744,72.6306631 L359.395744,73.2756631 C359.309744,72.9746631 359.180744,72.6736631 359.008744,72.3296631 C358.793744,71.9856631 358.234744,71.2116631 357.460744,70.6956631 C356.686744,70.1366631 355.009744,69.4486631 352.902744,69.4486631 C352.386744,69.4486631 349.978744,69.4916631 347.957744,70.9536631 C347.226744,71.4696631 346.753744,71.9856631 346.538744,72.2866631 C346.194744,72.6736631 345.936744,73.0606631 345.549744,73.8346631 C345.420744,74.0926631 345.291744,74.3506631 345.205744,74.6516631 C344.990744,75.1676631 344.646744,76.5436631 344.646744,78.0916631 C344.646744,78.6936631 344.732744,81.1876631 346.194744,83.3806631 C346.753744,84.2406631 347.570744,84.9286631 347.914744,85.1866631 C348.301744,85.4446631 349.032744,85.8746631 350.021744,86.2186631 C351.440744,86.6486631 352.515744,86.6486631 353.074744,86.6486631 C353.504744,86.6486631 356.686744,86.7346631 358.750744,84.3696631 C359.266744,83.7676631 359.438744,83.4236631 359.610744,83.1226631 C359.739744,82.8646631 359.825744,82.5636631 359.911744,82.3056631 L369.758744,82.7356631 C369.672744,83.0366631 369.242744,84.4986631 368.597744,85.7456631 C367.178744,88.6266631 364.512744,90.8196631 361.932744,92.1526631 C360.126744,93.0556631 357.417744,94.0876631 353.203744,94.0876631 C352.171744,94.0876631 347.398744,94.2166631 343.313744,92.0666631 C342.195744,91.4646631 340.690744,90.3036631 340.604744,90.1746631 C339.658744,89.4436631 338.110744,87.8096631 337.035744,85.4876631 C336.347744,84.1116631 335.401744,81.4886631 335.401744,77.9196631 C335.401744,76.7586631 335.444744,74.2216631 336.863744,71.1686631 C337.465744,69.8356631 337.938744,69.1476631 338.368744,68.5456631 C338.841744,67.9436631 339.142744,67.5566631 340.217744,66.5246631 C342.238744,64.6326631 343.872744,63.9876631 344.689744,63.6006631 C346.409744,62.9126631 349.290744,62.0096631 353.375744,62.0096631 C354.536744,62.0096631 355.740744,62.0956631 356.901744,62.3106631 C357.933744,62.4826631 363.437744,63.4286631 366.877744,67.8576631 C367.866744,69.1906631 368.468744,70.7386631 368.640744,71.1686631 C368.812744,71.6416631 368.941744,72.1576631 369.027744,72.6306631 Z M373.641029,62.9126631 L401.763029,62.9126631 L401.763029,69.9646631 L382.757029,69.9646631 L382.757029,74.2646631 L400.946029,74.2646631 L400.946029,81.1876631 L382.757029,81.1876631 L382.757029,86.1756631 L402.365029,86.1756631 L402.365029,93.2706631 L373.641029,93.2706631 L373.641029,62.9126631 Z M8.877001,146.541663 L8.877001,155.270663 L0.148001,155.270663 L0.148001,146.541663 L8.877001,146.541663 Z M40.5925726,125.428663 L48.3755726,125.428663 L48.3755726,155.270663 L39.8615726,155.270663 L39.8615726,136.393663 L32.8095726,136.393663 L32.8525726,130.588663 C34.8305726,130.588663 37.7545726,130.588663 39.5175726,128.438663 C39.8185726,128.051663 39.9905726,127.750663 40.0335726,127.664663 C40.1195726,127.449663 40.2915726,127.062663 40.3345726,126.890663 C40.5925726,126.116663 40.6355726,125.901663 40.5925726,125.428663 Z M78.3588584,128.223663 L78.7028584,128.567663 C78.9178584,128.739663 79.6488584,129.599663 80.1648584,130.330663 C81.4118584,132.222663 82.7018584,135.619663 82.7018584,140.349663 C82.7018584,141.252663 82.7018584,145.122663 81.0678584,148.605663 C80.4228584,149.981663 79.6918584,150.927663 79.1758584,151.486663 C78.4018584,152.389663 77.4128584,153.378663 75.6498584,154.281663 C74.1018584,155.055663 71.8658584,155.872663 68.3398584,155.872663 C67.4368584,155.872663 63.5238584,155.915663 60.1268584,153.593663 C59.6538584,153.249663 59.2238584,152.905663 58.7078584,152.389663 C57.4178584,151.099663 56.4718584,149.680663 55.8698584,148.304663 C54.4078584,145.079663 54.4078584,141.295663 54.4078584,140.521663 C54.4078584,139.532663 54.4508584,135.963663 55.8698584,132.609663 C56.0418584,132.222663 56.4288584,131.405663 57.1598584,130.330663 C57.3748584,130.072663 57.5038584,129.814663 57.7618584,129.556663 C58.0628584,129.169663 58.4928584,128.739663 58.8368584,128.395663 C59.8258584,127.406663 61.3308584,126.503663 62.3628584,126.030663 C63.5668584,125.514663 65.5878584,124.826663 68.5118584,124.783663 C69.0708584,124.740663 71.6938584,124.783663 73.9728584,125.514663 C74.9618584,125.858663 75.6068584,126.245663 76.0798584,126.503663 C77.2408584,127.234663 77.7138584,127.664663 78.3588584,128.223663 Z M68.5548584,131.276663 C68.2108584,131.276663 66.5768584,131.319663 65.2008584,132.394663 C64.4698584,133.039663 63.6528584,134.157663 63.1368584,135.791663 C62.8788584,136.608663 62.5778584,138.328663 62.5778584,140.478663 C62.5778584,140.779663 62.5778584,143.488663 63.2228584,145.337663 C63.3518584,145.638663 63.9108584,147.057663 64.8998584,147.917663 C66.4048584,149.250663 68.1248584,149.250663 68.5548584,149.250663 C69.3288584,149.250663 70.3178584,149.078663 71.1348584,148.605663 C71.3928584,148.476663 71.6078584,148.304663 71.8228584,148.132663 C71.9518584,148.046663 72.2528584,147.831663 72.4248584,147.616663 C72.5538584,147.487663 72.7258584,147.272663 72.8548584,147.057663 C73.4138584,146.240663 73.6288584,145.638663 73.8868584,144.778663 C74.1878584,143.789663 74.4888584,142.413663 74.4888584,140.177663 C74.4888584,139.962663 74.5748584,135.963663 73.0698584,133.555663 C72.3818584,132.480663 70.9628584,131.147663 68.5548584,131.276663 Z M110.320144,128.223663 L110.664144,128.567663 C110.879144,128.739663 111.610144,129.599663 112.126144,130.330663 C113.373144,132.222663 114.663144,135.619663 114.663144,140.349663 C114.663144,141.252663 114.663144,145.122663 113.029144,148.605663 C112.384144,149.981663 111.653144,150.927663 111.137144,151.486663 C110.363144,152.389663 109.374144,153.378663 107.611144,154.281663 C106.063144,155.055663 103.827144,155.872663 100.301144,155.872663 C99.3981442,155.872663 95.4851442,155.915663 92.0881442,153.593663 C91.6151442,153.249663 91.1851442,152.905663 90.6691442,152.389663 C89.3791442,151.099663 88.4331442,149.680663 87.8311442,148.304663 C86.3691442,145.079663 86.3691442,141.295663 86.3691442,140.521663 C86.3691442,139.532663 86.4121442,135.963663 87.8311442,132.609663 C88.0031442,132.222663 88.3901442,131.405663 89.1211442,130.330663 C89.3361442,130.072663 89.4651442,129.814663 89.7231442,129.556663 C90.0241442,129.169663 90.4541442,128.739663 90.7981442,128.395663 C91.7871442,127.406663 93.2921442,126.503663 94.3241442,126.030663 C95.5281442,125.514663 97.5491442,124.826663 100.473144,124.783663 C101.032144,124.740663 103.655144,124.783663 105.934144,125.514663 C106.923144,125.858663 107.568144,126.245663 108.041144,126.503663 C109.202144,127.234663 109.675144,127.664663 110.320144,128.223663 Z M100.516144,131.276663 C100.172144,131.276663 98.5381442,131.319663 97.1621442,132.394663 C96.4311442,133.039663 95.6141442,134.157663 95.0981442,135.791663 C94.8401442,136.608663 94.5391442,138.328663 94.5391442,140.478663 C94.5391442,140.779663 94.5391442,143.488663 95.1841442,145.337663 C95.3131442,145.638663 95.8721442,147.057663 96.8611442,147.917663 C98.3661442,149.250663 100.086144,149.250663 100.516144,149.250663 C101.290144,149.250663 102.279144,149.078663 103.096144,148.605663 C103.354144,148.476663 103.569144,148.304663 103.784144,148.132663 C103.913144,148.046663 104.214144,147.831663 104.386144,147.616663 C104.515144,147.487663 104.687144,147.272663 104.816144,147.057663 C105.375144,146.240663 105.590144,145.638663 105.848144,144.778663 C106.149144,143.789663 106.450144,142.413663 106.450144,140.177663 C106.450144,139.962663 106.536144,135.963663 105.031144,133.555663 C104.343144,132.480663 102.924144,131.147663 100.516144,131.276663 Z M126.15643,125.041663 C126.75843,124.998663 129.46743,124.998663 131.78943,126.503663 C133.03643,127.320663 133.85343,128.481663 133.93943,128.653663 C134.24043,129.083663 134.54143,129.599663 134.92843,130.588663 C135.22943,131.491663 135.65943,132.781663 135.65943,134.845663 C135.65943,135.318663 135.70243,138.844663 133.89643,141.381663 C133.55243,141.854663 133.46643,141.940663 133.03643,142.370663 C132.26243,143.101663 131.74643,143.445663 131.44543,143.617663 C130.54243,144.133663 128.95143,144.735663 126.75843,144.735663 C126.28543,144.735663 124.30743,144.692663 122.63043,143.961663 C122.28643,143.789663 121.89943,143.574663 121.55543,143.359663 C121.29743,143.187663 120.30843,142.585663 119.44843,141.381663 C118.50243,140.048663 117.68543,138.027663 117.68543,134.931663 C117.68543,134.458663 117.72843,132.265663 118.37343,130.373663 C119.31943,127.836663 121.59843,125.170663 126.15643,125.041663 Z M143.27043,125.299663 L147.87143,125.299663 L135.18643,155.270663 L130.58543,155.270663 L143.27043,125.299663 Z M126.28543,129.384663 C126.11343,129.384663 125.42543,129.427663 124.73743,129.943663 C124.47943,130.201663 124.17843,130.502663 124.00643,130.760663 C123.53343,131.448663 123.14643,132.867663 123.14643,134.673663 C123.14643,136.823663 123.49043,138.113663 124.17843,139.059663 C124.60843,139.704663 125.46843,140.263663 126.71543,140.263663 C127.66143,140.263663 128.22043,139.962663 128.65043,139.618663 C128.82243,139.446663 129.16643,139.145663 129.46743,138.672663 C129.85443,137.941663 130.24143,136.565663 130.24143,134.759663 C130.24143,134.630663 130.37043,131.749663 128.86543,130.201663 C128.43543,129.771663 127.53243,129.298663 126.28543,129.384663 Z M150.96743,135.834663 C152.90243,135.748663 154.75143,136.264663 155.39643,136.565663 C155.61143,136.651663 156.08443,136.866663 156.64343,137.210663 C157.54643,137.769663 157.84743,138.070663 158.23443,138.500663 C158.36343,138.629663 158.53543,138.801663 158.66443,138.973663 C158.83643,139.188663 158.96543,139.403663 159.09443,139.618663 C159.35243,140.048663 159.61043,140.478663 159.78243,140.951663 C160.16943,141.768663 160.72843,143.531663 160.72843,145.724663 C160.72843,146.326663 160.68543,146.928663 160.59943,147.573663 C160.25543,150.411663 159.26643,152.045663 157.93343,153.335663 C157.46043,153.808663 156.94443,154.195663 156.51443,154.453663 C155.65443,154.926663 153.97743,155.528663 151.78443,155.528663 C149.33343,155.528663 147.65643,154.840663 146.62443,154.195663 C146.36643,154.023663 145.63543,153.636663 144.73243,152.518663 C142.66843,149.895663 142.75443,146.197663 142.75443,145.724663 C142.75443,143.875663 143.05543,141.553663 144.13043,139.747663 C144.34543,139.403663 144.81843,138.672663 145.67843,137.898663 C147.35543,136.393663 149.24743,135.920663 150.96743,135.834663 Z M151.35443,140.220663 C150.66643,140.263663 150.06443,140.435663 149.46243,141.080663 C149.07543,141.467663 148.90343,141.811663 148.86043,141.940663 C148.17243,143.273663 148.17243,145.767663 148.17243,145.767663 C148.17243,146.928663 148.34443,147.616663 148.47343,148.132663 C148.51643,148.390663 148.68843,149.422663 149.50543,150.196663 C150.45143,151.142663 151.31143,151.099663 151.65543,151.099663 C151.87043,151.099663 152.81643,151.142663 153.71943,150.411663 C153.80543,150.325663 154.19243,149.981663 154.40743,149.680663 C154.57943,149.422663 154.70843,149.121663 154.88043,148.562663 C155.09543,147.960663 155.26743,146.928663 155.26743,145.380663 C155.26743,143.531663 154.83743,142.241663 154.27843,141.467663 C154.14943,141.295663 153.93443,140.994663 153.54743,140.693663 C152.94543,140.306663 151.91343,140.177663 151.35443,140.220663 Z M188.918002,124.912663 L200.313002,124.912663 L212.052002,155.270663 L202.076002,155.270663 L200.012002,149.121663 L189.176002,149.121663 L187.155002,155.270663 L177.136002,155.270663 L188.918002,124.912663 Z M194.637002,132.781663 L191.369002,142.585663 L197.862002,142.585663 L194.637002,132.781663 Z M214.386287,124.912663 L223.545287,124.912663 L223.545287,142.026663 C223.545287,142.413663 223.545287,142.757663 223.588287,143.144663 C223.760287,144.606663 224.147287,145.423663 224.577287,146.068663 C224.878287,146.584663 225.179287,146.799663 225.437287,147.057663 C225.652287,147.229663 225.910287,147.444663 226.340287,147.702663 C226.770287,147.917663 227.329287,148.089663 227.415287,148.132663 C228.060287,148.347663 228.877287,148.605663 230.296287,148.605663 C232.489287,148.605663 233.865287,147.960663 234.811287,147.143663 C235.155287,146.842663 235.843287,146.154663 236.230287,145.122663 C236.617287,144.176663 236.703287,143.316663 236.789287,141.467663 L236.789287,124.912663 L245.905287,124.912663 L245.905287,143.531663 C245.862287,144.348663 245.776287,145.165663 245.690287,145.939663 C245.217287,149.207663 244.056287,151.013663 242.422287,152.518663 C240.100287,154.582663 236.703287,155.786663 231.371287,156.044663 C230.855287,156.044663 230.296287,156.087663 229.780287,156.087663 C229.178287,156.087663 222.298287,156.259663 218.170287,152.647663 C217.224287,151.830663 216.536287,150.970663 216.278287,150.583663 C215.934287,150.110663 215.547287,149.422663 215.203287,148.304663 C214.601287,146.670663 214.429287,145.509663 214.386287,142.327663 L214.386287,124.912663 Z M249.959573,124.912663 L277.866573,124.912663 L277.866573,131.964663 L268.492573,131.964663 L268.492573,155.270663 L259.333573,155.270663 L259.333573,131.964663 L249.959573,131.964663 L249.959573,124.912663 Z M281.920859,124.912663 L290.993859,124.912663 L290.993859,135.877663 L305.269859,135.877663 L305.269859,124.912663 L314.342859,124.912663 L314.342859,155.270663 L305.269859,155.270663 L305.269859,142.929663 L290.993859,142.929663 L290.993859,155.270663 L281.920859,155.270663 L281.920859,124.912663 Z M321.966145,124.912663 L350.088145,124.912663 L350.088145,131.964663 L331.082145,131.964663 L331.082145,136.264663 L349.271145,136.264663 L349.271145,143.187663 L331.082145,143.187663 L331.082145,148.175663 L350.690145,148.175663 L350.690145,155.270663 L321.966145,155.270663 L321.966145,124.912663 Z M357.496431,124.912663 L366.999431,124.912663 C367.429431,125.428663 367.773431,125.858663 368.117431,126.331663 C368.246431,126.503663 368.418431,126.718663 368.547431,126.890663 C368.848431,127.277663 369.149431,127.621663 369.493431,128.051663 C370.009431,128.696663 370.482431,129.298663 370.955431,129.900663 C371.686431,130.803663 372.374431,131.663663 373.062431,132.523663 C374.051431,133.727663 375.040431,135.017663 376.072431,136.307663 C377.018431,137.468663 377.921431,138.586663 378.781431,139.747663 C379.469431,140.650663 380.243431,141.510663 380.888431,142.585663 L380.888431,124.912663 L389.961431,124.912663 L389.961431,155.270663 L380.759431,155.270663 C380.286431,154.711663 379.856431,154.152663 379.426431,153.593663 C378.953431,152.991663 378.437431,152.389663 377.964431,151.744663 C377.448431,151.142663 376.975431,150.540663 376.545431,149.981663 C376.115431,149.465663 375.728431,148.992663 375.298431,148.476663 C374.008431,146.885663 372.804431,145.337663 371.557431,143.746663 C370.611431,142.585663 369.622431,141.381663 368.719431,140.220663 C368.203431,139.618663 367.730431,139.016663 367.257431,138.371663 C366.999431,137.984663 366.741431,137.597663 366.483431,137.253663 C366.698431,138.199663 366.655431,138.887663 366.655431,139.317663 L366.655431,155.270663 L357.496431,155.270663 L357.496431,124.912663 Z M394.015716,124.912663 L421.922716,124.912663 L421.922716,131.964663 L412.548716,131.964663 L412.548716,155.270663 L403.389716,155.270663 L403.389716,131.964663 L394.015716,131.964663 L394.015716,124.912663 Z M425.934002,124.912663 L435.093002,124.912663 L435.093002,155.270663 L425.934002,155.270663 L425.934002,124.912663 Z M473.633288,134.630663 L464.001288,135.275663 C463.915288,134.974663 463.786288,134.673663 463.614288,134.329663 C463.399288,133.985663 462.840288,133.211663 462.066288,132.695663 C461.292288,132.136663 459.615288,131.448663 457.508288,131.448663 C456.992288,131.448663 454.584288,131.491663 452.563288,132.953663 C451.832288,133.469663 451.359288,133.985663 451.144288,134.286663 C450.800288,134.673663 450.542288,135.060663 450.155288,135.834663 C450.026288,136.092663 449.897288,136.350663 449.811288,136.651663 C449.596288,137.167663 449.252288,138.543663 449.252288,140.091663 C449.252288,140.693663 449.338288,143.187663 450.800288,145.380663 C451.359288,146.240663 452.176288,146.928663 452.520288,147.186663 C452.907288,147.444663 453.638288,147.874663 454.627288,148.218663 C456.046288,148.648663 457.121288,148.648663 457.680288,148.648663 C458.110288,148.648663 461.292288,148.734663 463.356288,146.369663 C463.872288,145.767663 464.044288,145.423663 464.216288,145.122663 C464.345288,144.864663 464.431288,144.563663 464.517288,144.305663 L474.364288,144.735663 C474.278288,145.036663 473.848288,146.498663 473.203288,147.745663 C471.784288,150.626663 469.118288,152.819663 466.538288,154.152663 C464.732288,155.055663 462.023288,156.087663 457.809288,156.087663 C456.777288,156.087663 452.004288,156.216663 447.919288,154.066663 C446.801288,153.464663 445.296288,152.303663 445.210288,152.174663 C444.264288,151.443663 442.716288,149.809663 441.641288,147.487663 C440.953288,146.111663 440.007288,143.488663 440.007288,139.919663 C440.007288,138.758663 440.050288,136.221663 441.469288,133.168663 C442.071288,131.835663 442.544288,131.147663 442.974288,130.545663 C443.447288,129.943663 443.748288,129.556663 444.823288,128.524663 C446.844288,126.632663 448.478288,125.987663 449.295288,125.600663 C451.015288,124.912663 453.896288,124.009663 457.981288,124.009663 C459.142288,124.009663 460.346288,124.095663 461.507288,124.310663 C462.539288,124.482663 468.043288,125.428663 471.483288,129.857663 C472.472288,131.190663 473.074288,132.738663 473.246288,133.168663 C473.418288,133.641663 473.547288,134.157663 473.633288,134.630663 Z" id=".-BEST-SELECTION-.-B" fill="#1D1E1C"></path>
    </g>
</svg>