<?xml version="1.0" encoding="UTF-8"?>
<svg width="260px" height="33px" viewBox="0 0 260 33" version="1.1" xmlns="http://www.w3.org/2000/svg" xmlns:xlink="http://www.w3.org/1999/xlink">
    <!-- Generator: Sketch 52.5 (67469) - http://www.bohemiancoding.com/sketch -->
    <title>Contact Us Copy</title>
    <desc>Created with Sketch.</desc>
    <g id="Page-1" stroke="none" stroke-width="1" fill="none" fill-rule="evenodd">
        <path d="M34.556001,10.868 L24.700001,11.528 C24.612001,11.22 24.480001,10.912 24.304001,10.56 C24.084001,10.208 23.512001,9.416 22.720001,8.888 C21.928001,8.316 20.212001,7.612 18.056001,7.612 C17.528001,7.612 15.064001,7.656 12.996001,9.152 C12.248001,9.68 11.764001,10.208 11.544001,10.516 C11.192001,10.912 10.928001,11.308 10.532001,12.1 C10.400001,12.364 10.268001,12.628 10.180001,12.936 C9.960001,13.464 9.608001,14.872 9.608001,16.456 C9.608001,17.072 9.696001,19.624 11.192001,21.868 C11.764001,22.748 12.600001,23.452 12.952001,23.716 C13.348001,23.98 14.096001,24.42 15.108001,24.772 C16.560001,25.212 17.660001,25.212 18.232001,25.212 C18.672001,25.212 21.928001,25.3 24.040001,22.88 C24.568001,22.264 24.744001,21.912 24.920001,21.604 C25.052001,21.34 25.140001,21.032 25.228001,20.768 L35.304001,21.208 C35.216001,21.516 34.776001,23.012 34.116001,24.288 C32.664001,27.236 29.936001,29.48 27.296001,30.844 C25.448001,31.768 22.676001,32.824 18.364001,32.824 C17.308001,32.824 12.424001,32.956 8.244001,30.756 C7.100001,30.14 5.560001,28.952 5.472001,28.82 C4.504001,28.072 2.920001,26.4 1.820001,24.024 C1.116001,22.616 0.148001,19.932 0.148001,16.28 C0.148001,15.092 0.192001,12.496 1.644001,9.372 C2.260001,8.008 2.744001,7.304 3.184001,6.688 C3.668001,6.072 3.976001,5.676 5.076001,4.62 C7.144001,2.684 8.816001,2.024 9.652001,1.628 C11.412001,0.924 14.360001,0 18.540001,0 C19.728001,0 20.960001,0.088 22.148001,0.308 C23.204001,0.484 28.836001,1.452 32.356001,5.984 C33.368001,7.348 33.984001,8.932 34.160001,9.372 C34.336001,9.856 34.468001,10.384 34.556001,10.868 Z M49.789779,8.404 C53.177779,8.36 55.773779,9.152 57.093779,9.768 C58.369779,10.34 59.205779,11 59.689779,11.396 C59.997779,11.66 60.393779,11.968 60.657779,12.276 C62.109779,13.772 63.825779,16.324 63.825779,20.504 C63.825779,21.252 63.913779,26.048 59.909779,29.48 C57.973779,31.152 54.585779,32.736 49.789779,32.736 C48.865779,32.736 44.729779,32.736 41.209779,30.536 C40.505779,30.14 39.889779,29.568 39.713779,29.436 C39.097779,28.908 38.657779,28.512 37.821779,27.28 C35.973779,24.42 35.929779,21.384 35.929779,20.548 C35.929779,19.844 35.973779,18.48 36.501779,16.764 C36.853779,15.708 37.909779,12.98 40.901779,10.912 C42.617779,9.724 45.565779,8.492 49.789779,8.404 Z M49.613779,14.96 C48.601779,15.004 47.633779,15.444 47.281779,15.664 C46.929779,15.884 46.753779,16.06 46.621779,16.236 C45.609779,17.16 44.905779,18.392 44.905779,20.592 C44.905779,21.296 45.037779,22.352 45.301779,23.012 C45.389779,23.276 45.521779,23.54 45.697779,23.76 C45.829779,24.024 45.917779,24.2 46.093779,24.42 C46.709779,25.256 47.941779,26.136 49.701779,26.136 C49.877779,26.136 50.537779,26.136 51.109779,25.96 C51.549779,25.872 52.957779,25.476 53.969779,23.936 C54.145779,23.672 54.189779,23.496 54.409779,22.968 C54.497779,22.704 54.629779,22.396 54.673779,22.132 C54.761779,21.868 54.849779,21.164 54.849779,20.372 C54.849779,18.04 53.749779,15.444 50.757779,15.004 C50.361779,14.96 50.009779,14.916 49.613779,14.96 Z M92.523557,17.996 L92.523557,31.988 L83.635557,31.988 L83.635557,19.228 C83.503557,17.292 83.151557,16.544 82.007557,15.84 C81.127557,15.268 80.335557,15.268 79.983557,15.268 C79.675557,15.268 78.355557,15.312 77.255557,16.016 C75.627557,17.072 75.275557,18.656 75.187557,21.34 L75.187557,31.988 L66.211557,31.988 L66.211557,9.152 L75.187557,9.152 L75.187557,12.32 C77.783557,8.404 83.107557,8.624 83.283557,8.624 C84.075557,8.624 84.867557,8.668 85.659557,8.8 C86.583557,8.932 89.971557,9.46 91.643557,12.892 C91.775557,13.156 91.863557,13.464 91.951557,13.728 C92.303557,14.96 92.435557,15.752 92.523557,17.996 Z M106.525335,2.464 L106.525335,9.196 L111.101335,9.196 L111.101335,15.356 L106.569335,15.356 L106.569335,22.836 C106.613335,23.98 106.701335,24.772 107.273335,25.212 C107.581335,25.476 107.977335,25.52 108.329335,25.564 C108.637335,25.608 108.945335,25.608 109.253335,25.608 C109.869335,25.608 110.485335,25.564 111.101335,25.564 L111.101335,32.164 C107.009335,32.34 105.029335,32.34 103.093335,32.076 C102.829335,32.032 100.673335,31.812 99.353335,30.536 C97.901335,29.084 97.857335,27.412 97.769335,25.872 L97.769335,15.356 L94.073335,15.356 L94.073335,9.196 L97.857335,9.196 L97.857335,2.464 L106.525335,2.464 Z M138.655113,31.988 L129.283113,31.988 L129.063113,29.216 C128.271113,29.964 127.655113,30.8 126.027113,31.592 C123.959113,32.56 121.539113,32.604 121.055113,32.604 C120.483113,32.604 118.679113,32.56 116.831113,31.856 C116.347113,31.68 115.951113,31.46 115.467113,31.152 C115.203113,31.02 114.939113,30.844 114.675113,30.668 C114.103113,30.184 113.619113,29.568 113.487113,29.392 C112.871113,28.556 112.123113,27.104 112.123113,25.124 C112.123113,24.728 112.123113,22.22 113.883113,20.372 C114.059113,20.152 114.235113,19.976 114.411113,19.8 C114.587113,19.668 114.807113,19.492 115.027113,19.36 C115.687113,18.92 115.731113,18.92 116.083113,18.744 C116.699113,18.436 118.063113,18.084 118.679113,17.952 C119.251113,17.82 119.867113,17.732 120.439113,17.644 C120.967113,17.556 121.495113,17.512 122.067113,17.424 C122.551113,17.38 123.079113,17.38 123.563113,17.336 L124.619113,17.204 C125.367113,17.116 126.159113,17.072 126.907113,16.984 C127.259113,16.896 127.567113,16.896 127.963113,16.764 C128.051113,16.72 128.975113,16.368 128.975113,15.708 C128.975113,15.136 128.359113,14.564 127.831113,14.388 C127.567113,14.256 126.687113,14.124 125.807113,14.124 C125.367113,14.124 124.971113,14.212 124.531113,14.3 C124.487113,14.3 123.211113,14.432 122.639113,15.488 C122.551113,15.62 122.463113,15.84 122.419113,16.148 L113.355113,16.06 C113.531113,13.904 114.367113,12.628 115.247113,11.66 C116.171113,10.692 117.711113,9.856 118.767113,9.46 C119.911113,9.064 122.507113,8.448 125.631113,8.448 C126.379113,8.448 128.667113,8.492 130.911113,9.064 C133.375113,9.724 134.695113,10.604 135.795113,11.792 C137.775113,13.948 137.687113,16.632 137.643113,21.604 C137.643113,23.188 137.599113,24.772 137.599113,26.356 C137.599113,27.06 137.511113,28.468 138.039113,30.272 C138.127113,30.58 138.215113,31.108 138.655113,31.988 Z M129.151113,22.044 C128.359113,22.176 127.567113,22.308 126.775113,22.396 C126.071113,22.484 125.411113,22.572 124.707113,22.66 C123.431113,22.792 122.419113,22.968 121.979113,23.232 C121.407113,23.584 121.143113,24.112 121.143113,24.596 C121.143113,24.816 121.143113,25.432 121.847113,25.872 C122.155113,26.048 122.947113,26.268 123.827113,26.268 C125.147113,26.268 127.655113,25.872 128.667113,23.98 C129.063113,23.232 129.151113,22.132 129.151113,22.044 Z M167.572891,17.996 L158.640891,18.48 C158.156891,16.72 157.276891,14.96 153.932891,14.96 C152.920891,14.96 151.732891,15.532 151.468891,15.664 C151.116891,15.884 150.764891,16.236 150.456891,16.544 C149.400891,17.688 149.268891,18.876 149.224891,19.228 C149.136891,19.668 149.092891,20.152 149.092891,20.592 C149.092891,20.768 149.136891,21.912 149.400891,22.792 C149.532891,23.144 149.532891,23.188 149.884891,23.76 C150.148891,24.2 150.280891,24.684 151.336891,25.344 C151.952891,25.784 152.700891,26.136 154.064891,26.136 C155.296891,26.136 156.484891,25.608 156.880891,25.344 C157.804891,24.728 158.200891,23.848 158.332891,23.628 C158.464891,23.32 158.596891,23.012 158.684891,22.748 C158.728891,22.528 158.728891,22.352 158.772891,22.176 L167.704891,22.572 C167.616891,23.364 167.484891,24.596 166.472891,26.488 C166.428891,26.576 166.032891,27.324 165.636891,27.852 C165.504891,28.028 164.800891,28.82 164.668891,28.952 C164.360891,29.26 164.052891,29.48 163.744891,29.7 C163.524891,29.876 163.348891,30.096 163.084891,30.228 C162.644891,30.58 161.808891,31.064 160.708891,31.504 C157.936891,32.648 154.416891,32.692 153.800891,32.692 C149.840891,32.692 147.200891,31.636 145.528891,30.58 C145.088891,30.316 144.692891,30.096 144.296891,29.788 C142.492891,28.38 141.480891,26.356 141.260891,25.828 C140.820891,24.904 140.116891,23.012 140.116891,20.548 C140.116891,17.512 141.304891,15.048 142.096891,13.904 C142.404891,13.42 143.108891,12.672 143.108891,12.672 C143.768891,11.968 144.120891,11.528 145.572891,10.604 C147.552891,9.416 150.324891,8.404 154.856891,8.404 C156.616891,8.404 158.772891,8.888 159.168891,9.02 C159.652891,9.152 160.092891,9.284 160.532891,9.46 C160.928891,9.592 161.324891,9.724 161.720891,9.944 C162.072891,10.12 163.436891,11 163.788891,11.264 C164.536891,11.836 165.504891,12.936 165.856891,13.42 C166.120891,13.772 166.252891,13.992 166.604891,14.784 C167.088891,15.752 167.264891,16.236 167.572891,17.996 Z M179.858669,2.464 L179.858669,9.196 L184.434669,9.196 L184.434669,15.356 L179.902669,15.356 L179.902669,22.836 C179.946669,23.98 180.034669,24.772 180.606669,25.212 C180.914669,25.476 181.310669,25.52 181.662669,25.564 C181.970669,25.608 182.278669,25.608 182.586669,25.608 C183.202669,25.608 183.818669,25.564 184.434669,25.564 L184.434669,32.164 C180.342669,32.34 178.362669,32.34 176.426669,32.076 C176.162669,32.032 174.006669,31.812 172.686669,30.536 C171.234669,29.084 171.190669,27.412 171.102669,25.872 L171.102669,15.356 L167.406669,15.356 L167.406669,9.196 L171.190669,9.196 L171.190669,2.464 L179.858669,2.464 Z M199.370225,0.924 L208.742225,0.924 L208.742225,18.436 C208.742225,18.832 208.742225,19.184 208.786225,19.58 C208.962225,21.076 209.358225,21.912 209.798225,22.572 C210.106225,23.1 210.414225,23.32 210.678225,23.584 C210.898225,23.76 211.162225,23.98 211.602225,24.244 C212.042225,24.464 212.614225,24.64 212.702225,24.684 C213.362225,24.904 214.198225,25.168 215.650225,25.168 C217.894225,25.168 219.302225,24.508 220.270225,23.672 C220.622225,23.364 221.326225,22.66 221.722225,21.604 C222.118225,20.636 222.206225,19.756 222.294225,17.864 L222.294225,0.924 L231.622225,0.924 L231.622225,19.976 C231.578225,20.812 231.490225,21.648 231.402225,22.44 C230.918225,25.784 229.730225,27.632 228.058225,29.172 C225.682225,31.284 222.206225,32.516 216.750225,32.78 C216.222225,32.78 215.650225,32.824 215.122225,32.824 C214.506225,32.824 207.466225,33 203.242225,29.304 C202.274225,28.468 201.570225,27.588 201.306225,27.192 C200.954225,26.708 200.558225,26.004 200.206225,24.86 C199.590225,23.188 199.414225,22 199.370225,18.744 L199.370225,0.924 Z M259.484003,15.532 L250.948003,16.148 C250.640003,14.696 249.320003,14.124 246.944003,14.124 C245.800003,14.124 244.700003,14.344 244.304003,14.564 C243.908003,14.74 243.600003,15.136 243.600003,15.532 C243.600003,16.236 244.260003,16.5 245.316003,16.72 C246.196003,16.808 247.032003,16.94 247.912003,17.028 C250.068003,17.292 253.544003,17.644 255.700003,18.524 C256.008003,18.656 256.624003,18.92 257.372003,19.448 C257.724003,19.756 258.032003,20.02 258.164003,20.152 C258.472003,20.46 259.000003,21.208 259.176003,21.648 C259.440003,22.132 259.792003,23.188 259.792003,24.508 C259.792003,24.86 259.748003,26.62 258.956003,28.072 C258.604003,28.688 258.120003,29.26 257.944003,29.436 C257.636003,29.744 257.196003,30.184 256.844003,30.404 C256.316003,30.8 255.788003,30.976 255.656003,31.064 C255.172003,31.328 254.688003,31.548 254.204003,31.724 C252.884003,32.164 250.552003,32.692 247.296003,32.692 C246.372003,32.692 243.732003,32.648 240.960003,31.812 C240.388003,31.636 237.880003,30.932 236.120003,28.908 C234.756003,27.324 234.448003,25.388 234.360003,24.992 L243.160003,24.508 C243.248003,24.64 243.512003,25.3 244.084003,25.784 C244.744003,26.356 246.196003,26.84 248.044003,26.84 C249.672003,26.84 251.212003,26.356 251.212003,25.388 C251.212003,25.256 251.212003,25.08 251.036003,24.816 C250.640003,24.244 249.980003,24.112 248.880003,23.936 C247.164003,23.76 245.492003,23.584 243.776003,23.32 C241.444003,23.012 240.696003,22.836 239.420003,22.308 C239.068003,22.176 238.760003,22.088 238.408003,21.912 C238.188003,21.78 237.616003,21.472 237.132003,21.076 C235.460003,19.624 235.020003,17.688 235.020003,16.104 C235.020003,14.916 235.328003,13.684 236.120003,12.54 C236.252003,12.364 236.428003,12.144 236.560003,11.968 C236.780003,11.748 237.264003,11.176 238.100003,10.604 C238.584003,10.296 238.936003,10.12 239.860003,9.724 C241.532003,9.02 243.732003,8.448 247.516003,8.448 C248.176003,8.448 252.004003,8.36 254.996003,9.812 C256.536003,10.516 257.548003,11.616 257.988003,12.144 C259.132003,13.552 259.352003,14.96 259.484003,15.532 Z" id="Contact-Us-Copy" fill="#FFFFFF"></path>
    </g>
</svg>