<?xml version="1.0" encoding="UTF-8"?>
<svg width="319px" height="90px" viewBox="0 0 319 90" version="1.1" xmlns="http://www.w3.org/2000/svg" xmlns:xlink="http://www.w3.org/1999/xlink">
    <!-- Generator: Sketch 52.5 (67469) - http://www.bohemiancoding.com/sketch -->
    <title>JAPANESE BEAUTY &amp; LI Copy</title>
    <desc>Created with Sketch.</desc>
    <g id="Page-1" stroke="none" stroke-width="1" fill="none" fill-rule="evenodd">
        <path d="M95.5839288,1.35 L95.5839288,13.175 C95.5339288,14.525 95.4339288,16.25 94.1589288,17.6 C93.0089288,18.825 91.1339288,19.475 88.3839288,19.475 C88.0339288,19.475 85.4339288,19.55 83.5839288,18.25 C83.4589288,18.175 83.1589288,17.95 82.7839288,17.55 C81.3089288,15.95 81.3839288,13.125 81.3839288,11.525 L86.4589288,11.425 C86.4589288,12.1 86.4589288,12.75 86.5089288,13.4 C86.6089288,14.175 86.7839288,14.575 87.1589288,14.875 C87.6589288,15.325 88.2589288,15.3 88.4339288,15.3 C88.6589288,15.3 89.6839288,15.275 90.0839288,14.175 C90.2589288,13.7 90.2839288,12.875 90.3089288,11.725 L90.3089288,1.35 L95.5839288,1.35 Z M103.266072,1.35 L109.891072,1.35 L116.716072,19 L110.916072,19 L109.716072,15.425 L103.416072,15.425 L102.241072,19 L96.4160716,19 L103.266072,1.35 Z M106.591072,5.925 L104.691072,11.625 L108.466072,11.625 L106.591072,5.925 Z M118.573214,1.35 L128.823214,1.35 C129.198214,1.35 129.548214,1.375 129.923214,1.4 C130.223214,1.425 132.498214,1.475 134.148214,2.875 C134.748214,3.375 134.973214,3.775 135.073214,3.925 C135.248214,4.175 135.398214,4.45 135.523214,4.725 C135.723214,5.225 135.998214,6.125 135.998214,7.375 C135.998214,8.3 135.798214,9.45 135.298214,10.35 C135.148214,10.65 134.648214,11.475 133.773214,12.075 C132.073214,13.225 129.723214,13.175 128.048214,13.175 L123.898214,13.175 L123.898214,19 L118.573214,19 L118.573214,1.35 Z M123.873214,5.45 L123.873214,9.2 L128.098214,9.2 C128.923214,9.15 130.273214,9.125 130.648214,7.875 C130.673214,7.775 130.723214,7.55 130.723214,7.275 C130.723214,7.075 130.673214,6.8 130.598214,6.575 C130.223214,5.4 128.798214,5.45 128.023214,5.45 L123.873214,5.45 Z M142.005357,1.35 L148.630357,1.35 L155.455357,19 L149.655357,19 L148.455357,15.425 L142.155357,15.425 L140.980357,19 L135.155357,19 L142.005357,1.35 Z M145.330357,5.925 L143.430357,11.625 L147.205357,11.625 L145.330357,5.925 Z M157.3125,1.35 L162.8375,1.35 C163.0875,1.65 163.2875,1.9 163.4875,2.175 C163.5625,2.275 163.6625,2.4 163.7375,2.5 C163.9125,2.725 164.0875,2.925 164.2875,3.175 C164.5875,3.55 164.8625,3.9 165.1375,4.25 C165.5625,4.775 165.9625,5.275 166.3625,5.775 C166.9375,6.475 167.5125,7.225 168.1125,7.975 C168.6625,8.65 169.1875,9.3 169.6875,9.975 C170.0875,10.5 170.5375,11 170.9125,11.625 L170.9125,1.35 L176.1875,1.35 L176.1875,19 L170.8375,19 C170.5625,18.675 170.3125,18.35 170.0625,18.025 C169.7875,17.675 169.4875,17.325 169.2125,16.95 C168.9125,16.6 168.6375,16.25 168.3875,15.925 C168.1375,15.625 167.9125,15.35 167.6625,15.05 C166.9125,14.125 166.2125,13.225 165.4875,12.3 C164.9375,11.625 164.3625,10.925 163.8375,10.25 C163.5375,9.9 163.2625,9.55 162.9875,9.175 C162.8375,8.95 162.6875,8.725 162.5375,8.525 C162.6625,9.075 162.6375,9.475 162.6375,9.725 L162.6375,19 L157.3125,19 L157.3125,1.35 Z M180.619643,1.35 L196.969643,1.35 L196.969643,5.45 L185.919643,5.45 L185.919643,7.95 L196.494643,7.95 L196.494643,11.975 L185.919643,11.975 L185.919643,14.875 L197.319643,14.875 L197.319643,19 L180.619643,19 L180.619643,1.35 Z M216.876786,6.35 L211.501786,6.7 C211.426786,6.4 211.351786,6.2 211.101786,5.9 C210.926786,5.7 210.901786,5.675 210.801786,5.6 C210.726786,5.55 210.651786,5.525 210.576786,5.45 C210.451786,5.4 210.326786,5.325 210.226786,5.275 C209.901786,5.125 209.076786,4.925 208.151786,4.925 C206.776786,4.925 205.451786,5.325 205.451786,6.25 C205.451786,6.375 205.451786,6.625 205.751786,6.875 C206.176786,7.225 207.251786,7.375 207.651786,7.45 L209.901786,7.75 C210.601786,7.85 211.301786,7.95 211.976786,8.1 C213.726786,8.5 214.651786,9 215.451786,9.65 C215.726786,9.9 215.926786,10.1 216.001786,10.175 C216.826786,11.125 217.076786,12.425 217.076786,13.475 C217.076786,13.8 217.051786,15.325 216.176786,16.6 C216.001786,16.875 215.576786,17.375 214.951786,17.85 C213.626786,18.85 211.726786,19.5 208.701786,19.5 C208.101786,19.5 205.626786,19.525 203.426786,18.6 C203.076786,18.45 202.701786,18.275 202.376786,18.05 C202.126786,17.9 201.901786,17.725 201.701786,17.575 C201.626786,17.5 201.551786,17.45 201.476786,17.4 C201.376786,17.325 201.276786,17.2 201.176786,17.1 C200.951786,16.85 200.801786,16.725 200.476786,16.225 C200.176786,15.775 199.826786,15.125 199.551786,14.05 C199.501786,13.875 199.501786,13.725 199.451786,13.55 C199.426786,13.45 199.401786,13.35 199.351786,13.25 L204.701786,12.925 C204.776786,13.125 204.926786,13.675 205.376786,14.175 C206.576786,15.45 208.826786,15.35 208.876786,15.35 C209.451786,15.35 210.376786,15.275 210.951786,14.95 C211.551786,14.625 211.626786,14.15 211.626786,13.925 C211.626786,13.875 211.601786,13.625 211.426786,13.375 C211.126786,12.925 210.476786,12.725 209.526786,12.55 C208.801786,12.425 208.076786,12.3 207.351786,12.2 C205.601786,11.925 202.876786,11.575 201.301786,10.125 C200.476786,9.375 199.901786,8.4 199.901786,6.7 C199.901786,6.325 199.926786,5.95 199.976786,5.575 C200.026786,5.175 200.226786,4.3 201.026786,3.35 C201.826786,2.375 203.026786,1.85 203.251786,1.75 C204.451786,1.225 205.926786,0.85 208.551786,0.85 C209.001786,0.85 212.026786,0.75 214.301786,2.325 C214.401786,2.375 214.726786,2.625 215.051786,2.925 C215.376786,3.25 215.976786,3.85 216.451786,4.9 C216.651786,5.375 216.776786,5.875 216.876786,6.35 Z M219.883928,1.35 L236.233928,1.35 L236.233928,5.45 L225.183928,5.45 L225.183928,7.95 L235.758928,7.95 L235.758928,11.975 L225.183928,11.975 L225.183928,14.875 L236.583928,14.875 L236.583928,19 L219.883928,19 L219.883928,1.35 Z M0.1857148,36.35 L10.1607148,36.35 C11.3107148,36.35 12.9107148,36.375 14.0607148,36.7 C15.3107148,37.075 15.9857148,37.65 16.4107148,38.2 C16.7607148,38.675 17.2107148,39.45 17.2107148,40.625 C17.2107148,41.5 17.0357148,42.375 16.4357148,43.225 C16.4107148,43.25 16.1857148,43.55 16.0107148,43.725 C15.8607148,43.85 15.7857148,43.925 15.5107148,44.125 C15.2857148,44.3 15.0857148,44.475 14.6607148,44.575 C14.7607148,44.575 14.9607148,44.625 14.9607148,44.625 C15.0607148,44.65 15.6607148,44.9 16.0857148,45.2 C17.0107148,45.85 17.8857148,46.95 17.8857148,48.875 C17.8857148,49.275 17.8857148,50.175 17.3607148,51.2 C17.3357148,51.25 17.1857148,51.55 17.0107148,51.775 C16.7357148,52.175 16.2107148,52.75 15.3857148,53.175 C13.9857148,53.875 12.6607148,53.95 11.2357148,54 L0.1857148,54 L0.1857148,36.35 Z M5.4607148,40.425 L5.4607148,43.025 L9.9857148,43.025 C10.4357148,43 11.2107148,43 11.6607148,42.5 C11.7607148,42.4 11.9607148,42.075 11.9607148,41.65 C11.9607148,41.3 11.8107148,41.075 11.6857148,40.95 C11.3357148,40.55 10.9607148,40.5 10.1607148,40.425 L5.4607148,40.425 Z M5.4607148,46.975 L5.4607148,49.95 L9.9107148,49.95 C10.8357148,49.9 11.3357148,49.9 11.7857148,49.65 C12.2607148,49.4 12.5107148,48.9 12.5107148,48.475 C12.5107148,47.65 11.9607148,47.3 11.5857148,47.15 C11.1607148,47 10.4607148,47 10.0357148,46.975 L5.4607148,46.975 Z M21.9428576,36.35 L38.2928576,36.35 L38.2928576,40.45 L27.2428576,40.45 L27.2428576,42.95 L37.8178576,42.95 L37.8178576,46.975 L27.2428576,46.975 L27.2428576,49.875 L38.6428576,49.875 L38.6428576,54 L21.9428576,54 L21.9428576,36.35 Z M46.9000004,36.35 L53.5250004,36.35 L60.3500004,54 L54.5500004,54 L53.3500004,50.425 L47.0500004,50.425 L45.8750004,54 L40.0500004,54 L46.9000004,36.35 Z M50.2250004,40.925 L48.3250004,46.625 L52.1000004,46.625 L50.2250004,40.925 Z M61.7071432,36.35 L67.0321432,36.35 L67.0321432,46.3 C67.0321432,46.525 67.0321432,46.725 67.0571432,46.95 C67.1571432,47.8 67.3821432,48.275 67.6321432,48.65 C67.8071432,48.95 67.9821432,49.075 68.1321432,49.225 C68.2571432,49.325 68.4071432,49.45 68.6571432,49.6 C68.9071432,49.725 69.2321432,49.825 69.2821432,49.85 C69.6571432,49.975 70.1321432,50.125 70.9571432,50.125 C72.2321432,50.125 73.0321432,49.75 73.5821432,49.275 C73.7821432,49.1 74.1821432,48.7 74.4071432,48.1 C74.6321432,47.55 74.6821432,47.05 74.7321432,45.975 L74.7321432,36.35 L80.0321432,36.35 L80.0321432,47.175 C80.0071432,47.65 79.9571432,48.125 79.9071432,48.575 C79.6321432,50.475 78.9571432,51.525 78.0071432,52.4 C76.6571432,53.6 74.6821432,54.3 71.5821432,54.45 C71.2821432,54.45 70.9571432,54.475 70.6571432,54.475 C70.3071432,54.475 66.3071432,54.575 63.9071432,52.475 C63.3571432,52 62.9571432,51.5 62.8071432,51.275 C62.6071432,51 62.3821432,50.6 62.1821432,49.95 C61.8321432,49 61.7321432,48.325 61.7071432,46.475 L61.7071432,36.35 Z M82.389286,36.35 L98.614286,36.35 L98.614286,40.45 L93.164286,40.45 L93.164286,54 L87.839286,54 L87.839286,40.45 L82.389286,40.45 L82.389286,36.35 Z M99.9714288,36.35 L106.096429,36.35 C106.346429,36.7 106.546429,37.025 106.796429,37.375 C106.996429,37.65 107.171429,37.925 107.346429,38.175 L107.721429,38.775 L108.021429,39.15 C108.146429,39.35 108.271429,39.575 108.421429,39.775 C108.596429,40.05 108.796429,40.3 108.946429,40.55 C109.146429,40.825 109.346429,41.125 109.546429,41.45 C110.021429,42.2 110.046429,42.15 110.171429,42.65 C110.321429,42.175 110.396429,42.1 110.696429,41.625 C111.046429,41.075 111.396429,40.55 111.746429,40 C112.246429,39.25 112.721429,38.55 113.196429,37.8 C113.521429,37.325 113.871429,36.825 114.171429,36.35 L120.296429,36.35 L112.796429,47.325 L112.796429,54 L107.471429,54 L107.471429,47.25 L99.9714288,36.35 Z M143.660714,44.8 L147.985714,44.825 C147.785714,46.2 147.585714,47.325 146.885714,48.7 C146.685714,49.1 146.535714,49.35 146.185714,49.775 C146.710714,50.075 146.985714,50.25 147.910714,50.25 C148.160714,50.25 148.385714,50.275 148.860714,50.1 L148.860714,54.05 C148.060714,54.2 147.260714,54.325 146.460714,54.325 C146.060714,54.325 144.535714,54.35 143.210714,53.375 C143.010714,53.2 142.785714,53 142.585714,52.8 C142.360714,52.95 142.135714,53.075 141.885714,53.2 C141.560714,53.375 141.260714,53.5 140.935714,53.65 C140.685714,53.725 140.460714,53.825 140.210714,53.9 C139.710714,54.075 138.485714,54.325 137.035714,54.325 C136.560714,54.325 135.285714,54.325 133.885714,53.825 C133.560714,53.7 133.210714,53.55 132.885714,53.375 C132.685714,53.25 132.485714,53.1 132.310714,52.95 C132.160714,52.825 131.985714,52.725 131.835714,52.55 C130.410714,51.075 130.410714,49.125 130.410714,48.775 C130.410714,48.2 130.435714,47.05 131.560714,45.65 C131.660714,45.5 131.960714,45.1 132.460714,44.7 C132.960714,44.25 133.560714,43.875 134.060714,43.575 C133.535714,42.95 132.560714,41.75 132.560714,40.125 C132.560714,39.825 132.560714,38.775 133.385714,37.825 C134.610714,36.375 136.660714,36.125 137.985714,36.125 C138.235714,36.125 138.760714,36.125 139.460714,36.3 C141.460714,36.75 142.760714,38.125 142.760714,40.025 C142.760714,40.475 142.760714,41.65 141.535714,43 C141.385714,43.175 141.285714,43.3 141.135714,43.425 C140.885714,43.675 140.535714,43.925 140.285714,44.15 C140.485714,44.375 140.710714,44.625 140.935714,44.85 C141.135714,45.1 141.335714,45.325 141.535714,45.55 C141.735714,45.75 141.910714,45.95 142.110714,46.15 C142.410714,46.475 142.660714,46.8 143.010714,47.15 C143.410714,46.45 143.535714,46.075 143.660714,44.8 Z M137.710714,41.775 C137.785714,41.7 137.910714,41.6 137.985714,41.575 C138.060714,41.525 138.135714,41.475 138.235714,41.425 C138.435714,41.275 138.985714,40.825 138.985714,40.15 C138.985714,40.125 138.960714,39.85 138.860714,39.675 C138.685714,39.35 138.360714,39.125 137.785714,39.125 C137.710714,39.125 137.610714,39.125 137.460714,39.175 C137.210714,39.25 136.685714,39.575 136.685714,40.2 C136.685714,40.775 137.210714,41.3 137.710714,41.775 Z M136.460714,46.4 C135.460714,47.05 134.935714,47.75 134.935714,48.65 C134.935714,48.75 134.935714,48.875 134.985714,49.075 C135.110714,49.6 135.510714,50.025 135.635714,50.125 C135.985714,50.425 136.635714,50.7 137.535714,50.7 C138.610714,50.7 139.360714,50.325 139.760714,50.075 C139.360714,49.625 138.960714,49.175 138.560714,48.7 C138.360714,48.475 138.185714,48.275 137.985714,48.075 C137.910714,48 137.810714,47.9 137.735714,47.8 C137.635714,47.7 137.535714,47.575 137.435714,47.475 C137.310714,47.325 137.185714,47.2 137.035714,47.05 C136.835714,46.8 136.635714,46.575 136.460714,46.4 Z M160.15,36.35 L165.5,36.35 L165.5,49.875 L175.45,49.875 L175.45,54 L160.15,54 L160.15,36.35 Z M178.232143,36.35 L183.557143,36.35 L183.557143,54 L178.232143,54 L178.232143,36.35 Z M187.989286,36.35 L203.739286,36.35 L203.739286,40.425 L193.289286,40.425 L193.289286,43.35 L202.864286,43.35 L202.864286,47.325 L193.314286,47.325 L193.314286,54 L187.989286,54 L187.989286,36.35 Z M206.571428,36.35 L222.921428,36.35 L222.921428,40.45 L211.871428,40.45 L211.871428,42.95 L222.446428,42.95 L222.446428,46.975 L211.871428,46.975 L211.871428,49.875 L223.271428,49.875 L223.271428,54 L206.571428,54 L206.571428,36.35 Z M242.828571,41.35 L237.453571,41.7 C237.378571,41.4 237.303571,41.2 237.053571,40.9 C236.878571,40.7 236.853571,40.675 236.753571,40.6 C236.678571,40.55 236.603571,40.525 236.528571,40.45 C236.403571,40.4 236.278571,40.325 236.178571,40.275 C235.853571,40.125 235.028571,39.925 234.103571,39.925 C232.728571,39.925 231.403571,40.325 231.403571,41.25 C231.403571,41.375 231.403571,41.625 231.703571,41.875 C232.128571,42.225 233.203571,42.375 233.603571,42.45 L235.853571,42.75 C236.553571,42.85 237.253571,42.95 237.928571,43.1 C239.678571,43.5 240.603571,44 241.403571,44.65 C241.678571,44.9 241.878571,45.1 241.953571,45.175 C242.778571,46.125 243.028571,47.425 243.028571,48.475 C243.028571,48.8 243.003571,50.325 242.128571,51.6 C241.953571,51.875 241.528571,52.375 240.903571,52.85 C239.578571,53.85 237.678571,54.5 234.653571,54.5 C234.053571,54.5 231.578571,54.525 229.378571,53.6 C229.028571,53.45 228.653571,53.275 228.328571,53.05 C228.078571,52.9 227.853571,52.725 227.653571,52.575 C227.578571,52.5 227.503571,52.45 227.428571,52.4 C227.328571,52.325 227.228571,52.2 227.128571,52.1 C226.903571,51.85 226.753571,51.725 226.428571,51.225 C226.128571,50.775 225.778571,50.125 225.503571,49.05 C225.453571,48.875 225.453571,48.725 225.403571,48.55 C225.378571,48.45 225.353571,48.35 225.303571,48.25 L230.653571,47.925 C230.728571,48.125 230.878571,48.675 231.328571,49.175 C232.528571,50.45 234.778571,50.35 234.828571,50.35 C235.403571,50.35 236.328571,50.275 236.903571,49.95 C237.503571,49.625 237.578571,49.15 237.578571,48.925 C237.578571,48.875 237.553571,48.625 237.378571,48.375 C237.078571,47.925 236.428571,47.725 235.478571,47.55 C234.753571,47.425 234.028571,47.3 233.303571,47.2 C231.553571,46.925 228.828571,46.575 227.253571,45.125 C226.428571,44.375 225.853571,43.4 225.853571,41.7 C225.853571,41.325 225.878571,40.95 225.928571,40.575 C225.978571,40.175 226.178571,39.3 226.978571,38.35 C227.778571,37.375 228.978571,36.85 229.203571,36.75 C230.403571,36.225 231.878571,35.85 234.503571,35.85 C234.953571,35.85 237.978571,35.75 240.253571,37.325 C240.353571,37.375 240.678571,37.625 241.003571,37.925 C241.328571,38.25 241.928571,38.85 242.403571,39.9 C242.603571,40.375 242.728571,40.875 242.828571,41.35 Z M244.285714,36.35 L260.510714,36.35 L260.510714,40.45 L255.060714,40.45 L255.060714,54 L249.735714,54 L249.735714,40.45 L244.285714,40.45 L244.285714,36.35 Z M261.867857,36.35 L267.992857,36.35 C268.242857,36.7 268.442857,37.025 268.692857,37.375 C268.892857,37.65 269.067857,37.925 269.242857,38.175 L269.617857,38.775 L269.917857,39.15 C270.042857,39.35 270.167857,39.575 270.317857,39.775 C270.492857,40.05 270.692857,40.3 270.842857,40.55 C271.042857,40.825 271.242857,41.125 271.442857,41.45 C271.917857,42.2 271.942857,42.15 272.067857,42.65 C272.217857,42.175 272.292857,42.1 272.592857,41.625 C272.942857,41.075 273.292857,40.55 273.642857,40 C274.142857,39.25 274.617857,38.55 275.092857,37.8 C275.417857,37.325 275.767857,36.825 276.067857,36.35 L282.192857,36.35 L274.692857,47.325 L274.692857,54 L269.367857,54 L269.367857,47.25 L261.867857,36.35 Z M284.025,36.35 L289.375,36.35 L289.375,49.875 L299.325,49.875 L299.325,54 L284.025,54 L284.025,36.35 Z M302.132142,36.35 L318.482142,36.35 L318.482142,40.45 L307.432142,40.45 L307.432142,42.95 L318.007142,42.95 L318.007142,46.975 L307.432142,46.975 L307.432142,49.875 L318.832142,49.875 L318.832142,54 L302.132142,54 L302.132142,36.35 Z M109.2375,77 L103.6375,77.375 C103.5875,77.2 103.5125,77.025 103.4125,76.825 C103.2875,76.625 102.9625,76.175 102.5125,75.875 C102.0625,75.55 101.0875,75.15 99.8625002,75.15 C99.5625002,75.15 98.1625002,75.175 96.9875002,76.025 C96.5625002,76.325 96.2875002,76.625 96.1625002,76.8 C95.9625002,77.025 95.8125002,77.25 95.5875002,77.7 C95.5125002,77.85 95.4375002,78 95.3875002,78.175 C95.2625002,78.475 95.0625002,79.275 95.0625002,80.175 C95.0625002,80.525 95.1125002,81.975 95.9625002,83.25 C96.2875002,83.75 96.7625002,84.15 96.9625002,84.3 C97.1875002,84.45 97.6125002,84.7 98.1875002,84.9 C99.0125002,85.15 99.6375002,85.15 99.9625002,85.15 C100.2125,85.15 102.0625,85.2 103.2625,83.825 C103.5625,83.475 103.6625,83.275 103.7625,83.1 C103.8375,82.95 103.8875,82.775 103.9375,82.625 L109.6625,82.875 C109.6125,83.05 109.3625,83.9 108.9875,84.625 C108.1625,86.3 106.6125,87.575 105.1125,88.35 C104.0625,88.875 102.4875,89.475 100.0375,89.475 C99.4375002,89.475 96.6625002,89.55 94.2875002,88.3 C93.6375002,87.95 92.7625002,87.275 92.7125002,87.2 C92.1625002,86.775 91.2625002,85.825 90.6375002,84.475 C90.2375002,83.675 89.6875002,82.15 89.6875002,80.075 C89.6875002,79.4 89.7125002,77.925 90.5375002,76.15 C90.8875002,75.375 91.1625002,74.975 91.4125002,74.625 C91.6875002,74.275 91.8625002,74.05 92.4875002,73.45 C93.6625002,72.35 94.6125002,71.975 95.0875002,71.75 C96.0875002,71.35 97.7625002,70.825 100.1375,70.825 C100.8125,70.825 101.5125,70.875 102.1875,71 C102.7875,71.1 105.9875,71.65 107.9875,74.225 C108.5625,75 108.9125,75.9 109.0125,76.15 C109.1125,76.425 109.1875,76.725 109.2375,77 Z M111.919643,71.35 L117.244643,71.35 L117.244643,81.3 C117.244643,81.525 117.244643,81.725 117.269643,81.95 C117.369643,82.8 117.594643,83.275 117.844643,83.65 C118.019643,83.95 118.194643,84.075 118.344643,84.225 C118.469643,84.325 118.619643,84.45 118.869643,84.6 C119.119643,84.725 119.444643,84.825 119.494643,84.85 C119.869643,84.975 120.344643,85.125 121.169643,85.125 C122.444643,85.125 123.244643,84.75 123.794643,84.275 C123.994643,84.1 124.394643,83.7 124.619643,83.1 C124.844643,82.55 124.894643,82.05 124.944643,80.975 L124.944643,71.35 L130.244643,71.35 L130.244643,82.175 C130.219643,82.65 130.169643,83.125 130.119643,83.575 C129.844643,85.475 129.169643,86.525 128.219643,87.4 C126.869643,88.6 124.894643,89.3 121.794643,89.45 C121.494643,89.45 121.169643,89.475 120.869643,89.475 C120.519643,89.475 116.519643,89.575 114.119643,87.475 C113.569643,87 113.169643,86.5 113.019643,86.275 C112.819643,86 112.594643,85.6 112.394643,84.95 C112.044643,84 111.944643,83.325 111.919643,81.475 L111.919643,71.35 Z M134.651786,71.35 L144.326786,71.35 C145.101786,71.35 145.876786,71.375 146.626786,71.425 C147.026786,71.45 148.426786,71.525 149.751786,72.3 C150.776786,72.9 151.826786,74.2 151.826786,76.275 C151.826786,76.525 151.851786,78.175 150.951786,79.4 C150.301786,80.225 149.401786,80.75 149.251786,80.85 C149.626786,81.075 150.176786,81.3 150.601786,82.15 C150.701786,82.325 150.751786,82.5 150.826786,82.7 C150.901786,82.925 150.976786,83.175 151.026786,83.4 C151.151786,83.925 151.176786,84.45 151.251786,84.975 C151.576786,87.075 151.901786,87.875 152.426786,89 L146.876786,89 C146.626786,88.425 146.351786,87.775 146.151786,86.55 C146.051786,85.925 146.001786,85.325 145.826786,84.725 C145.726786,84.425 145.676786,84.25 145.601786,84.125 C145.276786,83.55 144.601786,83.35 144.451786,83.3 C144.101786,83.225 143.601786,83.225 143.526786,83.2 L139.951786,83.2 L139.951786,89 L134.651786,89 L134.651786,71.35 Z M139.951786,75.45 L139.951786,79.225 L143.676786,79.225 C144.701786,79.175 145.276786,79.175 145.726786,78.875 C146.176786,78.6 146.551786,78.15 146.551786,77.325 C146.551786,77.2 146.551786,76.925 146.451786,76.625 C146.126786,75.625 145.251786,75.5 144.526786,75.45 L139.951786,75.45 Z M160.683929,71.35 L167.308929,71.35 L174.133929,89 L168.333929,89 L167.133929,85.425 L160.833929,85.425 L159.658929,89 L153.833929,89 L160.683929,71.35 Z M164.008929,75.925 L162.108929,81.625 L165.883929,81.625 L164.008929,75.925 Z M171.866071,71.35 L188.091071,71.35 L188.091071,75.45 L182.641071,75.45 L182.641071,89 L177.316071,89 L177.316071,75.45 L171.866071,75.45 L171.866071,71.35 Z M198.298214,70.825 C201.948214,70.725 204.348214,71.975 205.898214,73.375 C206.198214,73.65 206.498214,73.95 206.723214,74.25 C206.948214,74.5 207.123214,74.775 207.323214,75.075 C207.473214,75.3 207.623214,75.55 207.748214,75.775 C208.173214,76.55 208.773214,78.175 208.773214,80.2 C208.773214,80.85 208.773214,83.725 206.573214,86.225 C206.398214,86.4 206.023214,86.825 205.523214,87.225 C204.898214,87.75 203.473214,88.675 201.773214,89.1 C201.223214,89.25 200.048214,89.475 198.598214,89.475 C195.898214,89.475 194.323214,88.875 193.073214,88.2 C191.723214,87.45 191.223214,86.925 190.673214,86.35 C190.548214,86.2 190.398214,86.025 190.273214,85.85 C189.923214,85.425 189.673214,85.15 189.273214,84.275 C188.873214,83.475 188.348214,82.1 188.348214,80.075 C188.348214,79.425 188.398214,77.4 189.623214,75.375 C189.798214,75.05 189.948214,74.85 190.423214,74.275 C191.473214,73.025 192.398214,72.475 193.023214,72.15 C195.298214,70.925 197.548214,70.85 198.298214,70.825 Z M198.548214,75.125 C198.348214,75.125 196.098214,75.15 194.748214,76.85 C194.298214,77.45 193.723214,78.625 193.723214,80.175 C193.723214,80.825 193.923214,81.85 194.198214,82.5 C194.373214,82.875 194.673214,83.35 194.873214,83.6 C196.148214,85.15 198.323214,85.175 198.548214,85.175 C198.823214,85.175 200.048214,85.125 201.073214,84.575 C201.448214,84.375 201.748214,84.1 201.848214,84.025 C202.523214,83.375 202.748214,82.9 202.923214,82.525 C203.148214,82 203.398214,81.275 203.398214,80.125 C203.398214,79.75 203.373214,78.375 202.548214,77.1 C202.423214,76.925 202.223214,76.6 201.798214,76.225 C201.498214,75.975 201.048214,75.675 200.673214,75.525 C200.473214,75.45 200.148214,75.325 199.673214,75.225 C199.298214,75.175 198.923214,75.125 198.548214,75.125 Z M211.605357,71.35 L221.280357,71.35 C222.055357,71.35 222.830357,71.375 223.580357,71.425 C223.980357,71.45 225.380357,71.525 226.705357,72.3 C227.730357,72.9 228.780357,74.2 228.780357,76.275 C228.780357,76.525 228.805357,78.175 227.905357,79.4 C227.255357,80.225 226.355357,80.75 226.205357,80.85 C226.580357,81.075 227.130357,81.3 227.555357,82.15 C227.655357,82.325 227.705357,82.5 227.780357,82.7 C227.855357,82.925 227.930357,83.175 227.980357,83.4 C228.105357,83.925 228.130357,84.45 228.205357,84.975 C228.530357,87.075 228.855357,87.875 229.380357,89 L223.830357,89 C223.580357,88.425 223.305357,87.775 223.105357,86.55 C223.005357,85.925 222.955357,85.325 222.780357,84.725 C222.680357,84.425 222.630357,84.25 222.555357,84.125 C222.230357,83.55 221.555357,83.35 221.405357,83.3 C221.055357,83.225 220.555357,83.225 220.480357,83.2 L216.905357,83.2 L216.905357,89 L211.605357,89 L211.605357,71.35 Z M216.905357,75.45 L216.905357,79.225 L220.630357,79.225 C221.655357,79.175 222.230357,79.175 222.680357,78.875 C223.130357,78.6 223.505357,78.15 223.505357,77.325 C223.505357,77.2 223.505357,76.925 223.405357,76.625 C223.080357,75.625 222.205357,75.5 221.480357,75.45 L216.905357,75.45 Z" id="JAPANESE-BEAUTY-&amp;-LI-Copy" fill="#1D1E1C"></path>
    </g>
</svg>