<?xml version="1.0" encoding="UTF-8"?>
<svg width="994px" height="30px" viewBox="0 0 994 30" version="1.1" xmlns="http://www.w3.org/2000/svg" xmlns:xlink="http://www.w3.org/1999/xlink">
    <!-- Generator: Sketch 52.5 (67469) - http://www.bohemiancoding.com/sketch -->
    <title>JAPANESE BEAUTY &amp; LI Copy</title>
    <desc>Created with Sketch.</desc>
    <g id="Page-1" stroke="none" stroke-width="1" fill="none" fill-rule="evenodd">
        <path d="M22.776,1.466 L22.776,19.913 C22.698,22.019 22.542,24.71 20.553,26.816 C18.759,28.727 15.834,29.741 11.544,29.741 C10.998,29.741 6.942,29.858 4.056,27.83 C3.861,27.713 3.393,27.362 2.808,26.738 C0.507,24.242 0.624,19.835 0.624,17.339 L8.541,17.183 C8.541,18.236 8.541,19.25 8.619,20.264 C8.775,21.473 9.048,22.097 9.633,22.565 C10.413,23.267 11.349,23.228 11.622,23.228 C11.973,23.228 13.572,23.189 14.196,21.473 C14.469,20.732 14.508,19.445 14.547,17.651 L14.547,1.466 L22.776,1.466 Z M34.7601429,1.466 L45.0951429,1.466 L55.7421429,29 L46.6941429,29 L44.8221429,23.423 L34.9941429,23.423 L33.1611429,29 L24.0741429,29 L34.7601429,1.466 Z M39.9471429,8.603 L36.9831429,17.495 L42.8721429,17.495 L39.9471429,8.603 Z M58.6392858,1.466 L74.6292858,1.466 C75.2142858,1.466 75.7602858,1.505 76.3452858,1.544 C76.8132858,1.583 80.3622858,1.661 82.9362858,3.845 C83.8722858,4.625 84.2232858,5.249 84.3792858,5.483 C84.6522858,5.873 84.8862858,6.302 85.0812858,6.731 C85.3932858,7.511 85.8222858,8.915 85.8222858,10.865 C85.8222858,12.308 85.5102858,14.102 84.7302858,15.506 C84.4962858,15.974 83.7162858,17.261 82.3512858,18.197 C79.6992858,19.991 76.0332858,19.913 73.4202858,19.913 L66.9462858,19.913 L66.9462858,29 L58.6392858,29 L58.6392858,1.466 Z M66.9072858,7.862 L66.9072858,13.712 L73.4982858,13.712 C74.7852858,13.634 76.8912858,13.595 77.4762858,11.645 C77.5152858,11.489 77.5932858,11.138 77.5932858,10.709 C77.5932858,10.397 77.5152858,9.968 77.3982858,9.617 C76.8132858,7.784 74.5902858,7.862 73.3812858,7.862 L66.9072858,7.862 Z M95.1934287,1.466 L105.528429,1.466 L116.175429,29 L107.127429,29 L105.255429,23.423 L95.4274287,23.423 L93.5944287,29 L84.5074287,29 L95.1934287,1.466 Z M100.380429,8.603 L97.4164287,17.495 L103.305429,17.495 L100.380429,8.603 Z M119.072572,1.466 L127.691572,1.466 C128.081572,1.934 128.393572,2.324 128.705572,2.753 C128.822572,2.909 128.978572,3.104 129.095572,3.26 C129.368572,3.611 129.641572,3.923 129.953572,4.313 C130.421572,4.898 130.850572,5.444 131.279572,5.99 C131.942572,6.809 132.566572,7.589 133.190572,8.369 C134.087572,9.461 134.984572,10.631 135.920572,11.801 C136.778572,12.854 137.597572,13.868 138.377572,14.921 C139.001572,15.74 139.703572,16.52 140.288572,17.495 L140.288572,1.466 L148.517572,1.466 L148.517572,29 L140.171572,29 C139.742572,28.493 139.352572,27.986 138.962572,27.479 C138.533572,26.933 138.065572,26.387 137.636572,25.802 C137.168572,25.256 136.739572,24.71 136.349572,24.203 C135.959572,23.735 135.608572,23.306 135.218572,22.838 C134.048572,21.395 132.956572,19.991 131.825572,18.548 C130.967572,17.495 130.070572,16.403 129.251572,15.35 C128.783572,14.804 128.354572,14.258 127.925572,13.673 C127.691572,13.322 127.457572,12.971 127.223572,12.659 C127.418572,13.517 127.379572,14.141 127.379572,14.531 L127.379572,29 L119.072572,29 L119.072572,1.466 Z M155.431715,1.466 L180.937714,1.466 L180.937714,7.862 L163.699714,7.862 L163.699714,11.762 L180.196714,11.762 L180.196714,18.041 L163.699714,18.041 L163.699714,22.565 L181.483715,22.565 L181.483715,29 L155.431715,29 L155.431715,1.466 Z M211.992857,9.266 L203.607857,9.812 C203.490857,9.344 203.373857,9.032 202.983857,8.564 C202.710857,8.252 202.671857,8.213 202.515857,8.096 C202.398857,8.018 202.281857,7.979 202.164857,7.862 C201.969857,7.784 201.774857,7.667 201.618857,7.589 C201.111857,7.355 199.824857,7.043 198.381857,7.043 C196.236857,7.043 194.169857,7.667 194.169857,9.11 C194.169857,9.305 194.169857,9.695 194.637857,10.085 C195.300857,10.631 196.977857,10.865 197.601857,10.982 L201.111857,11.45 C202.203857,11.606 203.295857,11.762 204.348857,11.996 C207.078857,12.62 208.521857,13.4 209.769857,14.414 C210.198857,14.804 210.510857,15.116 210.627857,15.233 C211.914857,16.715 212.304857,18.743 212.304857,20.381 C212.304857,20.888 212.265857,23.267 210.900857,25.256 C210.627857,25.685 209.964857,26.465 208.989857,27.206 C206.922857,28.766 203.958857,29.78 199.239857,29.78 C198.303857,29.78 194.442857,29.819 191.010857,28.376 C190.464857,28.142 189.879857,27.869 189.372857,27.518 C188.982857,27.284 188.631857,27.011 188.319857,26.777 C188.202857,26.66 188.085857,26.582 187.968857,26.504 C187.812857,26.387 187.656857,26.192 187.500857,26.036 C187.149857,25.646 186.915857,25.451 186.408857,24.671 C185.940857,23.969 185.394857,22.955 184.965857,21.278 C184.887857,21.005 184.887857,20.771 184.809857,20.498 C184.770857,20.342 184.731857,20.186 184.653857,20.03 L192.999857,19.523 C193.116857,19.835 193.350857,20.693 194.052857,21.473 C195.924857,23.462 199.434857,23.306 199.512857,23.306 C200.409857,23.306 201.852857,23.189 202.749857,22.682 C203.685857,22.175 203.802857,21.434 203.802857,21.083 C203.802857,21.005 203.763857,20.615 203.490857,20.225 C203.022857,19.523 202.008857,19.211 200.526857,18.938 C199.395857,18.743 198.264857,18.548 197.133857,18.392 C194.403857,17.963 190.152857,17.417 187.695857,15.155 C186.408857,13.985 185.511857,12.464 185.511857,9.812 C185.511857,9.227 185.550857,8.642 185.628857,8.057 C185.706857,7.433 186.018857,6.068 187.266857,4.586 C188.514857,3.065 190.386857,2.246 190.737857,2.09 C192.609857,1.271 194.910857,0.686 199.005857,0.686 C199.707857,0.686 204.426857,0.53 207.975857,2.987 C208.131857,3.065 208.638857,3.455 209.145857,3.923 C209.652857,4.43 210.588857,5.366 211.329857,7.004 C211.641857,7.745 211.836857,8.525 211.992857,9.266 Z M216.684,1.466 L242.19,1.466 L242.19,7.862 L224.952,7.862 L224.952,11.762 L241.449,11.762 L241.449,18.041 L224.952,18.041 L224.952,22.565 L242.736,22.565 L242.736,29 L216.684,29 L216.684,1.466 Z M260.776286,1.466 L276.337286,1.466 C278.131286,1.466 280.627286,1.505 282.421286,2.012 C284.371286,2.597 285.424286,3.494 286.087286,4.352 C286.633286,5.093 287.335286,6.302 287.335286,8.135 C287.335286,9.5 287.062286,10.865 286.126286,12.191 C286.087286,12.23 285.736286,12.698 285.463286,12.971 C285.229286,13.166 285.112286,13.283 284.683286,13.595 C284.332286,13.868 284.020286,14.141 283.357286,14.297 C283.513286,14.297 283.825286,14.375 283.825286,14.375 C283.981286,14.414 284.917286,14.804 285.580286,15.272 C287.023286,16.286 288.388286,18.002 288.388286,21.005 C288.388286,21.629 288.388286,23.033 287.569286,24.632 C287.530286,24.71 287.296286,25.178 287.023286,25.529 C286.594286,26.153 285.775286,27.05 284.488286,27.713 C282.304286,28.805 280.237286,28.922 278.014286,29 L260.776286,29 L260.776286,1.466 Z M269.005286,7.823 L269.005286,11.879 L276.064286,11.879 C276.766286,11.84 277.975286,11.84 278.677286,11.06 C278.833286,10.904 279.145286,10.397 279.145286,9.734 C279.145286,9.188 278.911286,8.837 278.716286,8.642 C278.170286,8.018 277.585286,7.94 276.337286,7.823 L269.005286,7.823 Z M269.005286,18.041 L269.005286,22.682 L275.947286,22.682 C277.390286,22.604 278.170286,22.604 278.872286,22.214 C279.613286,21.824 280.003286,21.044 280.003286,20.381 C280.003286,19.094 279.145286,18.548 278.560286,18.314 C277.897286,18.08 276.805286,18.08 276.142286,18.041 L269.005286,18.041 Z M294.717429,1.466 L320.223429,1.466 L320.223429,7.862 L302.985429,7.862 L302.985429,11.762 L319.482429,11.762 L319.482429,18.041 L302.985429,18.041 L302.985429,22.565 L320.769429,22.565 L320.769429,29 L294.717429,29 L294.717429,1.466 Z M333.650572,1.466 L343.985572,1.466 L354.632572,29 L345.584572,29 L343.712572,23.423 L333.884572,23.423 L332.051572,29 L322.964572,29 L333.650572,1.466 Z M338.837572,8.603 L335.873572,17.495 L341.762572,17.495 L338.837572,8.603 Z M356.749715,1.466 L365.056715,1.466 L365.056715,16.988 C365.056715,17.339 365.056715,17.651 365.095715,18.002 C365.251715,19.328 365.602715,20.069 365.992715,20.654 C366.265715,21.122 366.538715,21.317 366.772715,21.551 C366.967715,21.707 367.201715,21.902 367.591715,22.136 C367.981715,22.331 368.488715,22.487 368.566715,22.526 C369.151715,22.721 369.892715,22.955 371.179715,22.955 C373.168715,22.955 374.416715,22.37 375.274715,21.629 C375.586715,21.356 376.210715,20.732 376.561715,19.796 C376.912715,18.938 376.990715,18.158 377.068715,16.481 L377.068715,1.466 L385.336715,1.466 L385.336715,18.353 C385.297715,19.094 385.219715,19.835 385.141715,20.537 C384.712715,23.501 383.659715,25.139 382.177715,26.504 C380.071715,28.376 376.990715,29.468 372.154715,29.702 C371.686715,29.702 371.179715,29.741 370.711715,29.741 C370.165715,29.741 363.925715,29.897 360.181715,26.621 C359.323715,25.88 358.699715,25.1 358.465715,24.749 C358.153715,24.32 357.802715,23.696 357.490715,22.682 C356.944715,21.2 356.788715,20.147 356.749715,17.261 L356.749715,1.466 Z M389.013858,1.466 L414.324858,1.466 L414.324858,7.862 L405.822858,7.862 L405.822858,29 L397.515858,29 L397.515858,7.862 L389.013858,7.862 L389.013858,1.466 Z M416.442001,1.466 L425.997001,1.466 C426.387001,2.012 426.699001,2.519 427.089001,3.065 C427.401001,3.494 427.674001,3.923 427.947001,4.313 L428.532001,5.249 L429.000001,5.834 C429.195001,6.146 429.390001,6.497 429.624001,6.809 C429.897001,7.238 430.209001,7.628 430.443001,8.018 C430.755001,8.447 431.067001,8.915 431.379001,9.422 C432.120001,10.592 432.159001,10.514 432.354001,11.294 C432.588001,10.553 432.705001,10.436 433.173001,9.695 C433.719001,8.837 434.265001,8.018 434.811001,7.16 C435.591001,5.99 436.332001,4.898 437.073001,3.728 C437.580001,2.987 438.126001,2.207 438.594001,1.466 L448.149001,1.466 L436.449001,18.587 L436.449001,29 L428.142001,29 L428.142001,18.47 L416.442001,1.466 Z M484.597286,14.648 L491.344286,14.687 C491.032286,16.832 490.720286,18.587 489.628286,20.732 C489.316286,21.356 489.082286,21.746 488.536286,22.409 C489.355286,22.877 489.784286,23.15 491.227286,23.15 C491.617286,23.15 491.968286,23.189 492.709286,22.916 L492.709286,29.078 C491.461286,29.312 490.213286,29.507 488.965286,29.507 C488.341286,29.507 485.962286,29.546 483.895286,28.025 C483.583286,27.752 483.232286,27.44 482.920286,27.128 C482.569286,27.362 482.218286,27.557 481.828286,27.752 C481.321286,28.025 480.853286,28.22 480.346286,28.454 C479.956286,28.571 479.605286,28.727 479.215286,28.844 C478.435286,29.117 476.524286,29.507 474.262286,29.507 C473.521286,29.507 471.532286,29.507 469.348286,28.727 C468.841286,28.532 468.295286,28.298 467.788286,28.025 C467.476286,27.83 467.164286,27.596 466.891286,27.362 C466.657286,27.167 466.384286,27.011 466.150286,26.738 C463.927286,24.437 463.927286,21.395 463.927286,20.849 C463.927286,19.952 463.966286,18.158 465.721286,15.974 C465.877286,15.74 466.345286,15.116 467.125286,14.492 C467.905286,13.79 468.841286,13.205 469.621286,12.737 C468.802286,11.762 467.281286,9.89 467.281286,7.355 C467.281286,6.887 467.281286,5.249 468.568286,3.767 C470.479286,1.505 473.677286,1.115 475.744286,1.115 C476.134286,1.115 476.953286,1.115 478.045286,1.388 C481.165286,2.09 483.193286,4.235 483.193286,7.199 C483.193286,7.901 483.193286,9.734 481.282286,11.84 C481.048286,12.113 480.892286,12.308 480.658286,12.503 C480.268286,12.893 479.722286,13.283 479.332286,13.634 C479.644286,13.985 479.995286,14.375 480.346286,14.726 C480.658286,15.116 480.970286,15.467 481.282286,15.818 C481.594286,16.13 481.867286,16.442 482.179286,16.754 C482.647286,17.261 483.037286,17.768 483.583286,18.314 C484.207286,17.222 484.402286,16.637 484.597286,14.648 Z M475.315286,9.929 C475.432286,9.812 475.627286,9.656 475.744286,9.617 C475.861286,9.539 475.978286,9.461 476.134286,9.383 C476.446286,9.149 477.304286,8.447 477.304286,7.394 C477.304286,7.355 477.265286,6.926 477.109286,6.653 C476.836286,6.146 476.329286,5.795 475.432286,5.795 C475.315286,5.795 475.159286,5.795 474.925286,5.873 C474.535286,5.99 473.716286,6.497 473.716286,7.472 C473.716286,8.369 474.535286,9.188 475.315286,9.929 Z M473.365286,17.144 C471.805286,18.158 470.986286,19.25 470.986286,20.654 C470.986286,20.81 470.986286,21.005 471.064286,21.317 C471.259286,22.136 471.883286,22.799 472.078286,22.955 C472.624286,23.423 473.638286,23.852 475.042286,23.852 C476.719286,23.852 477.889286,23.267 478.513286,22.877 C477.889286,22.175 477.265286,21.473 476.641286,20.732 C476.329286,20.381 476.056286,20.069 475.744286,19.757 C475.627286,19.64 475.471286,19.484 475.354286,19.328 C475.198286,19.172 475.042286,18.977 474.886286,18.821 C474.691286,18.587 474.496286,18.392 474.262286,18.158 C473.950286,17.768 473.638286,17.417 473.365286,17.144 Z M510.320572,1.466 L518.666572,1.466 L518.666572,22.565 L534.188572,22.565 L534.188572,29 L510.320572,29 L510.320572,1.466 Z M538.528715,1.466 L546.835715,1.466 L546.835715,29 L538.528715,29 L538.528715,1.466 Z M553.749858,1.466 L578.319858,1.466 L578.319858,7.823 L562.017858,7.823 L562.017858,12.386 L576.954858,12.386 L576.954858,18.587 L562.056858,18.587 L562.056858,29 L553.749858,29 L553.749858,1.466 Z M582.738001,1.466 L608.244001,1.466 L608.244001,7.862 L591.006001,7.862 L591.006001,11.762 L607.503001,11.762 L607.503001,18.041 L591.006001,18.041 L591.006001,22.565 L608.790001,22.565 L608.790001,29 L582.738001,29 L582.738001,1.466 Z M639.299144,9.266 L630.914144,9.812 C630.797144,9.344 630.680144,9.032 630.290144,8.564 C630.017144,8.252 629.978144,8.213 629.822144,8.096 C629.705144,8.018 629.588144,7.979 629.471144,7.862 C629.276144,7.784 629.081144,7.667 628.925144,7.589 C628.418144,7.355 627.131144,7.043 625.688144,7.043 C623.543144,7.043 621.476144,7.667 621.476144,9.11 C621.476144,9.305 621.476144,9.695 621.944144,10.085 C622.607144,10.631 624.284144,10.865 624.908144,10.982 L628.418144,11.45 C629.510144,11.606 630.602144,11.762 631.655144,11.996 C634.385144,12.62 635.828144,13.4 637.076144,14.414 C637.505144,14.804 637.817144,15.116 637.934144,15.233 C639.221144,16.715 639.611144,18.743 639.611144,20.381 C639.611144,20.888 639.572144,23.267 638.207144,25.256 C637.934144,25.685 637.271144,26.465 636.296144,27.206 C634.229144,28.766 631.265144,29.78 626.546144,29.78 C625.610144,29.78 621.749144,29.819 618.317144,28.376 C617.771144,28.142 617.186144,27.869 616.679144,27.518 C616.289144,27.284 615.938144,27.011 615.626144,26.777 C615.509144,26.66 615.392144,26.582 615.275144,26.504 C615.119144,26.387 614.963144,26.192 614.807144,26.036 C614.456144,25.646 614.222144,25.451 613.715144,24.671 C613.247144,23.969 612.701144,22.955 612.272144,21.278 C612.194144,21.005 612.194144,20.771 612.116144,20.498 C612.077144,20.342 612.038144,20.186 611.960144,20.03 L620.306144,19.523 C620.423144,19.835 620.657144,20.693 621.359144,21.473 C623.231144,23.462 626.741144,23.306 626.819144,23.306 C627.716144,23.306 629.159144,23.189 630.056144,22.682 C630.992144,22.175 631.109144,21.434 631.109144,21.083 C631.109144,21.005 631.070144,20.615 630.797144,20.225 C630.329144,19.523 629.315144,19.211 627.833144,18.938 C626.702144,18.743 625.571144,18.548 624.440144,18.392 C621.710144,17.963 617.459144,17.417 615.002144,15.155 C613.715144,13.985 612.818144,12.464 612.818144,9.812 C612.818144,9.227 612.857144,8.642 612.935144,8.057 C613.013144,7.433 613.325144,6.068 614.573144,4.586 C615.821144,3.065 617.693144,2.246 618.044144,2.09 C619.916144,1.271 622.217144,0.686 626.312144,0.686 C627.014144,0.686 631.733144,0.53 635.282144,2.987 C635.438144,3.065 635.945144,3.455 636.452144,3.923 C636.959144,4.43 637.895144,5.366 638.636144,7.004 C638.948144,7.745 639.143144,8.525 639.299144,9.266 Z M641.572287,1.466 L666.883287,1.466 L666.883287,7.862 L658.381287,7.862 L658.381287,29 L650.074287,29 L650.074287,7.862 L641.572287,7.862 L641.572287,1.466 Z M669.00043,1.466 L678.55543,1.466 C678.94543,2.012 679.25743,2.519 679.64743,3.065 C679.95943,3.494 680.23243,3.923 680.50543,4.313 L681.09043,5.249 L681.55843,5.834 C681.75343,6.146 681.94843,6.497 682.18243,6.809 C682.45543,7.238 682.76743,7.628 683.00143,8.018 C683.31343,8.447 683.62543,8.915 683.93743,9.422 C684.67843,10.592 684.71743,10.514 684.91243,11.294 C685.14643,10.553 685.26343,10.436 685.73143,9.695 C686.27743,8.837 686.82343,8.018 687.36943,7.16 C688.14943,5.99 688.89043,4.898 689.63143,3.728 C690.13843,2.987 690.68443,2.207 691.15243,1.466 L700.70743,1.466 L689.00743,18.587 L689.00743,29 L680.70043,29 L680.70043,18.47 L669.00043,1.466 Z M703.565572,1.466 L711.911573,1.466 L711.911573,22.565 L727.433573,22.565 L727.433573,29 L703.565572,29 L703.565572,1.466 Z M731.812715,1.466 L757.318715,1.466 L757.318715,7.862 L740.080715,7.862 L740.080715,11.762 L756.577715,11.762 L756.577715,18.041 L740.080715,18.041 L740.080715,22.565 L757.864715,22.565 L757.864715,29 L731.812715,29 L731.812715,1.466 Z M805.662001,10.28 L796.926001,10.865 C796.848001,10.592 796.731001,10.319 796.575001,10.007 C796.380001,9.695 795.873001,8.993 795.171001,8.525 C794.469001,8.018 792.948001,7.394 791.037001,7.394 C790.569001,7.394 788.385001,7.433 786.552001,8.759 C785.889001,9.227 785.460001,9.695 785.265001,9.968 C784.953001,10.319 784.719001,10.67 784.368001,11.372 C784.251001,11.606 784.134001,11.84 784.056001,12.113 C783.861001,12.581 783.549001,13.829 783.549001,15.233 C783.549001,15.779 783.627001,18.041 784.953001,20.03 C785.460001,20.81 786.201001,21.434 786.513001,21.668 C786.864001,21.902 787.527001,22.292 788.424001,22.604 C789.711001,22.994 790.686001,22.994 791.193001,22.994 C791.583001,22.994 794.469001,23.072 796.341001,20.927 C796.809001,20.381 796.965001,20.069 797.121001,19.796 C797.238001,19.562 797.316001,19.289 797.394001,19.055 L806.325001,19.445 C806.247001,19.718 805.857001,21.044 805.272001,22.175 C803.985001,24.788 801.567001,26.777 799.227001,27.986 C797.589001,28.805 795.132001,29.741 791.310001,29.741 C790.374001,29.741 786.045001,29.858 782.340001,27.908 C781.326001,27.362 779.961001,26.309 779.883001,26.192 C779.025001,25.529 777.621001,24.047 776.646001,21.941 C776.022001,20.693 775.164001,18.314 775.164001,15.077 C775.164001,14.024 775.203001,11.723 776.490001,8.954 C777.036001,7.745 777.465001,7.121 777.855001,6.575 C778.284001,6.029 778.557001,5.678 779.532001,4.742 C781.365001,3.026 782.847001,2.441 783.588001,2.09 C785.148001,1.466 787.761001,0.647 791.466001,0.647 C792.519001,0.647 793.611001,0.725 794.664001,0.92 C795.600001,1.076 800.592001,1.934 803.712001,5.951 C804.609001,7.16 805.155001,8.564 805.311001,8.954 C805.467001,9.383 805.584001,9.851 805.662001,10.28 Z M809.846144,1.466 L818.153144,1.466 L818.153144,16.988 C818.153144,17.339 818.153144,17.651 818.192144,18.002 C818.348144,19.328 818.699144,20.069 819.089144,20.654 C819.362144,21.122 819.635144,21.317 819.869144,21.551 C820.064144,21.707 820.298144,21.902 820.688144,22.136 C821.078144,22.331 821.585144,22.487 821.663144,22.526 C822.248144,22.721 822.989144,22.955 824.276144,22.955 C826.265144,22.955 827.513144,22.37 828.371144,21.629 C828.683144,21.356 829.307144,20.732 829.658144,19.796 C830.009144,18.938 830.087144,18.158 830.165144,16.481 L830.165144,1.466 L838.433144,1.466 L838.433144,18.353 C838.394144,19.094 838.316144,19.835 838.238144,20.537 C837.809144,23.501 836.756144,25.139 835.274144,26.504 C833.168144,28.376 830.087144,29.468 825.251144,29.702 C824.783144,29.702 824.276144,29.741 823.808144,29.741 C823.262144,29.741 817.022144,29.897 813.278144,26.621 C812.420144,25.88 811.796144,25.1 811.562144,24.749 C811.250144,24.32 810.899144,23.696 810.587144,22.682 C810.041144,21.2 809.885144,20.147 809.846144,17.261 L809.846144,1.466 Z M845.308287,1.466 L860.401287,1.466 C861.610287,1.466 862.819287,1.505 863.989287,1.583 C864.613287,1.622 866.797287,1.739 868.864287,2.948 C870.463287,3.884 872.101287,5.912 872.101287,9.149 C872.101287,9.539 872.140287,12.113 870.736287,14.024 C869.722287,15.311 868.318287,16.13 868.084287,16.286 C868.669287,16.637 869.527287,16.988 870.190287,18.314 C870.346287,18.587 870.424287,18.86 870.541287,19.172 C870.658287,19.523 870.775287,19.913 870.853287,20.264 C871.048287,21.083 871.087287,21.902 871.204287,22.721 C871.711287,25.997 872.218287,27.245 873.037287,29 L864.379287,29 C863.989287,28.103 863.560287,27.089 863.248287,25.178 C863.092287,24.203 863.014287,23.267 862.741287,22.331 C862.585287,21.863 862.507287,21.59 862.390287,21.395 C861.883287,20.498 860.830287,20.186 860.596287,20.108 C860.050287,19.991 859.270287,19.991 859.153287,19.952 L853.576287,19.952 L853.576287,29 L845.308287,29 L845.308287,1.466 Z M853.576287,7.862 L853.576287,13.751 L859.387287,13.751 C860.986287,13.673 861.883287,13.673 862.585287,13.205 C863.287287,12.776 863.872287,12.074 863.872287,10.787 C863.872287,10.592 863.872287,10.163 863.716287,9.695 C863.209287,8.135 861.844287,7.94 860.713287,7.862 L853.576287,7.862 Z M885.91843,1.466 L896.25343,1.466 L906.90043,29 L897.85243,29 L895.98043,23.423 L886.15243,23.423 L884.31943,29 L875.23243,29 L885.91843,1.466 Z M891.10543,8.603 L888.14143,17.495 L894.03043,17.495 L891.10543,8.603 Z M903.362573,1.466 L928.673573,1.466 L928.673573,7.862 L920.171573,7.862 L920.171573,29 L911.864573,29 L911.864573,7.862 L903.362573,7.862 L903.362573,1.466 Z M944.596716,0.647 C950.290716,0.491 954.034716,2.441 956.452716,4.625 C956.920716,5.054 957.388716,5.522 957.739716,5.99 C958.090716,6.38 958.363716,6.809 958.675716,7.277 C958.909716,7.628 959.143716,8.018 959.338716,8.369 C960.001716,9.578 960.937716,12.113 960.937716,15.272 C960.937716,16.286 960.937716,20.771 957.505716,24.671 C957.232716,24.944 956.647716,25.607 955.867716,26.231 C954.892716,27.05 952.669716,28.493 950.017716,29.156 C949.159716,29.39 947.326716,29.741 945.064716,29.741 C940.852716,29.741 938.395716,28.805 936.445716,27.752 C934.339716,26.582 933.559716,25.763 932.701716,24.866 C932.506716,24.632 932.272716,24.359 932.077716,24.086 C931.531716,23.423 931.141716,22.994 930.517716,21.629 C929.893716,20.381 929.074716,18.236 929.074716,15.077 C929.074716,14.063 929.152716,10.904 931.063716,7.745 C931.336716,7.238 931.570716,6.926 932.311716,6.029 C933.949716,4.079 935.392716,3.221 936.367716,2.714 C939.916716,0.803 943.426716,0.686 944.596716,0.647 Z M944.986716,7.355 C944.674716,7.355 941.164716,7.394 939.058716,10.046 C938.356716,10.982 937.459716,12.815 937.459716,15.233 C937.459716,16.247 937.771716,17.846 938.200716,18.86 C938.473716,19.445 938.941716,20.186 939.253716,20.576 C941.242716,22.994 944.635716,23.033 944.986716,23.033 C945.415716,23.033 947.326716,22.955 948.925716,22.097 C949.510716,21.785 949.978716,21.356 950.134716,21.239 C951.187716,20.225 951.538716,19.484 951.811716,18.899 C952.162716,18.08 952.552716,16.949 952.552716,15.155 C952.552716,14.57 952.513716,12.425 951.226716,10.436 C951.031716,10.163 950.719716,9.656 950.056716,9.071 C949.588716,8.681 948.886716,8.213 948.301716,7.979 C947.989716,7.862 947.482716,7.667 946.741716,7.511 C946.156716,7.433 945.571716,7.355 944.986716,7.355 Z M965.355859,1.466 L980.448859,1.466 C981.657859,1.466 982.866859,1.505 984.036859,1.583 C984.660859,1.622 986.844859,1.739 988.911859,2.948 C990.510859,3.884 992.148859,5.912 992.148859,9.149 C992.148859,9.539 992.187859,12.113 990.783859,14.024 C989.769859,15.311 988.365859,16.13 988.131859,16.286 C988.716859,16.637 989.574859,16.988 990.237859,18.314 C990.393859,18.587 990.471859,18.86 990.588859,19.172 C990.705859,19.523 990.822859,19.913 990.900859,20.264 C991.095859,21.083 991.134859,21.902 991.251859,22.721 C991.758859,25.997 992.265859,27.245 993.084859,29 L984.426859,29 C984.036859,28.103 983.607859,27.089 983.295859,25.178 C983.139859,24.203 983.061859,23.267 982.788859,22.331 C982.632859,21.863 982.554859,21.59 982.437859,21.395 C981.930859,20.498 980.877859,20.186 980.643859,20.108 C980.097859,19.991 979.317859,19.991 979.200859,19.952 L973.623859,19.952 L973.623859,29 L965.355859,29 L965.355859,1.466 Z M973.623859,7.862 L973.623859,13.751 L979.434859,13.751 C981.033859,13.673 981.930859,13.673 982.632859,13.205 C983.334859,12.776 983.919859,12.074 983.919859,10.787 C983.919859,10.592 983.919859,10.163 983.763859,9.695 C983.256859,8.135 981.891859,7.94 980.760859,7.862 L973.623859,7.862 Z" id="JAPANESE-BEAUTY-&amp;-LI-Copy" fill="#1D1E1C"></path>
    </g>
</svg>