<?xml version="1.0" encoding="UTF-8"?>
<svg width="40px" height="26px" viewBox="0 0 40 26" version="1.1" xmlns="http://www.w3.org/2000/svg" xmlns:xlink="http://www.w3.org/1999/xlink">
    <!-- Generator: Sketch 52.5 (67469) - http://www.bohemiancoding.com/sketch -->
    <title>Group 7</title>
    <desc>Created with Sketch.</desc>
    <g id="Page-1" stroke="none" stroke-width="1" fill="none" fill-rule="evenodd">
        <g id="Osakakuma_mobile" transform="translate(-187.000000, -5001.000000)" fill="#00C4B3">
            <g id="Group-7" transform="translate(187.000000, 5001.000000)">
                <path d="M39.87211,23.6517697 C39.5944467,24.3476242 39.2811821,25.0356727 38.6563024,25.4730909 C38.3655808,25.6767455 37.9772646,25.8458303 37.6327973,25.8463879 C25.8387079,25.8653455 14.0446186,25.8653455 2.25052921,25.8465273 C1.90564948,25.8459697 1.4972646,25.6947273 1.22853608,25.4753212 C0.452591065,24.8416364 -0.00197938144,24.0242303 8.24742268e-05,22.9609333 C0.011766323,16.5004424 0.0058556701,10.0400909 0.0058556701,3.57973939 L0.0058556701,3.11569697 C0.731353952,3.67661818 1.39733333,4.18958788 2.06138832,4.70520606 C7.92008247,9.25335152 13.7798763,13.8002424 19.6319725,18.3571697 C19.8792577,18.5495333 20.0231753,18.5291818 20.2575395,18.3468545 C26.7490859,13.2961939 33.2469553,8.25333939 39.744,3.20964848 C39.7848247,3.17786667 39.8292234,3.15096364 39.87211,3.12169091 L39.87211,23.6517697 Z" id="Fill-1"></path>
                <path d="M20.0082333,14.8707818 C18.1456826,13.4678727 16.3058493,12.0829636 14.4672551,10.6968273 C10.4780812,7.68932727 6.48835652,4.68278182 2.50262464,1.67078182 C2.0592913,1.33573636 1.63165362,0.978190909 1.21558116,0.610281818 C0.987030435,0.408054545 1.03425507,0.229418182 1.32297246,0.131372727 C1.48020435,0.0779181818 1.65175507,0.0550090909 1.81862464,0.0431454545 C2.05158116,0.0265090909 2.28605217,0.0301909091 2.51997246,0.0301909091 C14.1642188,0.0296454545 25.8083275,0.0291 37.4524362,0.0329181818 C37.8141246,0.0330545455 38.1796681,0.0573272727 38.5352986,0.117872727 C38.6777986,0.142145455 38.8483855,0.2721 38.9075884,0.399054545 C38.9391174,0.466554545 38.7842261,0.661009091 38.6729797,0.746372727 C35.7893855,2.95955455 32.9097841,5.17819091 30.0099435,7.37050909 C26.6962333,9.87564545 23.3636609,12.3563727 20.0082333,14.8707818" id="Fill-4"></path>
            </g>
        </g>
    </g>
</svg>