<?xml version="1.0" encoding="UTF-8"?>
<svg width="40px" height="38px" viewBox="0 0 40 38" version="1.1" xmlns="http://www.w3.org/2000/svg" xmlns:xlink="http://www.w3.org/1999/xlink">
    <!-- Generator: Sketch 52.5 (67469) - http://www.bohemiancoding.com/sketch -->
    <title>Group 8</title>
    <desc>Created with Sketch.</desc>
    <g id="Page-1" stroke="none" stroke-width="1" fill="none" fill-rule="evenodd">
        <g id="osakakuma_website" transform="translate(-839.000000, -5301.000000)" fill="#00C4B3">
            <g id="Group-17" transform="translate(291.000000, 5086.000000)">
                <g id="Group-5" transform="translate(153.000000, 204.000000)">
                    <g id="Group-2" transform="translate(395.000000, 1.000000)">
                        <g id="Group-8" transform="translate(0.000000, 10.000000)">
                            <g id="Group-6">
                                <path d="M3.62754167,31.9099599 C5.19379167,31.50588 6.54629167,31.2232303 7.85066667,30.7968848 C8.71754167,30.5136165 9.308375,30.6754546 9.98816667,31.2669368 C13.7492083,34.5393652 18.182125,35.898393 23.10525,35.1613596 C32.3498333,33.7771799 38.1881667,26.1466678 37.2481667,16.9208648 C36.3400417,8.0067806 27.2335833,1.23060872 18.3100417,2.82899197 C7.26858333,4.80650933 1.40233333,15.6556413 5.86608333,25.8794803 C6.17275,26.5818783 6.155875,27.160166 5.78545833,27.8200944 C5.079625,29.0772776 4.43566667,30.3684776 3.62754167,31.9099599 M20.8867083,0.206183811 C31.049625,0.203503689 39.1681667,7.79958659 39.80525,18.2287641 C40.3650417,27.3939551 33.6035833,36.148469 23.70025,37.5959408 C18.30775,38.3841026 13.4475417,37.0578548 9.134625,33.7897559 C8.60525,33.3885623 8.15941667,33.2879546 7.53545833,33.4588639 C5.765875,33.9433474 3.98254167,34.3795888 2.20191667,34.8251074 C1.53045833,34.9931304 0.835666667,35.2300119 0.286083333,34.5509104 C-0.256833333,33.8804677 0.0812916667,33.2661013 0.410875,32.6445193 C1.31295833,30.943673 2.17920833,29.2234473 3.119,27.5432172 C3.44045833,26.9686404 3.42295833,26.5103396 3.18420833,25.9149403 C-1.755375,13.5966895 7.47108333,0.209688585 20.8867083,0.206183811" id="Fill-1"></path>
                                <path d="M24.8827292,30.2503668 C23.3068958,29.7407313 21.7902292,29.4395269 20.4512708,28.7828971 C15.8331458,26.5179883 12.3598125,23.0484679 10.0650208,18.4778299 C9.5791875,17.5098937 9.2910625,16.4256814 9.0398125,15.3653841 C8.59439583,13.4849696 9.08272917,11.8389627 10.5252292,10.4916862 C11.1300208,9.92659288 11.6689792,9.28996094 12.2946042,8.75001953 C13.3360625,7.85135417 14.4648125,7.86083767 15.4756458,8.77063585 C16.2191875,9.43984158 16.9348125,10.1440951 17.6121042,10.8786545 C18.5708542,11.9187478 18.5552292,13.0615104 17.6298125,14.1137674 C17.5387708,14.2172613 17.4377292,14.3120964 17.3406458,14.4100239 C15.7543958,16.0090256 15.6689792,16.4912413 16.8808542,18.3803147 C18.1552292,20.3671094 19.8300208,21.9156011 22.1127292,22.7381923 C22.8439792,23.0016688 23.4500208,22.9297179 23.9581458,22.2786545 C24.2312708,21.9287956 24.5783542,21.6302713 24.9168958,21.3366949 C25.9850208,20.4093728 27.1479375,20.3974154 28.1802292,21.3387565 C28.9191875,22.0129102 29.6352292,22.716339 30.3133542,23.4500738 C31.1460625,24.3514193 31.2566875,25.495625 30.5198125,26.3549132 C29.7156458,27.2925434 28.8987708,28.2734679 27.9018958,28.9789583 C27.0462708,29.5846658 25.9291875,29.8285569 24.8827292,30.2503668" id="Fill-4"></path>
                            </g>
                        </g>
                    </g>
                </g>
            </g>
        </g>
    </g>
</svg>