<?xml version="1.0" encoding="UTF-8"?>
<svg width="250px" height="25px" viewBox="0 0 250 25" version="1.1" xmlns="http://www.w3.org/2000/svg" xmlns:xlink="http://www.w3.org/1999/xlink">
    <!-- Generator: Sketch 52.5 (67469) - http://www.bohemiancoding.com/sketch -->
    <title>Group 23 Copy</title>
    <desc>Created with Sketch.</desc>
    <g id="Page-1" stroke="none" stroke-width="1" fill="none" fill-rule="evenodd">
        <g id="osakakuma_website" transform="translate(-81.000000, -5510.000000)" fill="#FFFFFF">
            <g id="Group-23-Copy" transform="translate(81.000000, 5510.000000)">
                <path d="M16.8299213,14.5616667 C16.8299213,16.8773529 14.8176181,18.7719608 12.3574803,18.7719608 C9.89783465,18.7719608 7.88503937,16.8773529 7.88503937,14.5616667 L7.88503937,10.5729412 C7.88503937,8.2572549 9.89783465,6.36264706 12.3574803,6.36264706 C14.8176181,6.36264706 16.8299213,8.2572549 16.8299213,10.5729412 L16.8299213,14.5616667 Z M12.3574803,0.490098039 C5.56072835,0.490098039 0.000196850394,5.72588235 0.000196850394,12.1239216 L0.000196850394,13.0101961 C0.000196850394,19.4092157 5.56072835,24.6445098 12.3574803,24.6445098 C19.1542323,24.6445098 24.7152559,19.4092157 24.7152559,13.0101961 L24.7152559,12.1239216 C24.7152559,5.72588235 19.1542323,0.490098039 12.3574803,0.490098039 Z" id="Fill-1"></path>
                <path d="M66.0048228,15.8187255 L68.3901575,8.76480392 L70.7754921,15.8187255 L66.0048228,15.8187255 Z M73.7597441,24.6442157 L81.9137795,24.6442157 L72.3749016,0.489803922 L64.4054134,0.489803922 L54.8665354,24.6442157 L63.0205709,24.6442157 L64.2769685,20.9280392 L72.5038386,20.9280392 L73.7597441,24.6442157 Z" id="Fill-4"></path>
                <path d="M121.106594,15.8187255 L123.491929,8.76480392 L125.877264,15.8187255 L121.106594,15.8187255 Z M128.861516,24.6442157 L137.015551,24.6442157 L127.476673,0.489803922 L119.507185,0.489803922 L109.968307,24.6442157 L118.122343,24.6442157 L119.378248,20.9280392 L127.605118,20.9280392 L128.861516,24.6442157 Z" id="Fill-7"></path>
                <path d="M234.021358,15.8187255 L236.406693,8.76480392 L238.79252,15.8187255 L234.021358,15.8187255 Z M241.77628,24.6442157 L249.930315,24.6442157 L240.391929,0.489803922 L232.421949,0.489803922 L222.883563,24.6442157 L231.037106,24.6442157 L232.293504,20.9280392 L240.520374,20.9280392 L241.77628,24.6442157 Z" id="Fill-10"></path>
                <polygon id="Fill-13" points="99.0096949 24.6444118 108.335974 24.6444118 99.44375 9.28313725 107.869931 0.490490196 98.0771161 0.490490196 91.0825295 8.7022549 91.0825295 0.490490196 83.6204232 0.490490196 83.6204232 24.6444118 91.0825295 24.6444118 91.0825295 18.0086275 94.5195374 14.4218627"></polygon>
                <polygon id="Fill-15" points="154.74439 24.6444118 164.070669 24.6444118 155.178445 9.28313725 163.604626 0.490490196 153.811319 0.490490196 146.816732 8.7022549 146.816732 0.490490196 139.355118 0.490490196 139.355118 24.6444118 146.816732 24.6444118 146.816732 18.0086275 150.254232 14.4218627"></polygon>
                <path d="M180.407776,0.490294118 L180.407776,14.7770588 C180.407776,16.6505882 178.882677,18.1697059 177.001772,18.1697059 C175.120374,18.1697059 173.595276,16.6505882 173.595276,14.7770588 L173.595276,0.490294118 L165.809843,0.490294118 L165.809843,13.4961765 C165.809843,19.6530392 170.820669,24.6442157 177.001772,24.6442157 C183.182382,24.6442157 188.193209,19.6530392 188.193209,13.4961765 L188.193209,0.490294118 L180.407776,0.490294118 Z" id="Fill-17"></path>
                <polygon id="Fill-19" points="209.454724 0.490294118 205.49065 14.5285294 201.527067 0.490294118 190.801673 0.490294118 190.801673 24.6442157 198.262795 24.6442157 198.262795 10.6226471 201.993602 24.6442157 208.988681 24.6442157 212.718996 10.6226471 212.718996 24.6442157 220.180118 24.6442157 220.180118 0.490294118"></polygon>
                <path d="M50.8096949,12.8387745 C49.9071358,11.9132843 48.6359744,11.2431863 45.9268209,10.6368137 C41.7127461,9.71230392 37.532628,9.16916667 36.3618602,8.27553922 C35.8938484,7.92455882 35.8269193,7.50985294 35.8269193,7.25495098 C35.8269193,7.03142157 35.8938484,6.52063725 36.3618602,6.17014706 C37.3653051,5.37210784 39.4051673,5.40397059 39.5390256,5.40397059 C41.6792815,5.40397059 42.8835138,5.9147549 43.4184547,6.77602941 C43.5222933,6.94906863 43.5710138,7.14318627 43.6413878,7.3402451 L51.3032972,5.94612745 L51.0931594,5.16181373 C50.8092028,4.1020098 50.1586122,3.17553922 49.2570374,2.54563725 L49.2378445,2.53240196 C48.5350886,2.02259804 47.7658957,1.63877451 46.9297736,1.38387255 C44.9568406,0.745637255 41.6458169,0.490245098 39.5724902,0.490245098 C33.5188484,0.490245098 30.2412894,2.05397059 28.7033957,4.4147549 C28.0341043,5.40397059 27.6664862,6.52063725 27.6664862,7.73338235 C27.6664862,8.30740196 27.7329232,9.58387255 28.6025098,10.8603431 C29.8067421,12.6152451 31.6458169,13.2853431 33.6527067,13.8279902 C35.4922736,14.3064216 37.3653051,14.5931863 39.2043799,14.9446569 C40.8436516,15.2314216 42.247687,15.4868137 42.8165846,15.7103431 C43.9204232,16.157402 44.1541831,16.8270098 44.1541831,17.3373039 C44.1541831,18.1353431 43.5188484,18.7730882 42.8165846,19.1245588 C42.0139272,19.507402 40.9440453,19.6029902 40.0744587,19.6029902 C37.8667815,19.6029902 36.6960138,19.1882843 35.8938484,18.6137745 C35.2742618,18.1882843 35.0124508,17.6946569 34.8963091,17.3382843 L27.2073327,19.6613235 L27.4952264,20.2221078 C27.7363681,20.6897549 28.0336122,21.1279902 28.3958169,21.5098529 C28.3972933,21.5123039 28.3997539,21.5147549 28.4022146,21.5172059 C30.1408957,23.400049 33.2845965,24.6441667 38.8367618,24.6441667 C45.2914862,24.6441667 48.8362697,23.3363235 50.8096949,20.975049 C51.8131398,19.7941667 52.3815453,18.2309314 52.3815453,16.6995588 C52.3815453,14.5931863 51.4120571,13.4127941 50.8096949,12.8387745" id="Fill-21"></path>
            </g>
        </g>
    </g>
</svg>