<?xml version="1.0" encoding="UTF-8"?>
<svg width="1434px" height="140px" viewBox="0 0 1434 140" version="1.1" xmlns="http://www.w3.org/2000/svg" xmlns:xlink="http://www.w3.org/1999/xlink">
    <!-- Generator: Sketch 52.5 (67469) - http://www.bohemiancoding.com/sketch -->
    <title>OSAKAKUMA Copy 2</title>
    <desc>Created with Sketch.</desc>
    <g id="Page-1" stroke="none" stroke-width="1" fill="none" fill-rule="evenodd" opacity="0.049999997">
        <path d="M74.719,0.051 C102.021,-0.697 119.973,8.653 131.567,19.125 C133.811,21.182 136.055,23.426 137.738,25.67 C139.421,27.54 140.73,29.597 142.226,31.841 C143.348,33.524 144.47,35.394 145.405,37.077 C148.584,42.874 153.072,55.029 153.072,70.176 C153.072,75.038 153.072,96.543 136.616,115.243 C135.307,116.552 132.502,119.731 128.762,122.723 C124.087,126.65 113.428,133.569 100.712,136.748 C96.598,137.87 87.809,139.553 76.963,139.553 C56.767,139.553 44.986,135.065 35.636,130.016 C25.538,124.406 21.798,120.479 17.684,116.178 C16.749,115.056 15.627,113.747 14.692,112.438 C12.074,109.259 10.204,107.202 7.212,100.657 C4.22,94.673 0.293,84.388 0.293,69.241 C0.293,64.379 0.667,49.232 9.83,34.085 C11.139,31.654 12.261,30.158 15.814,25.857 C23.668,16.507 30.587,12.393 35.262,9.962 C52.279,0.799 69.109,0.238 74.719,0.051 Z M76.589,32.215 C75.093,32.215 58.263,32.402 48.165,45.118 C44.799,49.606 40.498,58.395 40.498,69.989 C40.498,74.851 41.994,82.518 44.051,87.38 C45.36,90.185 47.604,93.738 49.1,95.608 C58.637,107.202 74.906,107.389 76.589,107.389 C78.646,107.389 87.809,107.015 95.476,102.901 C98.281,101.405 100.525,99.348 101.273,98.787 C106.322,93.925 108.005,90.372 109.314,87.567 C110.997,83.64 112.867,78.217 112.867,69.615 C112.867,66.81 112.68,56.525 106.509,46.988 C105.574,45.679 104.078,43.248 100.899,40.443 C98.655,38.573 95.289,36.329 92.484,35.207 C90.988,34.646 88.557,33.711 85.004,32.963 C82.199,32.589 79.394,32.215 76.589,32.215 Z M296.127,41.378 L255.922,43.996 C255.361,41.752 254.8,40.256 252.93,38.012 C251.621,36.516 251.434,36.329 250.686,35.768 C250.125,35.394 249.564,35.207 249.003,34.646 C248.068,34.272 247.133,33.711 246.385,33.337 C243.954,32.215 237.783,30.719 230.864,30.719 C220.579,30.719 210.668,33.711 210.668,40.63 C210.668,41.565 210.668,43.435 212.912,45.305 C216.091,47.923 224.132,49.045 227.124,49.606 L243.954,51.85 C249.19,52.598 254.426,53.346 259.475,54.468 C272.565,57.46 279.484,61.2 285.468,66.062 C287.525,67.932 289.021,69.428 289.582,69.989 C295.753,77.095 297.623,86.819 297.623,94.673 C297.623,97.104 297.436,108.511 290.891,118.048 C289.582,120.105 286.403,123.845 281.728,127.398 C271.817,134.878 257.605,139.74 234.978,139.74 C230.49,139.74 211.977,139.927 195.521,133.008 C192.903,131.886 190.098,130.577 187.667,128.894 C185.797,127.772 184.114,126.463 182.618,125.341 C182.057,124.78 181.496,124.406 180.935,124.032 C180.187,123.471 179.439,122.536 178.691,121.788 C177.008,119.918 175.886,118.983 173.455,115.243 C171.211,111.877 168.593,107.015 166.536,98.974 C166.162,97.665 166.162,96.543 165.788,95.234 C165.601,94.486 165.414,93.738 165.04,92.99 L205.058,90.559 C205.619,92.055 206.741,96.169 210.107,99.909 C219.083,109.446 235.913,108.698 236.287,108.698 C240.588,108.698 247.507,108.137 251.808,105.706 C256.296,103.275 256.857,99.722 256.857,98.039 C256.857,97.665 256.67,95.795 255.361,93.925 C253.117,90.559 248.255,89.063 241.149,87.754 C235.726,86.819 230.303,85.884 224.88,85.136 C211.79,83.079 191.407,80.461 179.626,69.615 C173.455,64.005 169.154,56.712 169.154,43.996 C169.154,41.191 169.341,38.386 169.715,35.581 C170.089,32.589 171.585,26.044 177.569,18.938 C183.553,11.645 192.529,7.718 194.212,6.97 C203.188,3.043 214.221,0.238 233.856,0.238 C237.222,0.238 259.849,-0.51 276.866,11.271 C277.614,11.645 280.045,13.515 282.476,15.759 C284.907,18.19 289.395,22.678 292.948,30.532 C294.444,34.085 295.379,37.825 296.127,41.378 Z M351.853,3.978 L401.408,3.978 L452.459,136 L409.075,136 L400.099,109.259 L352.975,109.259 L344.186,136 L300.615,136 L351.853,3.978 Z M376.724,38.199 L362.512,80.835 L390.749,80.835 L376.724,38.199 Z M463.866,3.978 L503.136,3.978 L503.136,52.411 C506.128,49.419 508.559,47.362 511.177,45.118 C513.421,43.061 516.226,40.443 518.844,38.199 C519.966,37.077 521.088,36.329 522.023,35.394 C523.519,33.898 525.015,32.589 526.324,31.467 C531.373,26.979 537.17,21.743 542.593,16.881 C547.268,12.58 552.13,8.653 556.805,3.978 L609.352,3.978 L545.585,59.517 C546.707,60.452 547.642,61.387 548.577,62.322 C550.073,64.005 551.382,65.688 553.065,67.558 C554.374,69.241 556.057,71.111 557.553,72.794 C564.098,80.274 570.269,87.567 576.627,94.86 C580.554,99.348 584.668,104.21 588.595,108.698 C590.839,111.316 593.27,114.308 595.514,116.926 C597.197,118.983 598.88,120.666 600.563,122.723 C602.994,125.341 605.051,127.959 607.482,130.764 C608.791,132.447 610.474,134.317 611.97,136 L562.976,136 C556.057,127.959 549.512,120.292 542.78,112.251 C541.471,110.755 540.349,109.446 539.04,107.95 C537.918,106.641 536.609,105.145 535.3,103.649 C533.991,102.34 532.869,100.844 531.56,99.535 C529.503,97.104 527.82,94.86 525.763,92.803 C524.828,91.681 523.893,90.372 522.771,89.25 C520.901,87.193 519.405,85.136 517.909,83.079 L503.323,96.169 L503.323,136 L463.866,136 L463.866,3.978 Z M663.395,3.978 L712.95,3.978 L764.001,136 L720.617,136 L711.641,109.259 L664.517,109.259 L655.728,136 L612.157,136 L663.395,3.978 Z M688.266,38.199 L674.054,80.835 L702.291,80.835 L688.266,38.199 Z M775.408,3.978 L814.678,3.978 L814.678,52.411 C817.67,49.419 820.101,47.362 822.719,45.118 C824.963,43.061 827.768,40.443 830.386,38.199 C831.508,37.077 832.63,36.329 833.565,35.394 C835.061,33.898 836.557,32.589 837.866,31.467 C842.915,26.979 848.712,21.743 854.135,16.881 C858.81,12.58 863.672,8.653 868.347,3.978 L920.894,3.978 L857.127,59.517 C858.249,60.452 859.184,61.387 860.119,62.322 C861.615,64.005 862.924,65.688 864.607,67.558 C865.916,69.241 867.599,71.111 869.095,72.794 C875.64,80.274 881.811,87.567 888.169,94.86 C892.096,99.348 896.21,104.21 900.137,108.698 C902.381,111.316 904.812,114.308 907.056,116.926 C908.739,118.983 910.422,120.666 912.105,122.723 C914.536,125.341 916.593,127.959 919.024,130.764 C920.333,132.447 922.016,134.317 923.512,136 L874.518,136 C867.599,127.959 861.054,120.292 854.322,112.251 C853.013,110.755 851.891,109.446 850.582,107.95 C849.46,106.641 848.151,105.145 846.842,103.649 C845.533,102.34 844.411,100.844 843.102,99.535 C841.045,97.104 839.362,94.86 837.305,92.803 C836.37,91.681 835.435,90.372 834.313,89.25 C832.443,87.193 830.947,85.136 829.451,83.079 L814.865,96.169 L814.865,136 L775.408,136 L775.408,3.978 Z M935.106,3.978 L974.937,3.978 L974.937,78.404 C974.937,80.087 974.937,81.583 975.124,83.266 C975.872,89.624 977.555,93.177 979.425,95.982 C980.734,98.226 982.043,99.161 983.165,100.283 C984.1,101.031 985.222,101.966 987.092,103.088 C988.962,104.023 991.393,104.771 991.767,104.958 C994.572,105.893 998.125,107.015 1004.296,107.015 C1013.833,107.015 1019.817,104.21 1023.931,100.657 C1025.427,99.348 1028.419,96.356 1030.102,91.868 C1031.785,87.754 1032.159,84.014 1032.533,75.973 L1032.533,3.978 L1072.177,3.978 L1072.177,84.949 C1071.99,88.502 1071.616,92.055 1071.242,95.421 C1069.185,109.633 1064.136,117.487 1057.03,124.032 C1046.932,133.008 1032.159,138.244 1008.971,139.366 C1006.727,139.366 1004.296,139.553 1002.052,139.553 C999.434,139.553 969.514,140.301 951.562,124.593 C947.448,121.04 944.456,117.3 943.334,115.617 C941.838,113.56 940.155,110.568 938.659,105.706 C936.041,98.6 935.293,93.551 935.106,79.713 L935.106,3.978 Z M1102.658,3.978 L1157.449,3.978 L1186.621,95.234 L1216.354,3.978 L1270.397,3.978 L1270.397,136 L1231.501,136 C1231.688,116.926 1231.875,98.039 1232.249,78.965 C1232.623,66.062 1232.997,52.972 1233.371,40.069 C1230.566,50.728 1227.761,61.574 1224.582,72.233 C1222.338,79.9 1219.72,87.754 1217.289,95.421 C1213.175,108.885 1209.248,122.349 1204.947,136 L1168.108,136 C1165.116,126.276 1162.124,116.739 1159.132,107.015 C1156.888,99.909 1154.457,92.803 1152.4,85.697 C1150.156,78.03 1148.099,70.55 1146.042,62.883 C1143.798,55.216 1141.554,47.549 1139.497,39.882 L1141.741,136 L1102.658,136 L1102.658,3.978 Z M1333.416,3.978 L1382.971,3.978 L1434.022,136 L1390.638,136 L1381.662,109.259 L1334.538,109.259 L1325.749,136 L1282.178,136 L1333.416,3.978 Z M1358.287,38.199 L1344.075,80.835 L1372.312,80.835 L1358.287,38.199 Z" id="OSAKAKUMA-Copy-2" fill="#9B9B9B"></path>
    </g>
</svg>