<?xml version="1.0" encoding="UTF-8"?>
<svg width="296px" height="40px" viewBox="0 0 296 40" version="1.1" xmlns="http://www.w3.org/2000/svg" xmlns:xlink="http://www.w3.org/1999/xlink">
    <!-- Generator: Sketch 52.5 (67469) - http://www.bohemiancoding.com/sketch -->
    <title>Membership Copy</title>
    <desc>Created with Sketch.</desc>
    <g id="Page-1" stroke="none" stroke-width="1" fill="none" fill-rule="evenodd">
        <path d="M0.148001,0 L13.040001,0 L19.904001,21.472 L26.900001,0 L39.616001,0 L39.616001,31.064 L30.464001,31.064 C30.508001,26.576 30.552001,22.132 30.640001,17.644 C30.728001,14.608 30.816001,11.528 30.904001,8.492 C30.244001,11 29.584001,13.552 28.836001,16.06 C28.308001,17.864 27.692001,19.712 27.120001,21.516 C26.152001,24.684 25.228001,27.852 24.216001,31.064 L15.548001,31.064 C14.844001,28.776 14.140001,26.532 13.436001,24.244 C12.908001,22.572 12.336001,20.9 11.852001,19.228 C11.324001,17.424 10.840001,15.664 10.356001,13.86 C9.828001,12.056 9.300001,10.252 8.816001,8.448 L9.344001,31.064 L0.148001,31.064 L0.148001,0 Z M70.249779,21.956 L51.593779,21.956 C51.637779,22.22 51.769779,22.748 52.165779,23.364 C53.177779,24.992 55.113779,25.52 56.477779,25.52 C57.709779,25.52 58.809779,25.124 59.293779,24.816 C59.909779,24.376 60.261779,23.848 60.393779,23.628 L69.809779,24.068 C69.633779,24.552 69.457779,25.036 69.149779,25.564 C68.005779,27.632 66.025779,29.128 65.365779,29.524 C62.417779,31.46 58.853779,31.768 55.861779,31.768 C54.981779,31.768 50.317779,31.768 46.753779,28.996 C46.093779,28.512 45.785779,28.248 45.433779,27.896 C42.353779,24.552 42.309779,20.24 42.309779,19.58 C42.309779,18.524 42.397779,16.588 43.717779,13.992 C43.805779,13.86 44.069779,13.332 44.421779,12.848 C44.685779,12.452 45.741779,11.264 46.005779,11.044 C47.325779,9.812 49.041779,9.02 49.305779,8.888 C51.505779,7.92 54.453779,7.524 56.653779,7.524 C57.313779,7.524 62.549779,7.436 66.333779,10.78 C67.433779,11.748 67.697779,12.144 68.005779,12.628 C68.225779,12.892 68.401779,13.2 68.577779,13.508 C69.017779,14.3 69.721779,15.928 70.029779,17.908 C70.249779,19.272 70.249779,20.592 70.249779,21.956 Z M51.813779,16.588 L60.921779,16.588 C60.877779,16.192 60.833779,15.972 60.657779,15.62 C59.557779,13.464 56.521779,13.596 56.433779,13.596 C56.389779,13.596 53.529779,13.508 52.209779,15.62 C52.077779,15.84 51.945779,16.104 51.813779,16.588 Z M114.523557,16.192 L114.523557,31.064 L105.591557,31.064 L105.591557,18.876 C105.547557,17.16 105.459557,16.412 104.887557,15.576 C104.403557,14.872 103.567557,14.388 102.159557,14.388 C100.971557,14.388 100.311557,14.784 99.739557,15.224 C98.551557,16.192 98.243557,17.16 98.111557,19.316 L98.111557,31.064 L89.135557,31.064 L89.135557,18.392 C89.135557,17.996 89.091557,17.644 89.047557,17.292 C88.871557,16.148 88.343557,14.388 85.747557,14.388 C85.351557,14.388 84.251557,14.388 83.151557,15.312 C82.975557,15.444 82.623557,15.752 82.315557,16.28 C81.655557,17.38 81.567557,18.832 81.567557,19.052 L81.567557,31.064 L72.635557,31.064 L72.635557,8.272 L81.523557,8.272 L81.523557,11.792 C81.787557,11.176 81.963557,11.044 82.447557,10.56 C83.811557,9.152 86.055557,7.7 89.707557,7.7 C90.103557,7.7 93.271557,7.612 95.515557,9.592 C96.395557,10.384 96.835557,11.176 97.011557,11.44 C97.099557,11.66 97.143557,11.704 97.231557,12.056 C97.539557,11.528 98.199557,10.648 99.343557,9.812 C100.751557,8.756 102.775557,7.7 106.207557,7.7 C106.779557,7.7 109.111557,7.7 111.179557,8.932 C111.355557,9.02 111.927557,9.416 112.411557,9.856 C112.587557,10.032 112.763557,10.252 112.895557,10.428 C112.983557,10.56 113.115557,10.648 113.203557,10.78 C113.335557,10.956 113.907557,12.1 114.127557,12.936 C114.391557,13.728 114.479557,14.564 114.523557,16.192 Z M118.141335,0 L127.117335,0 L127.117335,11.132 C127.601335,10.56 127.865335,10.252 128.525335,9.724 C129.933335,8.668 132.133335,7.524 135.521335,7.524 C139.041335,7.524 143.001335,8.932 145.113335,13.112 C145.729335,14.3 146.521335,16.544 146.521335,19.536 C146.521335,20.328 146.477335,23.056 145.245335,25.652 C145.069335,26.092 144.761335,26.532 144.497335,26.928 C144.365335,27.148 144.277335,27.324 144.145335,27.544 C143.749335,28.028 142.605335,29.304 141.285335,30.14 C140.537335,30.58 139.041335,31.328 137.149335,31.636 C136.401335,31.768 135.653335,31.768 134.861335,31.768 C134.069335,31.768 133.277335,31.724 132.485335,31.592 C130.021335,31.152 128.657335,30.14 127.733335,29.172 C127.381335,28.776 127.117335,28.38 127.029335,28.248 L127.073335,31.064 L118.141335,31.064 L118.141335,0 Z M132.001335,14.036 C131.473335,14.08 130.549335,14.124 129.405335,14.872 C129.317335,14.916 128.877335,15.224 128.569335,15.532 C127.777335,16.324 127.117335,17.732 127.117335,19.668 C127.117335,20.064 127.117335,20.416 127.161335,20.812 C127.381335,22.264 127.953335,23.144 128.437335,23.672 C128.437335,23.672 128.877335,24.156 129.229335,24.376 C129.757335,24.772 130.857335,25.3 132.221335,25.3 C132.485335,25.3 133.805335,25.256 134.905335,24.64 C135.345335,24.376 135.917335,23.848 136.005335,23.76 C136.973335,22.792 137.545335,21.604 137.545335,19.492 C137.545335,18.48 137.413335,17.776 136.973335,16.808 C136.885335,16.588 136.577335,15.972 136.005335,15.4 C135.697335,15.136 135.301335,14.872 134.949335,14.652 C134.245335,14.3 133.453335,13.948 132.001335,14.036 Z M175.659113,21.956 L157.003113,21.956 C157.047113,22.22 157.179113,22.748 157.575113,23.364 C158.587113,24.992 160.523113,25.52 161.887113,25.52 C163.119113,25.52 164.219113,25.124 164.703113,24.816 C165.319113,24.376 165.671113,23.848 165.803113,23.628 L175.219113,24.068 C175.043113,24.552 174.867113,25.036 174.559113,25.564 C173.415113,27.632 171.435113,29.128 170.775113,29.524 C167.827113,31.46 164.263113,31.768 161.271113,31.768 C160.391113,31.768 155.727113,31.768 152.163113,28.996 C151.503113,28.512 151.195113,28.248 150.843113,27.896 C147.763113,24.552 147.719113,20.24 147.719113,19.58 C147.719113,18.524 147.807113,16.588 149.127113,13.992 C149.215113,13.86 149.479113,13.332 149.831113,12.848 C150.095113,12.452 151.151113,11.264 151.415113,11.044 C152.735113,9.812 154.451113,9.02 154.715113,8.888 C156.915113,7.92 159.863113,7.524 162.063113,7.524 C162.723113,7.524 167.959113,7.436 171.743113,10.78 C172.843113,11.748 173.107113,12.144 173.415113,12.628 C173.635113,12.892 173.811113,13.2 173.987113,13.508 C174.427113,14.3 175.131113,15.928 175.439113,17.908 C175.659113,19.272 175.659113,20.592 175.659113,21.956 Z M157.223113,16.588 L166.331113,16.588 C166.287113,16.192 166.243113,15.972 166.067113,15.62 C164.967113,13.464 161.931113,13.596 161.843113,13.596 C161.799113,13.596 158.939113,13.508 157.619113,15.62 C157.487113,15.84 157.355113,16.104 157.223113,16.588 Z M178.044891,8.272 L186.844891,8.272 L186.844891,11.968 C187.152891,11.396 187.460891,10.824 187.812891,10.34 C188.956891,8.888 190.716891,7.92 193.620891,7.92 C194.412891,7.92 195.204891,8.052 195.996891,8.184 L195.996891,16.28 C194.588891,15.884 193.268891,15.84 192.784891,15.84 C192.608891,15.84 189.528891,15.708 187.988891,17.996 C187.064891,19.404 187.020891,21.428 187.020891,22.836 L187.020891,31.064 L178.044891,31.064 L178.044891,8.272 Z M221.922669,14.608 L213.386669,15.224 C213.078669,13.772 211.758669,13.2 209.382669,13.2 C208.238669,13.2 207.138669,13.42 206.742669,13.64 C206.346669,13.816 206.038669,14.212 206.038669,14.608 C206.038669,15.312 206.698669,15.576 207.754669,15.796 C208.634669,15.884 209.470669,16.016 210.350669,16.104 C212.506669,16.368 215.982669,16.72 218.138669,17.6 C218.446669,17.732 219.062669,17.996 219.810669,18.524 C220.162669,18.832 220.470669,19.096 220.602669,19.228 C220.910669,19.536 221.438669,20.284 221.614669,20.724 C221.878669,21.208 222.230669,22.264 222.230669,23.584 C222.230669,23.936 222.186669,25.696 221.394669,27.148 C221.042669,27.764 220.558669,28.336 220.382669,28.512 C220.074669,28.82 219.634669,29.26 219.282669,29.48 C218.754669,29.876 218.226669,30.052 218.094669,30.14 C217.610669,30.404 217.126669,30.624 216.642669,30.8 C215.322669,31.24 212.990669,31.768 209.734669,31.768 C208.810669,31.768 206.170669,31.724 203.398669,30.888 C202.826669,30.712 200.318669,30.008 198.558669,27.984 C197.194669,26.4 196.886669,24.464 196.798669,24.068 L205.598669,23.584 C205.686669,23.716 205.950669,24.376 206.522669,24.86 C207.182669,25.432 208.634669,25.916 210.482669,25.916 C212.110669,25.916 213.650669,25.432 213.650669,24.464 C213.650669,24.332 213.650669,24.156 213.474669,23.892 C213.078669,23.32 212.418669,23.188 211.318669,23.012 C209.602669,22.836 207.930669,22.66 206.214669,22.396 C203.882669,22.088 203.134669,21.912 201.858669,21.384 C201.506669,21.252 201.198669,21.164 200.846669,20.988 C200.626669,20.856 200.054669,20.548 199.570669,20.152 C197.898669,18.7 197.458669,16.764 197.458669,15.18 C197.458669,13.992 197.766669,12.76 198.558669,11.616 C198.690669,11.44 198.866669,11.22 198.998669,11.044 C199.218669,10.824 199.702669,10.252 200.538669,9.68 C201.022669,9.372 201.374669,9.196 202.298669,8.8 C203.970669,8.096 206.170669,7.524 209.954669,7.524 C210.614669,7.524 214.442669,7.436 217.434669,8.888 C218.974669,9.592 219.986669,10.692 220.426669,11.22 C221.570669,12.628 221.790669,14.036 221.922669,14.608 Z M225.144447,0 L234.120447,0 L234.120447,11.352 C234.824447,10.296 235.880447,9.416 236.936447,8.844 C237.992447,8.272 239.884447,7.656 242.480447,7.656 C242.788447,7.656 247.056447,7.524 249.608447,10.472 C250.048447,10.956 250.312447,11.484 250.400447,11.704 C251.192447,13.288 251.368447,14.652 251.456447,17.776 L251.456447,31.064 L242.568447,31.064 L242.568447,18.304 C242.480447,17.512 242.480447,17.028 242.128447,16.236 C241.908447,15.752 241.820447,15.576 241.336447,15.18 C240.456447,14.432 239.796447,14.432 239.356447,14.344 C239.136447,14.344 238.916447,14.3 238.740447,14.3 C238.476447,14.3 236.936447,14.388 235.792447,15.356 C234.208447,16.676 234.164447,18.788 234.076447,20.196 L234.076447,31.064 L225.144447,31.064 L225.144447,0 Z M255.030225,0 L263.962225,0 L263.962225,6.16 L255.030225,6.16 L255.030225,0 Z M255.030225,8.228 L263.962225,8.228 L263.962225,31.064 L255.030225,31.064 L255.030225,8.228 Z M276.512003,28.292 L276.512003,39.072 L267.580003,39.072 L267.580003,8.272 L276.512003,8.272 L276.512003,11.176 C276.732003,10.912 277.348003,10.164 278.096003,9.592 C279.372003,8.668 281.748003,7.524 284.872003,7.524 C285.532003,7.524 288.920003,7.568 291.604003,9.636 C292.132003,10.032 292.616003,10.472 293.056003,10.956 C294.420003,12.496 295.916003,15.356 295.916003,19.536 C295.916003,20.328 295.960003,24.376 293.408003,27.676 C292.220003,29.26 290.680003,30.14 290.284003,30.404 C289.184003,31.02 287.116003,31.812 284.388003,31.812 C281.704003,31.812 279.944003,31.152 278.756003,30.448 C278.228003,30.14 277.832003,29.832 277.304003,29.348 C277.084003,29.128 276.820003,28.82 276.512003,28.292 Z M281.440003,14.036 C281.264003,14.036 279.680003,14.168 278.536003,15.048 C278.492003,15.048 278.096003,15.444 277.788003,15.752 C277.348003,16.28 277.128003,16.676 276.908003,17.16 C276.732003,17.644 276.512003,18.568 276.512003,19.756 C276.512003,20.02 276.556003,21.076 276.864003,21.956 C277.612003,24.156 279.548003,25.3 281.528003,25.3 C281.880003,25.3 283.244003,25.256 284.432003,24.596 C284.696003,24.42 285.004003,24.244 285.488003,23.716 C286.192003,23.012 286.632003,22.264 286.852003,20.812 C286.940003,20.416 286.984003,19.976 286.984003,19.536 C286.984003,19.316 287.028003,16.808 285.180003,15.224 C285.092003,15.136 284.212003,14.476 283.420003,14.256 C283.200003,14.168 282.276003,13.992 281.440003,14.036 Z" id="Membership-Copy" fill="#212121"></path>
    </g>
</svg>