<?xml version="1.0" encoding="UTF-8"?>
<svg width="133px" height="14px" viewBox="0 0 133 14" version="1.1" xmlns="http://www.w3.org/2000/svg" xmlns:xlink="http://www.w3.org/1999/xlink">
    <!-- Generator: Sketch 52.5 (67469) - http://www.bohemiancoding.com/sketch -->
    <title>OSAKAKUMA Copy</title>
    <desc>Created with Sketch.</desc>
    <g id="Page-1" stroke="none" stroke-width="1" fill="none" fill-rule="evenodd">
        <path d="M6.82664305,0.641 C9.30864305,0.573 10.9406431,1.423 11.9946431,2.375 C12.1986431,2.562 12.402643,2.766 12.5556431,2.97 C12.7086431,3.14 12.827643,3.327 12.963643,3.531 C13.0656431,3.684 13.167643,3.854 13.2526431,4.007 C13.5416431,4.534 13.9496431,5.639 13.9496431,7.016 C13.9496431,7.458 13.9496431,9.413 12.453643,11.113 C12.3346431,11.232 12.079643,11.521 11.739643,11.793 C11.3146431,12.15 10.345643,12.779 9.18964305,13.068 C8.81564305,13.17 8.01664305,13.323 7.03064305,13.323 C5.19464305,13.323 4.12364305,12.915 3.27364305,12.456 C2.35564305,11.946 2.01564305,11.589 1.64164305,11.198 C1.55664305,11.096 1.45464305,10.977 1.36964305,10.858 C1.13164305,10.569 0.96164305,10.382 0.68964305,9.787 C0.41764305,9.243 0.06064305,8.308 0.06064305,6.931 C0.06064305,6.489 0.09464305,5.112 0.92764305,3.735 C1.04664305,3.514 1.14864305,3.378 1.47164305,2.987 C2.18564305,2.137 2.81464305,1.763 3.23964305,1.542 C4.78664305,0.709 6.31664305,0.658 6.82664305,0.641 Z M6.99664305,3.565 C6.86064305,3.565 5.33064305,3.582 4.41264305,4.738 C4.10664305,5.146 3.71564305,5.945 3.71564305,6.999 C3.71564305,7.441 3.85164305,8.138 4.03864305,8.58 C4.15764305,8.835 4.36164305,9.158 4.49764305,9.328 C5.36464305,10.382 6.84364305,10.399 6.99664305,10.399 C7.18364305,10.399 8.01664305,10.365 8.71364305,9.991 C8.96864305,9.855 9.17264305,9.668 9.24064305,9.617 C9.69964305,9.175 9.85264305,8.852 9.97164305,8.597 C10.124643,8.24 10.294643,7.747 10.294643,6.965 C10.294643,6.71 10.277643,5.775 9.71664305,4.908 C9.63164305,4.789 9.49564305,4.568 9.20664305,4.313 C9.00264305,4.143 8.69664305,3.939 8.44164305,3.837 C8.30564305,3.786 8.08464305,3.701 7.76164305,3.633 C7.50664305,3.599 7.25164305,3.565 6.99664305,3.565 Z M27.1975001,4.398 L23.5425002,4.636 C23.4915001,4.432 23.4405001,4.296 23.2705001,4.092 C23.1515001,3.956 23.1345001,3.939 23.0665002,3.888 C23.0155002,3.854 22.9645001,3.837 22.9135001,3.786 C22.8285002,3.752 22.7435001,3.701 22.6755002,3.667 C22.4545001,3.565 21.8935001,3.429 21.2645002,3.429 C20.3295001,3.429 19.4285001,3.701 19.4285001,4.33 C19.4285001,4.415 19.4285001,4.585 19.6325002,4.755 C19.9215001,4.993 20.6525001,5.095 20.9245002,5.146 L22.4545001,5.35 C22.9305001,5.418 23.4065002,5.486 23.8655001,5.588 C25.0555001,5.86 25.6845002,6.2 26.2285002,6.642 C26.4155002,6.812 26.5515002,6.948 26.6025002,6.999 C27.1635001,7.645 27.3335001,8.529 27.3335001,9.243 C27.3335001,9.464 27.3165002,10.501 26.7215002,11.368 C26.6025002,11.555 26.3135001,11.895 25.8885002,12.218 C24.9875002,12.898 23.6955001,13.34 21.6385002,13.34 C21.2305002,13.34 19.5475001,13.357 18.0515002,12.728 C17.8135001,12.626 17.5585002,12.507 17.3375002,12.354 C17.1675002,12.252 17.0145002,12.133 16.8785002,12.031 C16.8275002,11.98 16.7765001,11.946 16.7255001,11.912 C16.6575002,11.861 16.5895001,11.776 16.5215002,11.708 C16.3685001,11.538 16.2665001,11.453 16.0455001,11.113 C15.8415001,10.807 15.6035002,10.365 15.4165002,9.634 C15.3825002,9.515 15.3825002,9.413 15.3485001,9.294 C15.3315001,9.226 15.3145001,9.158 15.2805002,9.09 L18.9185001,8.869 C18.9695002,9.005 19.0715001,9.379 19.3775001,9.719 C20.1935002,10.586 21.7235001,10.518 21.7575002,10.518 C22.1485002,10.518 22.7775001,10.467 23.1685001,10.246 C23.5765002,10.025 23.6275001,9.702 23.6275001,9.549 C23.6275001,9.515 23.6105002,9.345 23.4915001,9.175 C23.2875001,8.869 22.8455002,8.733 22.1995001,8.614 C21.7065001,8.529 21.2135001,8.444 20.7205002,8.376 C19.5305002,8.189 17.6775001,7.951 16.6065001,6.965 C16.0455001,6.455 15.6545001,5.792 15.6545001,4.636 C15.6545001,4.381 15.6715001,4.126 15.7055001,3.871 C15.7395002,3.599 15.8755001,3.004 16.4195001,2.358 C16.9635001,1.695 17.7795001,1.338 17.9325002,1.27 C18.7485002,0.913 19.7515001,0.658 21.5365001,0.658 C21.8425001,0.658 23.8995002,0.59 25.4465001,1.661 C25.5145002,1.695 25.7355002,1.865 25.9565001,2.069 C26.1775001,2.29 26.5855002,2.698 26.9085002,3.412 C27.0445001,3.735 27.1295002,4.075 27.1975001,4.398 Z M32.5063573,0.998 L37.0113572,0.998 L41.6523572,13 L37.7083572,13 L36.8923573,10.569 L32.6083572,10.569 L31.8093573,13 L27.8483573,13 L32.5063573,0.998 Z M34.7673573,4.109 L33.4753572,7.985 L36.0423573,7.985 L34.7673573,4.109 Z M42.9322143,0.998 L46.5022143,0.998 L46.5022143,5.401 C46.7742143,5.129 46.9952143,4.942 47.2332144,4.738 C47.4372144,4.551 47.6922143,4.313 47.9302144,4.109 C48.0322143,4.007 48.1342144,3.939 48.2192143,3.854 C48.3552144,3.718 48.4912144,3.599 48.6102143,3.497 C49.0692144,3.089 49.5962144,2.613 50.0892144,2.171 C50.5142143,1.78 50.9562144,1.423 51.3812143,0.998 L56.1582143,0.998 L50.3612143,6.047 C50.4632144,6.132 50.5482143,6.217 50.6332144,6.302 C50.7692144,6.455 50.8882143,6.608 51.0412143,6.778 C51.1602144,6.931 51.3132144,7.101 51.4492143,7.254 C52.0442144,7.934 52.6052144,8.597 53.1832143,9.26 C53.5402143,9.668 53.9142143,10.11 54.2712143,10.518 C54.4752143,10.756 54.6962144,11.028 54.9002144,11.266 C55.0532144,11.453 55.2062144,11.606 55.3592143,11.793 C55.5802144,12.031 55.7672144,12.269 55.9882143,12.524 C56.1072144,12.677 56.2602144,12.847 56.3962143,13 L51.9422143,13 C51.3132144,12.269 50.7182143,11.572 50.1062144,10.841 C49.9872143,10.705 49.8852144,10.586 49.7662144,10.45 C49.6642143,10.331 49.5452144,10.195 49.4262144,10.059 C49.3072143,9.94 49.2052144,9.804 49.0862143,9.685 C48.8992143,9.464 48.7462143,9.26 48.5592143,9.073 C48.4742144,8.971 48.3892143,8.852 48.2872144,8.75 C48.1172144,8.563 47.9812144,8.376 47.8452143,8.189 L46.5192144,9.379 L46.5192144,13 L42.9322143,13 L42.9322143,0.998 Z M61.3140715,0.998 L65.8190714,0.998 L70.4600714,13 L66.5160714,13 L65.7000714,10.569 L61.4160714,10.569 L60.6170715,13 L56.6560714,13 L61.3140715,0.998 Z M63.5750714,4.109 L62.2830714,7.985 L64.8500715,7.985 L63.5750714,4.109 Z M71.7399285,0.998 L75.3099285,0.998 L75.3099285,5.401 C75.5819286,5.129 75.8029285,4.942 76.0409285,4.738 C76.2449286,4.551 76.4999285,4.313 76.7379285,4.109 C76.8399285,4.007 76.9419286,3.939 77.0269285,3.854 C77.1629286,3.718 77.2989286,3.599 77.4179285,3.497 C77.8769286,3.089 78.4039286,2.613 78.8969286,2.171 C79.3219285,1.78 79.7639286,1.423 80.1889286,0.998 L84.9659286,0.998 L79.1689285,6.047 C79.2709286,6.132 79.3559285,6.217 79.4409286,6.302 C79.5769285,6.455 79.6959285,6.608 79.8489285,6.778 C79.9679286,6.931 80.1209286,7.101 80.2569285,7.254 C80.8519286,7.934 81.4129286,8.597 81.9909285,9.26 C82.3479285,9.668 82.7219285,10.11 83.0789285,10.518 C83.2829285,10.756 83.5039286,11.028 83.7079286,11.266 C83.8609286,11.453 84.0139286,11.606 84.1669285,11.793 C84.3879286,12.031 84.5749286,12.269 84.7959286,12.524 C84.9149286,12.677 85.0679285,12.847 85.2039285,13 L80.7499285,13 C80.1209286,12.269 79.5259285,11.572 78.9139286,10.841 C78.7949285,10.705 78.6929285,10.586 78.5739286,10.45 C78.4719285,10.331 78.3529286,10.195 78.2339286,10.059 C78.1149285,9.94 78.0129286,9.804 77.8939286,9.685 C77.7069286,9.464 77.5539285,9.26 77.3669286,9.073 C77.2819285,8.971 77.1969285,8.852 77.0949285,8.75 C76.9249285,8.563 76.7889286,8.376 76.6529286,8.189 L75.3269285,9.379 L75.3269285,13 L71.7399285,13 L71.7399285,0.998 Z M86.5007856,0.998 L90.1217857,0.998 L90.1217857,7.764 C90.1217857,7.917 90.1217857,8.053 90.1387857,8.206 C90.2067856,8.784 90.3597857,9.107 90.5297857,9.362 C90.6487857,9.566 90.7677856,9.651 90.8697857,9.753 C90.9547856,9.821 91.0567857,9.906 91.2267857,10.008 C91.3967857,10.093 91.6177856,10.161 91.6517856,10.178 C91.9067857,10.263 92.2297857,10.365 92.7907857,10.365 C93.6577857,10.365 94.2017857,10.11 94.5757857,9.787 C94.7117857,9.668 94.9837856,9.396 95.1367857,8.988 C95.2897857,8.614 95.3237856,8.274 95.3577856,7.543 L95.3577856,0.998 L98.9617857,0.998 L98.9617857,8.359 C98.9447856,8.682 98.9107856,9.005 98.8767856,9.311 C98.6897856,10.603 98.2307856,11.317 97.5847857,11.912 C96.6667857,12.728 95.3237856,13.204 93.2157856,13.306 C93.0117857,13.306 92.7907857,13.323 92.5867857,13.323 C92.3487856,13.323 89.6287857,13.391 87.9967857,11.963 C87.6227856,11.64 87.3507857,11.3 87.2487856,11.147 C87.1127857,10.96 86.9597857,10.688 86.8237856,10.246 C86.5857857,9.6 86.5177856,9.141 86.5007856,7.883 L86.5007856,0.998 Z M101.975643,0.998 L106.956643,0.998 L109.608643,9.294 L112.311643,0.998 L117.224643,0.998 L117.224643,13 L113.688643,13 C113.705643,11.266 113.722643,9.549 113.756643,7.815 C113.790643,6.642 113.824643,5.452 113.858643,4.279 C113.603643,5.248 113.348643,6.234 113.059643,7.203 C112.855643,7.9 112.617643,8.614 112.396643,9.311 C112.022643,10.535 111.665643,11.759 111.274643,13 L107.925643,13 C107.653643,12.116 107.381643,11.249 107.109643,10.365 C106.905643,9.719 106.684643,9.073 106.497643,8.427 C106.293643,7.73 106.106643,7.05 105.919643,6.353 C105.715643,5.656 105.511643,4.959 105.324643,4.262 L105.528643,13 L101.975643,13 L101.975643,0.998 Z M123.1965,0.998 L127.7015,0.998 L132.3425,13 L128.3985,13 L127.5825,10.569 L123.2985,10.569 L122.4995,13 L118.5385,13 L123.1965,0.998 Z M125.4575,4.109 L124.1655,7.985 L126.7325,7.985 L125.4575,4.109 Z" id="OSAKAKUMA-Copy" fill="#D8D8D8"></path>
    </g>
</svg>