<?xml version="1.0" encoding="UTF-8"?>
<svg width="306px" height="9px" viewBox="0 0 306 9" version="1.1" xmlns="http://www.w3.org/2000/svg" xmlns:xlink="http://www.w3.org/1999/xlink">
    <!-- Generator: Sketch 52.5 (67469) - http://www.bohemiancoding.com/sketch -->
    <title>JAPANESE BEAUTY &amp; LI Copy</title>
    <desc>Created with Sketch.</desc>
    <g id="Page-1" stroke="none" stroke-width="1" fill="none" fill-rule="evenodd">
        <path d="M6.81630675,0.254696678 L6.81630675,5.93069668 C6.79230675,6.57869668 6.74430675,7.40669668 6.13230675,8.05469668 C5.58030675,8.64269668 4.68030675,8.95469668 3.36030675,8.95469668 C3.19230675,8.95469668 1.94430675,8.99069668 1.05630675,8.36669668 C0.996306746,8.33069668 0.852306746,8.22269668 0.672306746,8.03069668 C-0.0356932544,7.26269668 0.000306745562,5.90669668 0.000306745562,5.13869668 L2.43630675,5.09069668 C2.43630675,5.41469668 2.43630675,5.72669668 2.46030675,6.03869668 C2.50830675,6.41069668 2.59230675,6.60269668 2.77230675,6.74669668 C3.01230675,6.96269668 3.30030675,6.95069668 3.38430675,6.95069668 C3.49230675,6.95069668 3.98430675,6.93869668 4.17630675,6.41069668 C4.26030675,6.18269668 4.27230675,5.78669668 4.28430675,5.23469668 L4.28430675,0.254696678 L6.81630675,0.254696678 Z M10.5037353,0.254696678 L13.6837353,0.254696678 L16.9597353,8.72669668 L14.1757353,8.72669668 L13.5997353,7.01069668 L10.5757353,7.01069668 L10.0117353,8.72669668 L7.21573535,8.72669668 L10.5037353,0.254696678 Z M12.0997353,2.45069668 L11.1877353,5.18669668 L12.9997353,5.18669668 L12.0997353,2.45069668 Z M17.8511639,0.254696678 L22.7711639,0.254696678 C22.9511639,0.254696678 23.1191639,0.266696678 23.2991639,0.278696678 C23.4431639,0.290696678 24.5351639,0.314696678 25.3271639,0.986696678 C25.6151639,1.22669668 25.7231639,1.41869668 25.7711639,1.49069668 C25.8551639,1.61069668 25.9271639,1.74269668 25.9871639,1.87469668 C26.0831639,2.11469668 26.2151639,2.54669668 26.2151639,3.14669668 C26.2151639,3.59069668 26.1191639,4.14269668 25.8791639,4.57469668 C25.8071639,4.71869668 25.5671639,5.11469668 25.1471639,5.40269668 C24.3311639,5.95469668 23.2031639,5.93069668 22.3991639,5.93069668 L20.4071639,5.93069668 L20.4071639,8.72669668 L17.8511639,8.72669668 L17.8511639,0.254696678 Z M20.3951639,2.22269668 L20.3951639,4.02269668 L22.4231639,4.02269668 C22.8191639,3.99869668 23.4671639,3.98669668 23.6471639,3.38669668 C23.6591639,3.33869668 23.6831639,3.23069668 23.6831639,3.09869668 C23.6831639,3.00269668 23.6591639,2.87069668 23.6231639,2.76269668 C23.4431639,2.19869668 22.7591639,2.22269668 22.3871639,2.22269668 L20.3951639,2.22269668 Z M29.0985925,0.254696678 L32.2785925,0.254696678 L35.5545925,8.72669668 L32.7705925,8.72669668 L32.1945925,7.01069668 L29.1705925,7.01069668 L28.6065925,8.72669668 L25.8105925,8.72669668 L29.0985925,0.254696678 Z M30.6945925,2.45069668 L29.7825925,5.18669668 L31.5945925,5.18669668 L30.6945925,2.45069668 Z M36.4460211,0.254696678 L39.0980211,0.254696678 C39.2180211,0.398696678 39.3140211,0.518696678 39.4100211,0.650696678 C39.4460211,0.698696678 39.4940211,0.758696678 39.5300211,0.806696678 C39.6140211,0.914696678 39.6980211,1.01069668 39.7940211,1.13069668 C39.9380211,1.31069668 40.0700211,1.47869668 40.2020211,1.64669668 C40.4060211,1.89869668 40.5980211,2.13869668 40.7900211,2.37869668 C41.0660211,2.71469668 41.3420211,3.07469668 41.6300211,3.43469668 C41.8940211,3.75869668 42.1460211,4.07069668 42.3860211,4.39469668 C42.5780211,4.64669668 42.7940211,4.88669668 42.9740211,5.18669668 L42.9740211,0.254696678 L45.5060211,0.254696678 L45.5060211,8.72669668 L42.9380211,8.72669668 C42.8060211,8.57069668 42.6860211,8.41469668 42.5660211,8.25869668 C42.4340211,8.09069668 42.2900211,7.92269668 42.1580211,7.74269668 C42.0140211,7.57469668 41.8820211,7.40669668 41.7620211,7.25069668 C41.6420211,7.10669668 41.5340211,6.97469668 41.4140211,6.83069668 C41.0540211,6.38669668 40.7180211,5.95469668 40.3700211,5.51069668 C40.1060211,5.18669668 39.8300211,4.85069668 39.5780211,4.52669668 C39.4340211,4.35869668 39.3020211,4.19069668 39.1700211,4.01069668 C39.0980211,3.90269668 39.0260211,3.79469668 38.9540211,3.69869668 C39.0140211,3.96269668 39.0020211,4.15469668 39.0020211,4.27469668 L39.0020211,8.72669668 L36.4460211,8.72669668 L36.4460211,0.254696678 Z M47.6334497,0.254696678 L55.4814497,0.254696678 L55.4814497,2.22269668 L50.1774497,2.22269668 L50.1774497,3.42269668 L55.2534497,3.42269668 L55.2534497,5.35469668 L50.1774497,5.35469668 L50.1774497,6.74669668 L55.6494497,6.74669668 L55.6494497,8.72669668 L47.6334497,8.72669668 L47.6334497,0.254696678 Z M65.0368783,2.65469668 L62.4568783,2.82269668 C62.4208783,2.67869668 62.3848783,2.58269668 62.2648783,2.43869668 C62.1808783,2.34269668 62.1688783,2.33069668 62.1208783,2.29469668 C62.0848783,2.27069668 62.0488783,2.25869668 62.0128783,2.22269668 C61.9528783,2.19869668 61.8928783,2.16269668 61.8448783,2.13869668 C61.6888783,2.06669668 61.2928783,1.97069668 60.8488783,1.97069668 C60.1888783,1.97069668 59.5528783,2.16269668 59.5528783,2.60669668 C59.5528783,2.66669668 59.5528783,2.78669668 59.6968783,2.90669668 C59.9008783,3.07469668 60.4168783,3.14669668 60.6088783,3.18269668 L61.6888783,3.32669668 C62.0248783,3.37469668 62.3608783,3.42269668 62.6848783,3.49469668 C63.5248783,3.68669668 63.9688783,3.92669668 64.3528783,4.23869668 C64.4848783,4.35869668 64.5808783,4.45469668 64.6168783,4.49069668 C65.0128783,4.94669668 65.1328783,5.57069668 65.1328783,6.07469668 C65.1328783,6.23069668 65.1208783,6.96269668 64.7008783,7.57469668 C64.6168783,7.70669668 64.4128783,7.94669668 64.1128783,8.17469668 C63.4768783,8.65469668 62.5648783,8.96669668 61.1128783,8.96669668 C60.8248783,8.96669668 59.6368783,8.97869668 58.5808783,8.53469668 C58.4128783,8.46269668 58.2328783,8.37869668 58.0768783,8.27069668 C57.9568783,8.19869668 57.8488783,8.11469668 57.7528783,8.04269668 C57.7168783,8.00669668 57.6808783,7.98269668 57.6448783,7.95869668 C57.5968783,7.92269668 57.5488783,7.86269668 57.5008783,7.81469668 C57.3928783,7.69469668 57.3208783,7.63469668 57.1648783,7.39469668 C57.0208783,7.17869668 56.8528783,6.86669668 56.7208783,6.35069668 C56.6968783,6.26669668 56.6968783,6.19469668 56.6728783,6.11069668 C56.6608783,6.06269668 56.6488783,6.01469668 56.6248783,5.96669668 L59.1928783,5.81069668 C59.2288783,5.90669668 59.3008783,6.17069668 59.5168783,6.41069668 C60.0928783,7.02269668 61.1728783,6.97469668 61.1968783,6.97469668 C61.4728783,6.97469668 61.9168783,6.93869668 62.1928783,6.78269668 C62.4808783,6.62669668 62.5168783,6.39869668 62.5168783,6.29069668 C62.5168783,6.26669668 62.5048783,6.14669668 62.4208783,6.02669668 C62.2768783,5.81069668 61.9648783,5.71469668 61.5088783,5.63069668 C61.1608783,5.57069668 60.8128783,5.51069668 60.4648783,5.46269668 C59.6248783,5.33069668 58.3168783,5.16269668 57.5608783,4.46669668 C57.1648783,4.10669668 56.8888783,3.63869668 56.8888783,2.82269668 C56.8888783,2.64269668 56.9008783,2.46269668 56.9248783,2.28269668 C56.9488783,2.09069668 57.0448783,1.67069668 57.4288783,1.21469668 C57.8128783,0.746696678 58.3888783,0.494696678 58.4968783,0.446696678 C59.0728783,0.194696678 59.7808783,0.0146966778 61.0408783,0.0146966778 C61.2568783,0.0146966778 62.7088783,-0.0333033222 63.8008783,0.722696678 C63.8488783,0.746696678 64.0048783,0.866696678 64.1608783,1.01069668 C64.3168783,1.16669668 64.6048783,1.45469668 64.8328783,1.95869668 C64.9288783,2.18669668 64.9888783,2.42669668 65.0368783,2.65469668 Z M66.4803069,0.254696678 L74.3283069,0.254696678 L74.3283069,2.22269668 L69.0243069,2.22269668 L69.0243069,3.42269668 L74.1003069,3.42269668 L74.1003069,5.35469668 L69.0243069,5.35469668 L69.0243069,6.74669668 L74.4963069,6.74669668 L74.4963069,8.72669668 L66.4803069,8.72669668 L66.4803069,0.254696678 Z M86.9952975,4.20269674 C87.0433417,4.20274107 87.1391641,4.22669668 87.1391641,4.22669668 C87.1871641,4.23869668 87.4751641,4.35869668 87.6791641,4.50269668 C88.1231641,4.81469668 88.5431641,5.34269668 88.5431641,6.26669668 C88.5431641,6.45869668 88.5431641,6.89069668 88.2911641,7.38269668 C88.2791641,7.40669668 88.2071641,7.55069668 88.1231641,7.65869668 C87.9911641,7.85069668 87.7391641,8.12669668 87.3431641,8.33069668 C86.6711641,8.66669668 86.0351641,8.70269668 85.3511641,8.72669668 L80.0471641,8.72669668 L80.0471641,0.254696678 L84.8351641,0.254696678 C85.3871641,0.254696678 86.1551641,0.266696678 86.7071641,0.422696678 C87.3071641,0.602696678 87.6311641,0.878696678 87.8351641,1.14269668 C88.0031641,1.37069668 88.2191641,1.74269668 88.2191641,2.30669668 C88.2191641,2.72669668 88.1351641,3.14669668 87.8471641,3.55469668 C87.8351641,3.56669668 87.7271641,3.71069668 87.6431641,3.79469668 C87.5711641,3.85469668 87.5351641,3.89069668 87.4031641,3.98669668 C87.2969202,4.06933082 87.2022893,4.15196497 87.0050302,4.20032681 L86.9952975,4.20269674 Z M82.5791641,2.21069668 L82.5791641,3.45869668 L84.7511641,3.45869668 C84.9671641,3.44669668 85.3391641,3.44669668 85.5551641,3.20669668 C85.6031641,3.15869668 85.6991641,3.00269668 85.6991641,2.79869668 C85.6991641,2.63069668 85.6271641,2.52269668 85.5671641,2.46269668 C85.3991641,2.27069668 85.2191641,2.24669668 84.8351641,2.21069668 L82.5791641,2.21069668 Z M82.5791641,5.35469668 L82.5791641,6.78269668 L84.7151641,6.78269668 C85.1591641,6.75869668 85.3991641,6.75869668 85.6151641,6.63869668 C85.8431641,6.51869668 85.9631641,6.27869668 85.9631641,6.07469668 C85.9631641,5.67869668 85.6991641,5.51069668 85.5191641,5.43869668 C85.3151641,5.36669668 84.9791641,5.36669668 84.7751641,5.35469668 L82.5791641,5.35469668 Z M90.4905927,0.254696678 L98.3385927,0.254696678 L98.3385927,2.22269668 L93.0345927,2.22269668 L93.0345927,3.42269668 L98.1105927,3.42269668 L98.1105927,5.35469668 L93.0345927,5.35469668 L93.0345927,6.74669668 L98.5065927,6.74669668 L98.5065927,8.72669668 L90.4905927,8.72669668 L90.4905927,0.254696678 Z M102.470021,0.254696678 L105.650021,0.254696678 L108.926021,8.72669668 L106.142021,8.72669668 L105.566021,7.01069668 L102.542021,7.01069668 L101.978021,8.72669668 L99.1820213,8.72669668 L102.470021,0.254696678 Z M104.066021,2.45069668 L103.154021,5.18669668 L104.966021,5.18669668 L104.066021,2.45069668 Z M109.57745,0.254696678 L112.13345,0.254696678 L112.13345,5.03069668 C112.13345,5.13869668 112.13345,5.23469668 112.14545,5.34269668 C112.19345,5.75069668 112.30145,5.97869668 112.42145,6.15869668 C112.50545,6.30269668 112.58945,6.36269668 112.66145,6.43469668 C112.72145,6.48269668 112.79345,6.54269668 112.91345,6.61469668 C113.03345,6.67469668 113.18945,6.72269668 113.21345,6.73469668 C113.39345,6.79469668 113.62145,6.86669668 114.01745,6.86669668 C114.62945,6.86669668 115.01345,6.68669668 115.27745,6.45869668 C115.37345,6.37469668 115.56545,6.18269668 115.67345,5.89469668 C115.78145,5.63069668 115.80545,5.39069668 115.82945,4.87469668 L115.82945,0.254696678 L118.37345,0.254696678 L118.37345,5.45069668 C118.36145,5.67869668 118.33745,5.90669668 118.31345,6.12269668 C118.18145,7.03469668 117.85745,7.53869668 117.40145,7.95869668 C116.75345,8.53469668 115.80545,8.87069668 114.31745,8.94269668 C114.17345,8.94269668 114.01745,8.95469668 113.87345,8.95469668 C113.70545,8.95469668 111.78545,9.00269668 110.63345,7.99469668 C110.36945,7.76669668 110.17745,7.52669668 110.10545,7.41869668 C110.00945,7.28669668 109.90145,7.09469668 109.80545,6.78269668 C109.63745,6.32669668 109.58945,6.00269668 109.57745,5.11469668 L109.57745,0.254696678 Z M119.504879,0.254696678 L127.292879,0.254696678 L127.292879,2.22269668 L124.676879,2.22269668 L124.676879,8.72669668 L122.120879,8.72669668 L122.120879,2.22269668 L119.504879,2.22269668 L119.504879,0.254696678 Z M127.944307,0.254696678 L130.884307,0.254696678 C131.004307,0.422696678 131.100307,0.578696678 131.220307,0.746696678 C131.316307,0.878696678 131.400307,1.01069668 131.484307,1.13069668 L131.664307,1.41869668 L131.808307,1.59869668 C131.868307,1.69469668 131.928307,1.80269668 132.000307,1.89869668 C132.084307,2.03069668 132.180307,2.15069668 132.252307,2.27069668 C132.348307,2.40269668 132.444307,2.54669668 132.540307,2.70269668 C132.768307,3.06269668 132.780307,3.03869668 132.840307,3.27869668 C132.912307,3.05069668 132.948307,3.01469668 133.092307,2.78669668 C133.260307,2.52269668 133.428307,2.27069668 133.596307,2.00669668 C133.836307,1.64669668 134.064307,1.31069668 134.292307,0.950696678 C134.448307,0.722696678 134.616307,0.482696678 134.760307,0.254696678 L137.700307,0.254696678 L134.100307,5.52269668 L134.100307,8.72669668 L131.544307,8.72669668 L131.544307,5.48669668 L127.944307,0.254696678 Z M148.915164,4.31069668 L150.991164,4.32269668 C150.895164,4.98269668 150.799164,5.52269668 150.463164,6.18269668 C150.367164,6.37469668 150.295164,6.49469668 150.127164,6.69869668 C150.379164,6.84269668 150.511164,6.92669668 150.955164,6.92669668 C151.075164,6.92669668 151.183164,6.93869668 151.411164,6.85469668 L151.411164,8.75069668 C151.027164,8.82269668 150.643164,8.88269668 150.259164,8.88269668 C150.067164,8.88269668 149.335164,8.89469668 148.699164,8.42669668 C148.603164,8.34269668 148.495164,8.24669668 148.399164,8.15069668 C148.291164,8.22269668 148.183164,8.28269668 148.063164,8.34269668 C147.907164,8.42669668 147.763164,8.48669668 147.607164,8.55869668 C147.487164,8.59469668 147.379164,8.64269668 147.259164,8.67869668 C147.019164,8.76269668 146.431164,8.88269668 145.735164,8.88269668 C145.507164,8.88269668 144.895164,8.88269668 144.223164,8.64269668 C144.067164,8.58269668 143.899164,8.51069668 143.743164,8.42669668 C143.647164,8.36669668 143.551164,8.29469668 143.467164,8.22269668 C143.395164,8.16269668 143.311164,8.11469668 143.239164,8.03069668 C142.555164,7.32269668 142.555164,6.38669668 142.555164,6.21869668 C142.555164,5.94269668 142.567164,5.39069668 143.107164,4.71869668 C143.155164,4.64669668 143.299164,4.45469668 143.539164,4.26269668 C143.779164,4.04669668 144.067164,3.86669668 144.307164,3.72269668 C144.055164,3.42269668 143.587164,2.84669668 143.587164,2.06669668 C143.587164,1.92269668 143.587164,1.41869668 143.983164,0.962696678 C144.571164,0.266696678 145.555164,0.146696678 146.191164,0.146696678 C146.311164,0.146696678 146.563164,0.146696678 146.899164,0.230696678 C147.859164,0.446696678 148.483164,1.10669668 148.483164,2.01869668 C148.483164,2.23469668 148.483164,2.79869668 147.895164,3.44669668 C147.823164,3.53069668 147.775164,3.59069668 147.703164,3.65069668 C147.583164,3.77069668 147.415164,3.89069668 147.295164,3.99869668 C147.391164,4.10669668 147.499164,4.22669668 147.607164,4.33469668 C147.703164,4.45469668 147.799164,4.56269668 147.895164,4.67069668 C147.991164,4.76669668 148.075164,4.86269668 148.171164,4.95869668 C148.315164,5.11469668 148.435164,5.27069668 148.603164,5.43869668 C148.795164,5.10269668 148.855164,4.92269668 148.915164,4.31069668 Z M146.059164,2.85869668 C146.095164,2.82269668 146.155164,2.77469668 146.191164,2.76269668 C146.227164,2.73869668 146.263164,2.71469668 146.311164,2.69069668 C146.407164,2.61869668 146.671164,2.40269668 146.671164,2.07869668 C146.671164,2.06669668 146.659164,1.93469668 146.611164,1.85069668 C146.527164,1.69469668 146.371164,1.58669668 146.095164,1.58669668 C146.059164,1.58669668 146.011164,1.58669668 145.939164,1.61069668 C145.819164,1.64669668 145.567164,1.80269668 145.567164,2.10269668 C145.567164,2.37869668 145.819164,2.63069668 146.059164,2.85869668 Z M145.459164,5.07869668 C144.979164,5.39069668 144.727164,5.72669668 144.727164,6.15869668 C144.727164,6.20669668 144.727164,6.26669668 144.751164,6.36269668 C144.811164,6.61469668 145.003164,6.81869668 145.063164,6.86669668 C145.231164,7.01069668 145.543164,7.14269668 145.975164,7.14269668 C146.491164,7.14269668 146.851164,6.96269668 147.043164,6.84269668 C146.851164,6.62669668 146.659164,6.41069668 146.467164,6.18269668 C146.371164,6.07469668 146.287164,5.97869668 146.191164,5.88269668 C146.155164,5.84669668 146.107164,5.79869668 146.071164,5.75069668 C146.023164,5.70269668 145.975164,5.64269668 145.927164,5.59469668 C145.867164,5.52269668 145.807164,5.46269668 145.735164,5.39069668 C145.639164,5.27069668 145.543164,5.16269668 145.459164,5.07869668 Z M156.830022,0.254696678 L159.398022,0.254696678 L159.398022,6.74669668 L164.174022,6.74669668 L164.174022,8.72669668 L156.830022,8.72669668 L156.830022,0.254696678 Z M165.50945,0.254696678 L168.06545,0.254696678 L168.06545,8.72669668 L165.50945,8.72669668 L165.50945,0.254696678 Z M170.192879,0.254696678 L177.752879,0.254696678 L177.752879,2.21069668 L172.736879,2.21069668 L172.736879,3.61469668 L177.332879,3.61469668 L177.332879,5.52269668 L172.748879,5.52269668 L172.748879,8.72669668 L170.192879,8.72669668 L170.192879,0.254696678 Z M179.112307,0.254696678 L186.960307,0.254696678 L186.960307,2.22269668 L181.656307,2.22269668 L181.656307,3.42269668 L186.732307,3.42269668 L186.732307,5.35469668 L181.656307,5.35469668 L181.656307,6.74669668 L187.128307,6.74669668 L187.128307,8.72669668 L179.112307,8.72669668 L179.112307,0.254696678 Z M196.515736,2.65469668 L193.935736,2.82269668 C193.899736,2.67869668 193.863736,2.58269668 193.743736,2.43869668 C193.659736,2.34269668 193.647736,2.33069668 193.599736,2.29469668 C193.563736,2.27069668 193.527736,2.25869668 193.491736,2.22269668 C193.431736,2.19869668 193.371736,2.16269668 193.323736,2.13869668 C193.167736,2.06669668 192.771736,1.97069668 192.327736,1.97069668 C191.667736,1.97069668 191.031736,2.16269668 191.031736,2.60669668 C191.031736,2.66669668 191.031736,2.78669668 191.175736,2.90669668 C191.379736,3.07469668 191.895736,3.14669668 192.087736,3.18269668 L193.167736,3.32669668 C193.503736,3.37469668 193.839736,3.42269668 194.163736,3.49469668 C195.003736,3.68669668 195.447736,3.92669668 195.831736,4.23869668 C195.963736,4.35869668 196.059736,4.45469668 196.095736,4.49069668 C196.491736,4.94669668 196.611736,5.57069668 196.611736,6.07469668 C196.611736,6.23069668 196.599736,6.96269668 196.179736,7.57469668 C196.095736,7.70669668 195.891736,7.94669668 195.591736,8.17469668 C194.955736,8.65469668 194.043736,8.96669668 192.591736,8.96669668 C192.303736,8.96669668 191.115736,8.97869668 190.059736,8.53469668 C189.891736,8.46269668 189.711736,8.37869668 189.555736,8.27069668 C189.435736,8.19869668 189.327736,8.11469668 189.231736,8.04269668 C189.195736,8.00669668 189.159736,7.98269668 189.123736,7.95869668 C189.075736,7.92269668 189.027736,7.86269668 188.979736,7.81469668 C188.871736,7.69469668 188.799736,7.63469668 188.643736,7.39469668 C188.499736,7.17869668 188.331736,6.86669668 188.199736,6.35069668 C188.175736,6.26669668 188.175736,6.19469668 188.151736,6.11069668 C188.139736,6.06269668 188.127736,6.01469668 188.103736,5.96669668 L190.671736,5.81069668 C190.707736,5.90669668 190.779736,6.17069668 190.995736,6.41069668 C191.571736,7.02269668 192.651736,6.97469668 192.675736,6.97469668 C192.951736,6.97469668 193.395736,6.93869668 193.671736,6.78269668 C193.959736,6.62669668 193.995736,6.39869668 193.995736,6.29069668 C193.995736,6.26669668 193.983736,6.14669668 193.899736,6.02669668 C193.755736,5.81069668 193.443736,5.71469668 192.987736,5.63069668 C192.639736,5.57069668 192.291736,5.51069668 191.943736,5.46269668 C191.103736,5.33069668 189.795736,5.16269668 189.039736,4.46669668 C188.643736,4.10669668 188.367736,3.63869668 188.367736,2.82269668 C188.367736,2.64269668 188.379736,2.46269668 188.403736,2.28269668 C188.427736,2.09069668 188.523736,1.67069668 188.907736,1.21469668 C189.291736,0.746696678 189.867736,0.494696678 189.975736,0.446696678 C190.551736,0.194696678 191.259736,0.0146966778 192.519736,0.0146966778 C192.735736,0.0146966778 194.187736,-0.0333033222 195.279736,0.722696678 C195.327736,0.746696678 195.483736,0.866696678 195.639736,1.01069668 C195.795736,1.16669668 196.083736,1.45469668 196.311736,1.95869668 C196.407736,2.18669668 196.467736,2.42669668 196.515736,2.65469668 Z M197.215165,0.254696678 L205.003165,0.254696678 L205.003165,2.22269668 L202.387165,2.22269668 L202.387165,8.72669668 L199.831165,8.72669668 L199.831165,2.22269668 L197.215165,2.22269668 L197.215165,0.254696678 Z M205.654593,0.254696678 L208.594593,0.254696678 C208.714593,0.422696678 208.810593,0.578696678 208.930593,0.746696678 C209.026593,0.878696678 209.110593,1.01069668 209.194593,1.13069668 L209.374593,1.41869668 L209.518593,1.59869668 C209.578593,1.69469668 209.638593,1.80269668 209.710593,1.89869668 C209.794593,2.03069668 209.890593,2.15069668 209.962593,2.27069668 C210.058593,2.40269668 210.154593,2.54669668 210.250593,2.70269668 C210.478593,3.06269668 210.490593,3.03869668 210.550593,3.27869668 C210.622593,3.05069668 210.658593,3.01469668 210.802593,2.78669668 C210.970593,2.52269668 211.138593,2.27069668 211.306593,2.00669668 C211.546593,1.64669668 211.774593,1.31069668 212.002593,0.950696678 C212.158593,0.722696678 212.326593,0.482696678 212.470593,0.254696678 L215.410593,0.254696678 L211.810593,5.52269668 L211.810593,8.72669668 L209.254593,8.72669668 L209.254593,5.48669668 L205.654593,0.254696678 Z M216.290022,0.254696678 L218.858022,0.254696678 L218.858022,6.74669668 L223.634022,6.74669668 L223.634022,8.72669668 L216.290022,8.72669668 L216.290022,0.254696678 Z M224.98145,0.254696678 L232.82945,0.254696678 L232.82945,2.22269668 L227.52545,2.22269668 L227.52545,3.42269668 L232.60145,3.42269668 L232.60145,5.35469668 L227.52545,5.35469668 L227.52545,6.74669668 L232.99745,6.74669668 L232.99745,8.72669668 L224.98145,8.72669668 L224.98145,0.254696678 Z M247.704308,2.96669668 L245.016308,3.14669668 C244.992308,3.06269668 244.956308,2.97869668 244.908308,2.88269668 C244.848308,2.78669668 244.692308,2.57069668 244.476308,2.42669668 C244.260308,2.27069668 243.792308,2.07869668 243.204308,2.07869668 C243.060308,2.07869668 242.388308,2.09069668 241.824308,2.49869668 C241.620308,2.64269668 241.488308,2.78669668 241.428308,2.87069668 C241.332308,2.97869668 241.260308,3.08669668 241.152308,3.30269668 C241.116308,3.37469668 241.080308,3.44669668 241.056308,3.53069668 C240.996308,3.67469668 240.900308,4.05869668 240.900308,4.49069668 C240.900308,4.65869668 240.924308,5.35469668 241.332308,5.96669668 C241.488308,6.20669668 241.716308,6.39869668 241.812308,6.47069668 C241.920308,6.54269668 242.124308,6.66269668 242.400308,6.75869668 C242.796308,6.87869668 243.096308,6.87869668 243.252308,6.87869668 C243.372308,6.87869668 244.260308,6.90269668 244.836308,6.24269668 C244.980308,6.07469668 245.028308,5.97869668 245.076308,5.89469668 C245.112308,5.82269668 245.136308,5.73869668 245.160308,5.66669668 L247.908308,5.78669668 C247.884308,5.87069668 247.764308,6.27869668 247.584308,6.62669668 C247.188308,7.43069668 246.444308,8.04269668 245.724308,8.41469668 C245.220308,8.66669668 244.464308,8.95469668 243.288308,8.95469668 C243.000308,8.95469668 241.668308,8.99069668 240.528308,8.39069668 C240.216308,8.22269668 239.796308,7.89869668 239.772308,7.86269668 C239.508308,7.65869668 239.076308,7.20269668 238.776308,6.55469668 C238.584308,6.17069668 238.320308,5.43869668 238.320308,4.44269668 C238.320308,4.11869668 238.332308,3.41069668 238.728308,2.55869668 C238.896308,2.18669668 239.028308,1.99469668 239.148308,1.82669668 C239.280308,1.65869668 239.364308,1.55069668 239.664308,1.26269668 C240.228308,0.734696678 240.684308,0.554696678 240.912308,0.446696678 C241.392308,0.254696678 242.196308,0.0026966778 243.336308,0.0026966778 C243.660308,0.0026966778 243.996308,0.0266966778 244.320308,0.0866966778 C244.608308,0.134696678 246.144308,0.398696678 247.104308,1.63469668 C247.380308,2.00669668 247.548308,2.43869668 247.596308,2.55869668 C247.644308,2.69069668 247.680308,2.83469668 247.704308,2.96669668 Z M248.991736,0.254696678 L251.547736,0.254696678 L251.547736,5.03069668 C251.547736,5.13869668 251.547736,5.23469668 251.559736,5.34269668 C251.607736,5.75069668 251.715736,5.97869668 251.835736,6.15869668 C251.919736,6.30269668 252.003736,6.36269668 252.075736,6.43469668 C252.135736,6.48269668 252.207736,6.54269668 252.327736,6.61469668 C252.447736,6.67469668 252.603736,6.72269668 252.627736,6.73469668 C252.807736,6.79469668 253.035736,6.86669668 253.431736,6.86669668 C254.043736,6.86669668 254.427736,6.68669668 254.691736,6.45869668 C254.787736,6.37469668 254.979736,6.18269668 255.087736,5.89469668 C255.195736,5.63069668 255.219736,5.39069668 255.243736,4.87469668 L255.243736,0.254696678 L257.787736,0.254696678 L257.787736,5.45069668 C257.775736,5.67869668 257.751736,5.90669668 257.727736,6.12269668 C257.595736,7.03469668 257.271736,7.53869668 256.815736,7.95869668 C256.167736,8.53469668 255.219736,8.87069668 253.731736,8.94269668 C253.587736,8.94269668 253.431736,8.95469668 253.287736,8.95469668 C253.119736,8.95469668 251.199736,9.00269668 250.047736,7.99469668 C249.783736,7.76669668 249.591736,7.52669668 249.519736,7.41869668 C249.423736,7.28669668 249.315736,7.09469668 249.219736,6.78269668 C249.051736,6.32669668 249.003736,6.00269668 248.991736,5.11469668 L248.991736,0.254696678 Z M259.903165,0.254696678 L264.547165,0.254696678 C264.919165,0.254696678 265.291165,0.266696678 265.651165,0.290696678 C265.843165,0.302696678 266.515165,0.338696678 267.151165,0.710696678 C267.643165,0.998696678 268.147165,1.62269668 268.147165,2.61869668 C268.147165,2.73869668 268.159165,3.53069668 267.727165,4.11869668 C267.415165,4.51469668 266.983165,4.76669668 266.911165,4.81469668 C267.091165,4.92269668 267.355165,5.03069668 267.559165,5.43869668 C267.607165,5.52269668 267.631165,5.60669668 267.667165,5.70269668 C267.703165,5.81069668 267.739165,5.93069668 267.763165,6.03869668 C267.823165,6.29069668 267.835165,6.54269668 267.871165,6.79469668 C268.027165,7.80269668 268.183165,8.18669668 268.435165,8.72669668 L265.771165,8.72669668 C265.651165,8.45069668 265.519165,8.13869668 265.423165,7.55069668 C265.375165,7.25069668 265.351165,6.96269668 265.267165,6.67469668 C265.219165,6.53069668 265.195165,6.44669668 265.159165,6.38669668 C265.003165,6.11069668 264.679165,6.01469668 264.607165,5.99069668 C264.439165,5.95469668 264.199165,5.95469668 264.163165,5.94269668 L262.447165,5.94269668 L262.447165,8.72669668 L259.903165,8.72669668 L259.903165,0.254696678 Z M262.447165,2.22269668 L262.447165,4.03469668 L264.235165,4.03469668 C264.727165,4.01069668 265.003165,4.01069668 265.219165,3.86669668 C265.435165,3.73469668 265.615165,3.51869668 265.615165,3.12269668 C265.615165,3.06269668 265.615165,2.93069668 265.567165,2.78669668 C265.411165,2.30669668 264.991165,2.24669668 264.643165,2.22269668 L262.447165,2.22269668 Z M272.398593,0.254696678 L275.578593,0.254696678 L278.854593,8.72669668 L276.070593,8.72669668 L275.494593,7.01069668 L272.470593,7.01069668 L271.906593,8.72669668 L269.110593,8.72669668 L272.398593,0.254696678 Z M273.994593,2.45069668 L273.082593,5.18669668 L274.894593,5.18669668 L273.994593,2.45069668 Z M277.766022,0.254696678 L285.554022,0.254696678 L285.554022,2.22269668 L282.938022,2.22269668 L282.938022,8.72669668 L280.382022,8.72669668 L280.382022,2.22269668 L277.766022,2.22269668 L277.766022,0.254696678 Z M290.453451,0.0026966778 C292.205451,-0.0453033222 293.357451,0.554696678 294.101451,1.22669668 C294.245451,1.35869668 294.389451,1.50269668 294.497451,1.64669668 C294.605451,1.76669668 294.689451,1.89869668 294.785451,2.04269668 C294.857451,2.15069668 294.929451,2.27069668 294.989451,2.37869668 C295.193451,2.75069668 295.481451,3.53069668 295.481451,4.50269668 C295.481451,4.81469668 295.481451,6.19469668 294.425451,7.39469668 C294.341451,7.47869668 294.161451,7.68269668 293.921451,7.87469668 C293.621451,8.12669668 292.937451,8.57069668 292.121451,8.77469668 C291.857451,8.84669668 291.293451,8.95469668 290.597451,8.95469668 C289.301451,8.95469668 288.545451,8.66669668 287.945451,8.34269668 C287.297451,7.98269668 287.057451,7.73069668 286.793451,7.45469668 C286.733451,7.38269668 286.661451,7.29869668 286.601451,7.21469668 C286.433451,7.01069668 286.313451,6.87869668 286.121451,6.45869668 C285.929451,6.07469668 285.677451,5.41469668 285.677451,4.44269668 C285.677451,4.13069668 285.701451,3.15869668 286.289451,2.18669668 C286.373451,2.03069668 286.445451,1.93469668 286.673451,1.65869668 C287.177451,1.05869668 287.621451,0.794696678 287.921451,0.638696678 C289.013451,0.0506966778 290.093451,0.0146966778 290.453451,0.0026966778 Z M290.573451,2.06669668 C290.477451,2.06669668 289.397451,2.07869668 288.749451,2.89469668 C288.533451,3.18269668 288.257451,3.74669668 288.257451,4.49069668 C288.257451,4.80269668 288.353451,5.29469668 288.485451,5.60669668 C288.569451,5.78669668 288.713451,6.01469668 288.809451,6.13469668 C289.421451,6.87869668 290.465451,6.89069668 290.573451,6.89069668 C290.705451,6.89069668 291.293451,6.86669668 291.785451,6.60269668 C291.965451,6.50669668 292.109451,6.37469668 292.157451,6.33869668 C292.481451,6.02669668 292.589451,5.79869668 292.673451,5.61869668 C292.781451,5.36669668 292.901451,5.01869668 292.901451,4.46669668 C292.901451,4.28669668 292.889451,3.62669668 292.493451,3.01469668 C292.433451,2.93069668 292.337451,2.77469668 292.133451,2.59469668 C291.989451,2.47469668 291.773451,2.33069668 291.593451,2.25869668 C291.497451,2.22269668 291.341451,2.16269668 291.113451,2.11469668 C290.933451,2.09069668 290.753451,2.06669668 290.573451,2.06669668 Z M296.840879,0.254696678 L301.484879,0.254696678 C301.856879,0.254696678 302.228879,0.266696678 302.588879,0.290696678 C302.780879,0.302696678 303.452879,0.338696678 304.088879,0.710696678 C304.580879,0.998696678 305.084879,1.62269668 305.084879,2.61869668 C305.084879,2.73869668 305.096879,3.53069668 304.664879,4.11869668 C304.352879,4.51469668 303.920879,4.76669668 303.848879,4.81469668 C304.028879,4.92269668 304.292879,5.03069668 304.496879,5.43869668 C304.544879,5.52269668 304.568879,5.60669668 304.604879,5.70269668 C304.640879,5.81069668 304.676879,5.93069668 304.700879,6.03869668 C304.760879,6.29069668 304.772879,6.54269668 304.808879,6.79469668 C304.964879,7.80269668 305.120879,8.18669668 305.372879,8.72669668 L302.708879,8.72669668 C302.588879,8.45069668 302.456879,8.13869668 302.360879,7.55069668 C302.312879,7.25069668 302.288879,6.96269668 302.204879,6.67469668 C302.156879,6.53069668 302.132879,6.44669668 302.096879,6.38669668 C301.940879,6.11069668 301.616879,6.01469668 301.544879,5.99069668 C301.376879,5.95469668 301.136879,5.95469668 301.100879,5.94269668 L299.384879,5.94269668 L299.384879,8.72669668 L296.840879,8.72669668 L296.840879,0.254696678 Z M299.384879,2.22269668 L299.384879,4.03469668 L301.172879,4.03469668 C301.664879,4.01069668 301.940879,4.01069668 302.156879,3.86669668 C302.372879,3.73469668 302.552879,3.51869668 302.552879,3.12269668 C302.552879,3.06269668 302.552879,2.93069668 302.504879,2.78669668 C302.348879,2.30669668 301.928879,2.24669668 301.580879,2.22269668 L299.384879,2.22269668 Z" id="JAPANESE-BEAUTY-&amp;-LI-Copy" fill="#1D1E1C"></path>
    </g>
</svg>