<?xml version="1.0" encoding="UTF-8"?>
<svg width="50px" height="50px" viewBox="0 0 50 50" version="1.1" xmlns="http://www.w3.org/2000/svg" xmlns:xlink="http://www.w3.org/1999/xlink">
    <!-- Generator: Sketch 52.5 (67469) - http://www.bohemiancoding.com/sketch -->
    <title>icons/social/instagram</title>
    <desc>Created with Sketch.</desc>
    <defs>
        <path d="M22.2645777,0.00762495393 C23.0765321,0.00635412828 23.9825157,0.00762495393 25.0003177,0.00762495393 C33.1427337,0.00762495393 34.1078031,0.036853944 37.3232188,0.182998894 C40.296573,0.31897724 41.9103165,0.815870071 42.9852984,1.2333363 C44.4084423,1.78614546 45.4230676,2.4469748 46.4897902,3.51446835 C47.5571481,4.5819619 48.2178935,5.59862242 48.7719031,7.02194716 C49.1893163,8.09579484 49.6867813,9.70974342 49.822107,12.6834755 C49.9682334,15.8986644 50,16.8644919 50,25.0041302 C50,33.1437685 49.9682334,34.109596 49.822107,37.3247849 C49.6861459,40.2985169 49.1893163,41.9124655 48.7719031,42.9863132 C48.2191642,44.4096379 47.5571481,45.4231214 46.4897902,46.4899795 C45.4224323,47.5574731 44.4090776,48.2183024 42.9852984,48.7711116 C41.9115872,49.1904841 40.296573,49.6861061 37.3232188,49.8220844 C34.1084385,49.9682294 33.1427337,50 25.0003177,50 C16.8572663,50 15.8921969,49.9682294 12.6774165,49.8220844 C9.70406231,49.6848352 8.09031881,49.1879424 7.01470158,48.7704762 C5.59155771,48.217667 4.57502637,47.5568377 3.50766846,46.4893441 C2.44031055,45.4218506 1.77956518,44.4077317 1.2255556,42.9837716 C0.808142416,41.9099239 0.310677391,40.2959753 0.175351656,37.3222433 C0.0292252761,34.1070544 0,33.1412269 0,24.9965052 C0,16.8517836 0.0292252761,15.8910394 0.175351656,12.6758505 C0.311312723,9.70211847 0.808142416,8.08816988 1.2255556,7.01305138 C1.77829451,5.58972665 2.44031055,4.57306612 3.50766846,3.50557257 C4.57502637,2.43807902 5.59155771,1.77724968 7.01470158,1.22316969 C8.08968348,0.803797227 9.70406231,0.308175221 12.6774165,0.171561463 C15.490667,0.0444788979 16.5808968,0.00635412828 22.2645777,0 L22.2645777,0.00762495393 Z M41.2787964,5.07186519 C39.2584404,5.07186519 37.6192836,6.70932405 37.6192836,8.73057225 C37.6192836,10.751185 39.2584404,12.3905501 41.2787964,12.3905501 C43.2991525,12.3905501 44.9383093,10.751185 44.9383093,8.73057225 C44.9383093,6.70995946 43.2991525,5.07059437 41.2787964,5.07059437 L41.2787964,5.07186519 Z M25.0003177,9.34819352 C16.351542,9.34819352 9.33938169,16.3612449 9.33938169,25.0111197 C9.33938169,33.6609945 16.351542,40.6708689 25.0003177,40.6708689 C33.6490934,40.6708689 40.6587123,33.6609945 40.6587123,25.0111197 C40.6587123,16.3612449 33.648458,9.34819352 24.9996823,9.34819352 L25.0003177,9.34819352 Z M25.0003177,14.8445145 C30.614112,14.8445145 35.1656311,19.3959766 35.1656311,25.0111197 C35.1656311,30.6256275 30.614112,35.177725 25.0003177,35.177725 C19.385888,35.177725 14.8350043,30.6256275 14.8350043,25.0111197 C14.8350043,19.3959766 19.385888,14.8445145 25.0003177,14.8445145 Z" id="path-1"></path>
    </defs>
    <g id="Page-1" stroke="none" stroke-width="1" fill="none" fill-rule="evenodd">
        <g id="osakakuma_website" transform="translate(-531.000000, -585.000000)">
            <g id="Group-13" transform="translate(401.000000, 582.000000)">
                <g id="Group" transform="translate(3.000000, 0.000000)">
                    <g id="icons/social/instagram" transform="translate(127.000000, 3.000000)">
                        <mask id="mask-2" fill="white">
                            <use xlink:href="#path-1"></use>
                        </mask>
                        <use id="Mask" fill="#1D1E1C" xlink:href="#path-1"></use>
                    </g>
                </g>
            </g>
        </g>
    </g>
</svg>