<?xml version="1.0" encoding="UTF-8"?>
<svg width="48px" height="48px" viewBox="0 0 48 48" version="1.1" xmlns="http://www.w3.org/2000/svg" xmlns:xlink="http://www.w3.org/1999/xlink">
    <!-- Generator: Sketch 52.5 (67469) - http://www.bohemiancoding.com/sketch -->
    <title>Fill 1</title>
    <desc>Created with Sketch.</desc>
    <g id="Page-1" stroke="none" stroke-width="1" fill="none" fill-rule="evenodd">
        <g id="osakakuma_website" transform="translate(-404.000000, -587.000000)" fill="#1D1E1C">
            <g id="Group-13" transform="translate(401.000000, 582.000000)">
                <g id="Group" transform="translate(3.000000, 0.000000)">
                    <path d="M0,47 L0,11 C-4.05812251e-16,7.6862915 2.6862915,5 6,5 L42,5 C45.3137085,5 48,7.6862915 48,11 L48,47 C48,50.3137085 45.3137085,53 42,53 L33.1875,53 C33.1898437,47.078375 33.1922813,41.1568438 33.1947187,35.2352188 C33.1950937,34.5129687 33.1952812,34.512125 33.897,34.5118437 C35.49075,34.511375 37.0844063,34.5122188 38.6780625,34.5114687 C39.429375,34.5110938 39.4059375,34.5070625 39.4990313,33.738875 C39.6864375,32.1921875 39.9040313,30.6491563 40.105125,29.1041562 C40.2008437,28.3693437 40.2872812,27.6334063 40.386375,26.8295 L39.7538438,26.8295 C37.7383125,26.8294062 35.7226875,26.8172187 33.7073437,26.83925 C33.2849062,26.8438437 33.180375,26.7109062 33.1861875,26.3074062 C33.2078437,24.8234375 33.191625,23.3389063 33.1979063,21.8546563 C33.199125,21.5754687 33.2008125,21.2871875 33.2663438,21.018875 C33.5697187,19.7762187 34.5876563,19.0153437 35.9654063,19.0026875 C37.34025,18.9900312 38.715375,18.9919062 40.090125,19.0054063 C40.4057813,19.0084063 40.530375,18.9260937 40.528125,18.5880312 C40.5152813,16.5725 40.5169688,14.5569687 40.5269063,12.5414375 C40.5284063,12.22325 40.4316563,12.0985625 40.0994063,12.100625 C37.959,12.1136563 35.8168125,12.0605937 33.678375,12.1271562 C31.3090313,12.2009375 29.2962188,13.1399375 27.6905625,14.9045938 C26.1660938,16.5800938 25.5137813,18.5834375 25.501875,20.8175938 C25.4922187,22.6299687 25.4865938,24.442625 25.5091875,26.2547187 C25.5147188,26.6944063 25.4085937,26.8480625 24.9424687,26.8402813 C23.2710937,26.8125312 21.5990625,26.829125 19.9272188,26.8296875 C19.2823125,26.829875 19.28175,26.8309062 19.2816562,27.4552812 C19.281375,29.6114375 19.2815625,31.7675937 19.2815625,33.92375 L19.2815625,34.4713438 C19.5218438,34.4865312 19.7204062,34.5096875 19.9189687,34.5099687 C21.5595,34.5129687 23.200125,34.5110938 24.8406562,34.5120312 C25.4983125,34.5124062 25.4995313,34.5139062 25.4995313,35.18825 C25.5,41.1254375 25.4999063,47.0627188 25.5,53 L6,53 C2.6862915,53 4.05812251e-16,50.3137085 0,47 Z" id="Fill-1"></path>
                </g>
            </g>
        </g>
    </g>
</svg>