<?xml version="1.0" encoding="UTF-8"?>
<svg width="46px" height="46px" viewBox="0 0 46 46" version="1.1" xmlns="http://www.w3.org/2000/svg" xmlns:xlink="http://www.w3.org/1999/xlink">
    <!-- Generator: Sketch 52.5 (67469) - http://www.bohemiancoding.com/sketch -->
    <title>icons/social/instagram copy 2</title>
    <desc>Created with Sketch.</desc>
    <defs>
        <path d="M20.4834115,0.00701495762 C21.2304095,0.00584579801 22.0639144,0.00701495762 23.0002923,0.00701495762 C30.491315,0.00701495762 31.3791789,0.0339056285 34.3373613,0.168358983 C37.0728472,0.29345906 38.5574912,0.750600465 39.5464745,1.13466939 C40.8557669,1.64325382 41.7892222,2.25121682 42.770607,3.23331088 C43.7525763,4.21540495 44.360462,5.15073263 44.8701508,6.46019139 C45.254171,7.44813125 45.7118388,8.93296395 45.8363385,11.6687974 C45.9707747,14.6267712 46,15.5153325 46,23.0037998 C46,30.492267 45.9707747,31.3808283 45.8363385,34.3388021 C45.7112543,37.0746356 45.254171,38.5594683 44.8701508,39.5474082 C44.361631,40.8568669 43.7525763,41.7892717 42.770607,42.7707812 C41.7886377,43.7528752 40.8563514,44.3608382 39.5464745,44.8694227 C38.5586602,45.2552453 37.0728472,45.7112176 34.3373613,45.8363177 C31.3797634,45.970771 30.491315,46 23.0002923,46 C15.508685,46 14.6208211,45.970771 11.6632232,45.8363177 C8.92773733,45.7100484 7.4430933,45.252907 6.45352546,44.8688381 C5.14423309,44.3602537 4.20902426,43.7522907 3.22705498,42.7701966 C2.24508571,41.7881025 1.63719996,40.8551132 1.12751115,39.5450698 C0.743491023,38.55713 0.2858232,37.0722973 0.161323524,34.3364638 C0.026887254,31.37849 0,30.4899287 0,22.9967848 C0,15.5036409 0.026887254,14.6197563 0.161323524,11.6617825 C0.286407705,8.92594899 0.743491023,7.44111629 1.12751115,6.45200727 C1.63603095,5.14254851 2.24508571,4.20722083 3.22705498,3.22512676 C4.20902426,2.2430327 5.14423309,1.6350697 6.45352546,1.12531612 C7.4425088,0.739493449 8.92773733,0.283521204 11.6632232,0.157836546 C14.2514136,0.0409205861 15.2544251,0.00584579801 20.4834115,0 L20.4834115,0.00701495762 Z M37.9764927,4.66611598 C36.1177652,4.66611598 34.6097409,6.17257812 34.6097409,8.03212647 C34.6097409,9.89109024 36.1177652,11.3993061 37.9764927,11.3993061 C39.8352203,11.3993061 41.3432445,9.89109024 41.3432445,8.03212647 C41.3432445,6.1731627 39.8352203,4.66494682 37.9764927,4.66494682 L37.9764927,4.66611598 Z M23.0002923,8.60033804 C15.0434186,8.60033804 8.59223116,15.0523453 8.59223116,23.0102301 C8.59223116,30.968115 15.0434186,37.4171994 23.0002923,37.4171994 C30.9571659,37.4171994 37.4060153,30.968115 37.4060153,23.0102301 C37.4060153,15.0523453 30.9565814,8.60033804 22.9997077,8.60033804 L23.0002923,8.60033804 Z M23.0002923,13.6569533 C28.164983,13.6569533 32.3523806,17.8442984 32.3523806,23.0102301 C32.3523806,28.1755773 28.164983,32.363507 23.0002923,32.363507 C17.835017,32.363507 13.6482039,28.1755773 13.6482039,23.0102301 C13.6482039,17.8442984 17.835017,13.6569533 23.0002923,13.6569533 Z" id="path-1"></path>
    </defs>
    <g id="Page-1" stroke="none" stroke-width="1" fill="none" fill-rule="evenodd">
        <g id="osakakuma_website" transform="translate(-685.000000, -4944.000000)">
            <g id="Group-16" transform="translate(482.000000, 4944.000000)">
                <g id="icons/social/instagram-copy-2" transform="translate(203.000000, 0.000000)">
                    <mask id="mask-2" fill="white">
                        <use xlink:href="#path-1"></use>
                    </mask>
                    <use id="Mask" fill="#00C4B3" xlink:href="#path-1"></use>
                </g>
            </g>
        </g>
    </g>
</svg>