<?xml version="1.0" encoding="UTF-8"?>
<svg width="44px" height="45px" viewBox="0 0 44 45" version="1.1" xmlns="http://www.w3.org/2000/svg" xmlns:xlink="http://www.w3.org/1999/xlink">
    <!-- Generator: Sketch 52.5 (67469) - http://www.bohemiancoding.com/sketch -->
    <title>Fill 1 Copy 2</title>
    <desc>Created with Sketch.</desc>
    <g id="Page-1" stroke="none" stroke-width="1" fill="none" fill-rule="evenodd">
        <g id="osakakuma_website" transform="translate(-588.000000, -4944.000000)" fill="#00C4B3">
            <g id="Group-16" transform="translate(482.000000, 4944.000000)">
                <path d="M106,39 L106,6 C106,2.6862915 108.686292,6.08718376e-16 112,0 L144,0 C147.313708,-6.08718376e-16 150,2.6862915 150,6 L150,39 C150,42.3137085 147.313708,45 144,45 L136.421875,45 C136.424023,39.4484766 136.426258,33.897041 136.428492,28.3455176 C136.428836,27.6684082 136.429008,27.6676172 137.07225,27.6673535 C138.533187,27.6669141 139.994039,27.6677051 141.454891,27.667002 C142.143594,27.6666504 142.122109,27.6628711 142.207445,26.9426953 C142.379234,25.4926758 142.578695,24.046084 142.763031,22.5976465 C142.850773,21.9087598 142.930008,21.2188184 143.020844,20.4651562 L142.441023,20.4651562 C140.593453,20.4650684 138.745797,20.4536426 136.898398,20.4742969 C136.511164,20.4786035 136.415344,20.3539746 136.420672,19.9756934 C136.440523,18.5844727 136.425656,17.1927246 136.431414,15.8012402 C136.432531,15.539502 136.434078,15.2692383 136.494148,15.0176953 C136.772242,13.8527051 137.705352,13.1393848 138.968289,13.1275195 C140.228563,13.1156543 141.489094,13.1174121 142.749281,13.1300684 C143.038633,13.1328809 143.152844,13.0557129 143.150781,12.7387793 C143.139008,10.8492188 143.140555,8.9596582 143.149664,7.07009766 C143.151039,6.77179687 143.062352,6.65490234 142.757789,6.65683594 C140.79575,6.66905273 138.832078,6.61930664 136.871844,6.68170898 C134.699945,6.75087891 132.854867,7.63119141 131.383016,9.28555664 C129.985586,10.8563379 129.387633,12.7344727 129.376719,14.8289941 C129.367867,16.5280957 129.362711,18.2274609 129.383422,19.9262988 C129.388492,20.3385059 129.291211,20.4825586 128.86393,20.4752637 C127.331836,20.449248 125.799141,20.4648047 124.266617,20.465332 C123.675453,20.4655078 123.674937,20.4664746 123.674852,21.0518262 C123.674594,23.0732227 123.674766,25.0946191 123.674766,27.1160156 L123.674766,27.6293848 C123.895023,27.643623 124.077039,27.665332 124.259055,27.6655957 C125.762875,27.6684082 127.266781,27.6666504 128.770602,27.6675293 C129.373453,27.6678809 129.37457,27.6692871 129.37457,28.3014844 C129.375,33.8675977 129.374914,39.4337988 129.375,45 L112,45 C108.686292,45 106,42.3137085 106,39 Z" id="Fill-1-Copy-2"></path>
            </g>
        </g>
    </g>
</svg>