<?xml version="1.0" encoding="UTF-8"?>
<svg width="36px" height="45px" viewBox="0 0 36 45" version="1.1" xmlns="http://www.w3.org/2000/svg" xmlns:xlink="http://www.w3.org/1999/xlink">
    <!-- Generator: Sketch 52.5 (67469) - http://www.bohemiancoding.com/sketch -->
    <title>Group 3 Copy 2</title>
    <desc>Created with Sketch.</desc>
    <g id="Page-1" stroke="none" stroke-width="1" fill="none" fill-rule="evenodd">
        <g id="osakakuma_website" transform="translate(-780.000000, -4945.000000)" fill="#00C4B3">
            <g id="Group-16" transform="translate(482.000000, 4944.000000)">
                <g id="Group-3-Copy-2" transform="translate(298.000000, 1.000000)">
                    <path d="M19.4180914,0 L28.2039791,0 C28.2489366,0.78174494 28.2638294,1.55443456 28.3444364,2.320216 C28.4658124,3.47378923 28.764319,4.58208585 29.3848815,5.57779776 C30.335877,7.10347934 31.7471517,7.88522428 33.505986,8.00705102 C34.3028415,8.06222313 35.1099357,7.97073639 35.96841,7.94403719 C35.9728778,8.01171871 35.9907491,8.15641715 35.9908422,8.30111558 C35.9922384,10.9610461 35.9840474,13.6210701 35.999964,16.2810006 C36.0021979,16.6538558 35.9011133,16.7768962 35.5249782,16.8256269 C33.1987299,17.1272531 30.9554156,16.7916461 28.7626436,16.0095277 C28.6192077,15.9583698 28.4767027,15.9043179 28.2483781,15.8201128 L28.2483781,16.3940521 C28.2483781,21.216244 28.250519,26.0384359 28.2478197,30.8606278 C28.2438172,37.9276991 22.9906772,43.9412726 16.0100706,44.874064 C8.04886927,45.9379242 0.791071327,40.1385045 0.059371663,32.1285595 C-0.624764265,24.6401823 4.67863884,17.8805251 12.0879706,16.8161981 C13.869051,16.5603153 15.6435227,16.6342515 17.4007747,17.0503295 C17.6284477,17.1041947 17.7485205,17.1724363 17.747869,17.4376545 C17.7402364,20.5788241 17.7429358,23.7199936 17.7429358,26.9220299 C17.6184882,26.8447329 17.531924,26.8002965 17.4557848,26.7422304 C15.7367886,25.4320094 13.8611392,25.1489606 11.9055343,26.0642016 C9.93177889,26.9879377 8.92037467,28.6299381 8.84442162,30.8089098 C8.7532035,33.4302852 10.912653,35.8631793 13.5065985,36.1146745 C16.3109974,36.3865208 18.8343885,34.5405423 19.3073266,31.8586735 C19.3715516,31.4936601 19.3991032,31.1175375 19.3993824,30.7464561 C19.4045949,23.3265073 19.4020817,15.9065584 19.4041295,8.48660963 C19.404781,5.82677241 19.4132513,3.1669352 19.4180914,0.507097984 C19.4183707,0.354557832 19.4180914,0.202111034 19.4180914,0" id="Fill-1"></path>
                </g>
            </g>
        </g>
    </g>
</svg>