<?xml version="1.0" encoding="UTF-8"?>
<svg width="94px" height="34px" viewBox="0 0 94 34" version="1.1" xmlns="http://www.w3.org/2000/svg" xmlns:xlink="http://www.w3.org/1999/xlink">
    <!-- Generator: Sketch 52.5 (67469) - http://www.bohemiancoding.com/sketch -->
    <title>Group 19 Copy 2</title>
    <desc>Created with Sketch.</desc>
    <g id="Page-1" stroke="none" stroke-width="1" fill="none" fill-rule="evenodd">
        <g id="osakakuma_website" transform="translate(-865.000000, -4954.000000)" fill="#00C4B3">
            <g id="Group-16" transform="translate(482.000000, 4944.000000)">
                <g id="Group-19-Copy-2" transform="translate(383.000000, 10.000000)">
                    <path d="M77.3905419,8.43153274 L77.3905419,13.2472208 L80.5242872,13.2472208 C80.5242872,12.4154381 80.5240403,11.6835188 80.5245341,10.9513523 C80.5257688,8.30052388 80.4867544,8.26171559 77.8629125,8.36454519 C77.7411777,8.36948892 77.6206775,8.39816256 77.3905419,8.43153274 M81.1692594,28.1664114 L87.5179888,28.1664114 C87.5179888,26.7831555 87.5219397,25.489134 87.5165073,24.1951125 C87.5125565,23.2486353 87.5086056,22.3019108 87.4819376,21.3556808 C87.4572449,20.4838539 86.942403,19.8691009 86.1354469,19.849326 C83.2308495,19.7793722 80.3235359,19.8221355 77.3149824,19.8221355 L77.3149824,33.4725176 L70.9736608,33.4725176 L70.9736608,19.8522923 L64.7555556,19.8522923 L64.7555556,13.3638929 L70.8331596,13.3638929 L70.8331596,8.39791537 L67.0319717,8.39791537 L67.0319717,1.94857146 L70.831678,1.94857146 C70.8803225,1.2245621 70.9181023,0.663448663 70.962796,0 L77.1969515,0 C77.2488061,0.574708696 77.3021422,1.16795638 77.3710347,1.93225715 C78.2542911,1.93225715 79.1054471,1.92286406 79.9563561,1.93374027 C83.7185295,1.98243602 86.7878269,4.93755106 86.9283282,8.69280891 C86.9848743,10.2031186 86.9377114,11.7171362 86.9377114,13.1352453 C87.1969843,13.2615577 87.2673584,13.3196465 87.3436587,13.3292868 C92.2132978,13.9442869 93.9837614,15.9531718 93.9938854,20.8904757 C93.998577,23.1136714 94.0067256,25.3371143 93.9896877,27.5600628 C93.9595626,31.4443521 91.8033997,33.5291233 87.9338132,33.6013018 C85.7497476,33.6423347 83.7995214,33.2213761 82.5342696,31.3083995 C81.971277,30.457089 81.6976823,29.4139619 81.1692594,28.1664114" id="Fill-1"></path>
                    <path d="M64.7555556,27.4957338 L64.7555556,33.603951 L43.8666667,33.603951 C44.602402,32.0278126 45.3723908,30.5623455 45.9761076,29.0263162 C46.4463788,27.8299761 47.1166996,27.3494099 48.380033,27.4682516 C49.7451753,27.5965017 51.1302987,27.4972193 52.5748899,27.4972193 L52.5748899,8.6301047 L48.7932151,8.6301047 L48.7932151,2.10024694 L62.6898829,2.10024694 L62.6898829,8.59395701 C61.7367334,8.59395701 60.7938123,8.62614331 59.8542215,8.58355835 C59.1218163,8.5503817 58.7816606,8.76355405 58.7857045,9.61327241 C58.8116324,15.2250778 58.8094916,20.8371308 58.7838015,26.4489362 C58.7797577,27.2657255 59.0564018,27.530396 59.8230603,27.5093511 C61.4396324,27.4647854 63.0581074,27.4957338 64.7555556,27.4957338" id="Fill-3"></path>
                    <path d="M8.39925537,28.2812384 C9.34283544,28.2812384 10.314637,28.2360903 11.2803035,28.2948075 C12.1416731,28.3468636 12.4076915,28.0194779 12.4010656,27.1633902 C12.3671998,22.9320474 12.3873229,18.7004579 12.3873229,14.4688684 C12.3875683,10.1139233 12.3868321,5.75922491 12.3865867,1.40452654 C12.3865867,0.96291359 12.3865867,0.521547356 12.3865867,0 L18.7980231,0 L18.7980231,1.19482206 C18.7972869,10.191884 18.8115204,19.1891927 18.7729919,28.1862546 C18.7690654,29.1079675 18.6063622,30.0960456 18.2473355,30.9370839 C17.0627683,33.7103638 14.9841927,33.890463 11.7831372,33.3773038 C9.47363601,33.0069904 8.08685552,30.7207182 8.39925537,28.2812384" id="Fill-5"></path>
                    <path d="M44.7503164,0.108666369 C43.8215069,1.86357562 43.0088296,3.4026692 42.1926709,4.93980527 C41.5990783,6.05754445 40.9689302,7.1584001 40.4290519,8.30060818 C40.3121735,8.54774403 40.5103693,8.93900169 40.5635862,9.26419332 C40.8421048,9.18295658 41.1250995,9.11468836 41.3978984,9.01754684 C41.6552794,8.92578848 41.9002265,8.71364315 42.1531312,8.70972813 C43.9682265,8.68281234 45.7840677,8.69529148 47.8276974,8.69529148 C46.5885386,11.0893283 45.4341788,13.3208916 44.2785757,15.5514762 C43.7334751,16.6033941 43.1779302,17.6499288 42.641036,18.705517 C42.2498667,19.4735956 42.5186868,19.8795346 43.3801048,19.8907903 C44.3683481,19.9037588 45.3568402,19.8937266 46.6228561,19.8937266 C45.657491,21.610709 44.8284011,23.1338978 43.9356497,24.6198939 C43.8100677,24.8288583 43.3741365,24.94949 43.0799513,24.9529156 C40.8856233,24.9783632 38.6905492,24.9915765 36.4967185,24.9516922 C35.1854434,24.9279573 34.6773958,24.3810775 34.8477397,23.0815344 C34.9509407,22.2946147 35.2401524,21.5057375 35.5815862,20.7792559 C36.5305386,18.7588592 37.550364,16.7705167 38.6577238,14.5367511 C37.2273323,14.5367511 36.0080677,14.557305 34.7895492,14.532102 C32.8356921,14.4914836 32.0715069,13.5663147 32.8165439,11.7705424 C33.8455704,9.29037504 35.1197926,6.90857267 36.3015069,4.49031164 C36.8212423,3.42640403 37.455618,2.40825325 37.8828455,1.31106794 C38.2779937,0.29732156 38.8986921,0.0208230308 39.9491048,0.0849315393 C41.4618085,0.177668656 42.9849566,0.108666369 44.7503164,0.108666369" id="Fill-7"></path>
                    <path d="M1.62563663,8.57889518 L8.33438815,8.57889518 C8.24171744,10.5993091 8.28374842,12.5748746 8.03434774,14.5145116 C7.53681239,18.3848655 6.97293899,22.2529894 6.24296727,26.0864239 C5.94216727,27.665786 5.25245414,29.2245822 3.56691071,30.2110021 C2.37383865,28.0766084 1.21925279,26.0281951 0.0912527946,23.965906 C-0.0148374411,23.7721405 -0.0236993939,23.471581 0.039853468,23.2532851 C1.39421306,18.6048959 1.70463461,13.8546683 1.52461037,9.05364539 C1.52030599,8.938179 1.57221172,8.82073036 1.62563663,8.57889518" id="Fill-10"></path>
                    <path d="M21.9333333,9.45111122 L28.8680696,9.45111122 C28.8680696,11.3062075 28.7092337,13.1492405 28.904607,14.9575311 C29.2095923,17.7786575 29.7604434,20.5756573 30.1920407,23.3852029 C30.2496378,23.761337 30.3693991,24.2226381 30.2072646,24.5198781 C29.1258609,26.5062233 27.9754421,28.4587911 26.8298443,30.4535806 C25.4886195,29.8986682 24.8763653,28.839268 24.577977,27.7427129 C23.8421556,25.0376355 23.0888267,22.3127744 22.7077219,19.5502757 C22.2543037,16.2632641 22.182244,12.9289644 21.9333333,9.45111122" id="Fill-13"></path>
                    <path d="M42.8222222,27.3038641 C41.6600007,29.4733111 40.6872482,31.3345437 39.6535171,33.1618488 C39.5221229,33.3943237 39.0732533,33.5663503 38.7688446,33.570651 C36.3945541,33.6033838 34.0188117,33.6239314 31.6452471,33.5739959 C30.2016048,33.5436523 29.9811627,33.0899321 30.6502325,31.8166961 C31.4090763,30.3723892 32.1669522,28.9276044 32.9294256,27.4852088 C32.9843547,27.381515 33.0721928,27.2947849 33.0651754,27.3038641 L42.8222222,27.3038641 Z" id="Fill-15"></path>
                    <path d="M87.7440023,8.35936617 C87.7440023,7.14094433 87.7162574,6.09923633 87.7502512,5.05928542 C87.8047411,3.40510332 89.0635091,2.16509427 90.7019572,2.10284281 C92.4246397,2.03732816 93.8308806,3.21885095 93.9838524,4.86023134 C94.1445728,6.58419533 93.0910169,8.14575328 91.4713154,8.33275869 C90.2927826,8.46880827 89.0865049,8.35936617 87.7440023,8.35936617" id="Fill-17"></path>
                </g>
            </g>
        </g>
    </g>
</svg>