<?xml version="1.0" encoding="UTF-8"?>
<svg width="42px" height="53px" viewBox="0 0 42 53" version="1.1" xmlns="http://www.w3.org/2000/svg" xmlns:xlink="http://www.w3.org/1999/xlink">
    <!-- Generator: Sketch 52.5 (67469) - http://www.bohemiancoding.com/sketch -->
    <title>Group 3</title>
    <desc>Created with Sketch.</desc>
    <g id="Page-1" stroke="none" stroke-width="1" fill="none" fill-rule="evenodd">
        <g id="osakakuma_website" transform="translate(-660.000000, -582.000000)" fill="#1D1E1C">
            <g id="Group-13" transform="translate(401.000000, 582.000000)">
                <g id="Group" transform="translate(3.000000, 0.000000)">
                    <g id="Group-3" transform="translate(256.000000, 0.000000)">
                        <path d="M22.65444,0 L32.9046423,0 C32.9570927,0.920721819 32.9744676,1.83077848 33.0685091,2.73269884 C33.2101144,4.09135175 33.5583722,5.39667889 34.2823618,6.56940625 C35.3918565,8.36632011 37.0383436,9.28704193 39.090317,9.43052676 C40.0199817,9.49550725 40.9615917,9.38775619 41.963145,9.35631047 C41.9683574,9.43602426 41.9892073,9.60644686 41.9893159,9.77686946 C41.9909448,12.9096766 41.9813886,16.0425936 41.999958,19.1754007 C42.0025642,19.6145413 41.8846322,19.7594555 41.4458079,19.8168494 C38.7318515,20.1720981 36.1146515,19.7768276 33.5564175,18.855666 C33.3890757,18.7954133 33.2228198,18.7317522 32.9564412,18.6325773 L32.9564412,19.3085503 C32.9564412,24.9880207 32.9589388,30.6674912 32.9557896,36.3469616 C32.9511201,44.6704012 26.8224567,51.7530543 18.6784157,52.8516754 C9.39034748,54.1046663 0.922916548,47.2742386 0.0692669402,37.8403034 C-0.728891643,29.0206591 5.45841197,21.0592851 14.1026323,19.8057445 C16.1805595,19.5043713 18.2507765,19.5914518 20.3009038,20.0814992 C20.5665223,20.1449404 20.7066073,20.2253139 20.7058471,20.537682 C20.6969425,24.2372817 20.7000917,27.9368814 20.7000917,31.7081685 C20.5549029,31.6171299 20.4539114,31.5647936 20.3650823,31.4964047 C18.3595867,29.9532556 16.1713291,29.619887 13.88979,30.6978374 C11.5870754,31.7857933 10.4071038,33.7197049 10.3184919,36.2860493 C10.2120707,39.373447 12.7314285,42.2388556 15.7576983,42.5350611 C19.0294969,42.8552356 21.9734533,40.6810831 22.5252143,37.5224377 C22.6001435,37.092533 22.632287,36.6495442 22.6326128,36.2124927 C22.638694,27.4734419 22.635762,18.7343911 22.6381511,9.99534023 C22.6389112,6.86264307 22.6487932,3.7299459 22.65444,0.597248736 C22.6547658,0.417590335 22.65444,0.238041884 22.65444,0" id="Fill-1"></path>
                    </g>
                </g>
            </g>
        </g>
    </g>
</svg>