<?xml version="1.0" encoding="UTF-8"?>
<svg width="102px" height="37px" viewBox="0 0 102 37" version="1.1" xmlns="http://www.w3.org/2000/svg" xmlns:xlink="http://www.w3.org/1999/xlink">
    <!-- Generator: Sketch 52.5 (67469) - http://www.bohemiancoding.com/sketch -->
    <title>Group 19</title>
    <desc>Created with Sketch.</desc>
    <g id="Page-1" stroke="none" stroke-width="1" fill="none" fill-rule="evenodd">
        <g id="osakakuma_website" transform="translate(-781.000000, -595.000000)" fill="#1D1E1C">
            <g id="Group-13" transform="translate(401.000000, 582.000000)">
                <g id="Group" transform="translate(3.000000, 0.000000)">
                    <g id="Group-19" transform="translate(377.000000, 13.000000)">
                        <path d="M83.976971,9.20930782 L83.976971,14.4692238 L87.377418,14.4692238 C87.377418,13.5607125 87.3771501,12.7612766 87.377686,11.9615706 C87.3790257,9.06621392 87.3366909,9.02382572 84.4895433,9.13614094 C84.3574481,9.14154071 84.2266926,9.17285937 83.976971,9.20930782 M88.0772815,30.7646499 L94.9663283,30.7646499 C94.9663283,29.2537942 94.9706154,27.8404044 94.9647207,26.4270146 C94.9604336,25.3932286 94.9561465,24.3591727 94.9272088,23.3256567 C94.9004147,22.3734072 94.3417564,21.7019458 93.4661232,21.6803467 C90.314326,21.60394 87.1595815,21.650648 83.8949809,21.650648 L83.8949809,36.5602231 L77.0139723,36.5602231 L77.0139723,21.6835866 L70.2666667,21.6835866 L70.2666667,14.5966584 L76.8615136,14.5966584 L76.8615136,9.17258939 L72.7368204,9.17258939 L72.7368204,2.12831937 L76.8599059,2.12831937 C76.9126904,1.33752304 76.9536855,0.724649141 77.0021829,0 L83.7669048,0 C83.8231725,0.627723268 83.8810479,1.27569567 83.9558036,2.11050012 C84.9142308,2.11050012 85.8378255,2.10024056 86.7611523,2.11212006 C90.8435107,2.16530779 94.174025,5.39302034 94.3264837,9.49468567 C94.3878424,11.1443154 94.3366655,12.797995 94.3366655,14.346919 C94.6180042,14.4848832 94.6943676,14.5483305 94.7771615,14.55886 C100.061238,15.2305914 101.982379,17.424788 101.993365,22.8175383 C101.998456,25.2458149 102.007298,27.6743615 101.98881,30.1023681 C101.956121,34.3449674 99.616455,36.6220505 95.417542,36.7008871 C93.0475984,36.7457052 90.9313956,36.2859148 89.5584628,34.1964737 C88.9475559,33.2666333 88.6506766,32.1272819 88.0772815,30.7646499" id="Fill-1"></path>
                        <path d="M70.2666667,30.032105 L70.2666667,36.7037807 L47.6,36.7037807 C48.3983511,34.9822498 49.2338708,33.3815993 49.8889678,31.7038775 C50.3992621,30.3971798 51.1266314,29.8722833 52.4974826,30.0020877 C53.9788072,30.1421683 55.4818135,30.0337275 57.0493486,30.0337275 L57.0493486,9.42619724 L52.9458292,9.42619724 L52.9458292,2.29398629 L68.0251921,2.29398629 L68.0251921,9.38671507 C66.9909234,9.38671507 65.9677538,9.42187043 64.9481977,9.37535719 C64.1534603,9.33912012 63.7843552,9.57195677 63.7887431,10.5000582 C63.8168777,16.6295302 63.8145547,22.7592726 63.7866782,28.8887445 C63.7822902,29.7808794 64.0824785,30.0699646 64.9143846,30.0469784 C66.6685372,29.9983017 68.4247548,30.032105 70.2666667,30.032105" id="Fill-3"></path>
                        <path d="M9.11408562,30.8900692 C10.1379704,30.8900692 11.1924785,30.8407564 12.2403293,30.90489 C13.175007,30.9617481 13.4636652,30.6041624 13.4564754,29.669104 C13.4197274,25.0474368 13.4415632,20.4255001 13.4415632,15.8035635 C13.4418295,11.0468922 13.4410306,6.29049031 13.4407643,1.53408847 C13.4407643,1.05173851 13.4407643,0.569658007 13.4407643,0 L20.3978549,0 L20.3978549,1.30503961 C20.397056,11.1320444 20.4125008,20.9593187 20.3706933,30.7863236 C20.3664326,31.7930607 20.1898824,32.8722851 19.8003003,33.7909058 C18.5149188,36.8200097 16.2594432,37.0167222 12.7859574,36.4562262 C10.2799029,36.0517528 8.77509854,33.5545812 9.11408562,30.8900692" id="Fill-5"></path>
                        <g id="Group-9" transform="translate(35.133333, 0.000000)">
                            <path d="M13.4255206,0.118690405 C12.4176635,2.03548299 11.5358222,3.71655178 10.6502032,5.39548249 C10.0060921,6.61632863 9.32231429,7.8187338 8.73648889,9.06630599 C8.60966349,9.33623914 8.82472698,9.76358874 8.88247302,10.118778 C9.18469524,10.0300475 9.4917746,9.95548181 9.78779048,9.84937937 C10.0670762,9.74915667 10.3328698,9.51744178 10.6072984,9.51316562 C12.5768698,9.48376696 14.5472508,9.49739724 16.7648063,9.49739724 C15.4201873,12.1122744 14.1675841,14.5496905 12.9136317,16.9860375 C12.3221397,18.1349906 11.7193143,19.2780639 11.136727,20.4310259 C10.7122667,21.2699567 11.0039651,21.713342 11.9386952,21.7256359 C13.0110444,21.7398008 14.0836635,21.7288431 15.4574254,21.7288431 C14.4099016,23.6042103 13.5102508,25.2679071 12.5415206,26.8909804 C12.4052508,27.1192209 11.932219,27.2509803 11.6129968,27.254722 C9.23191746,27.2825171 6.85002857,27.2969491 4.46948889,27.2533857 C3.04661587,27.2274614 2.49533016,26.6301341 2.68017143,25.2107134 C2.79215556,24.3512035 3.10598095,23.4895555 3.47647302,22.696059 C4.5061873,20.4892887 5.61280635,18.3175296 6.81440952,15.8777081 C5.26228254,15.8777081 3.93925079,15.900158 2.61702857,15.8726301 C0.496885714,15.8282649 -0.332336508,14.8177528 0.476107937,12.8563277 C1.59271111,10.1473749 2.97537778,7.54586079 4.25766349,4.90452488 C4.82163175,3.74247606 5.50999683,2.63040495 5.97358413,1.43200869 C6.4023619,0.324748281 7.07588571,0.0227438719 8.21569524,0.0927661331 C9.85713968,0.194057877 11.5099175,0.118690405 13.4255206,0.118690405" id="Fill-7"></path>
                        </g>
                        <g id="Group-12" transform="translate(0.000000, 9.175945)">
                            <path d="M1.76398869,0.194318682 L9.04369778,0.194318682 C8.9431402,2.40110772 8.98874828,4.55891113 8.71812202,6.67747191 C8.17824323,10.9048505 7.56638061,15.1297933 6.77428364,19.3168467 C6.44788364,21.0418986 5.69947152,22.7444875 3.87047758,23.8219007 C2.57586747,21.4906178 1.32301899,19.2532465 0.0990189899,17.0007195 C-0.016100202,16.78908 -0.0257163636,16.4607951 0.0432452525,16.2223623 C1.51286949,11.1451778 1.8497099,5.9567607 1.65436444,0.712862685 C1.64969374,0.586744989 1.70601697,0.458462182 1.76398869,0.194318682" id="Fill-10"></path>
                        </g>
                        <path d="M23.8,10.3229383 L31.3249266,10.3229383 C31.3249266,12.3491598 31.1525727,14.3622052 31.3645735,16.3373034 C31.695515,19.4186674 32.2932471,22.4736792 32.7615761,25.5423941 C32.824075,25.9532251 32.9540288,26.4570793 32.7780956,26.7817386 C31.6046575,28.9513161 30.3563308,31.0840005 29.1132353,33.2628013 C27.6578637,32.6567004 26.9935028,31.4995748 26.6697197,30.3018669 C25.8712752,27.347257 25.0538332,24.3710383 24.640294,21.3537102 C24.148287,17.763485 24.0700945,14.1216095 23.8,10.3229383" id="Fill-13"></path>
                        <path d="M46.4666667,29.8225361 C45.2055327,32.1921058 44.1499927,34.2250297 43.0282845,36.2208963 C42.8857078,36.4748161 42.3986365,36.6627115 42.0683208,36.6674089 C39.4919629,36.7031612 36.9140297,36.7256043 34.3384596,36.6710624 C32.7719542,36.6379197 32.532751,36.1423456 33.2587629,34.7516587 C34.0821892,33.1741202 34.9045651,31.5960599 35.7319299,30.0206091 C35.7915338,29.90735 35.8868475,29.8126194 35.8792329,29.8225361 L46.4666667,29.8225361 Z" id="Fill-15"></path>
                        <path d="M95.211577,9.13048417 C95.211577,7.7996678 95.1814708,6.66186642 95.2183576,5.52598421 C95.277485,3.71921044 96.6433823,2.36481553 98.4212727,2.29682162 C100.290567,2.22526351 101.816487,3.51577704 101.982478,5.30856819 C102.156877,7.19156094 101.013657,8.89716635 99.2561082,9.10142226 C97.9772747,9.25002186 96.6683351,9.13048417 95.211577,9.13048417" id="Fill-17"></path>
                    </g>
                </g>
            </g>
        </g>
    </g>
</svg>