<?xml version="1.0" encoding="UTF-8"?>
<svg width="52px" height="47px" viewBox="0 0 52 47" version="1.1" xmlns="http://www.w3.org/2000/svg" xmlns:xlink="http://www.w3.org/1999/xlink">
    <!-- Generator: Sketch 52.5 (67469) - http://www.bohemiancoding.com/sketch -->
    <title>Group 7 Copy 2</title>
    <desc>Created with Sketch.</desc>
    <g id="Page-1" stroke="none" stroke-width="1" fill="none" fill-rule="evenodd">
        <g id="osakakuma_website" transform="translate(-482.000000, -4948.000000)" fill="#00C4B3">
            <g id="Group-16" transform="translate(482.000000, 4944.000000)">
                <g id="Group-7-Copy-2" transform="translate(0.000000, 4.000000)">
                    <g id="Group-3">
                        <path d="M25.822224,7.58967714 C24.4520694,7.58113662 23.2975394,8.77037443 23.3090004,10.1785069 C23.3202367,11.5587949 24.4739802,12.7493197 25.7984031,12.7472138 C27.1247362,12.7452249 28.2758953,11.5530622 28.2829742,10.1740611 C28.290053,8.78710449 27.1578833,7.59810066 25.822224,7.58967714 M15.3613393,10.1577991 C15.3561706,8.76674764 14.2242256,7.59295295 12.884746,7.58967714 C11.5165016,7.58628433 10.3635446,8.78897638 10.3873656,10.194886 C10.4108495,11.5785668 11.5734696,12.7632419 12.8922744,12.7472138 C14.2248998,12.7310687 15.366508,11.5338753 15.3613393,10.1577991 M38.2741814,13.6704086 C37.5274168,13.6002126 36.8976221,13.4960885 36.2665914,13.4884839 C29.8530226,13.4105663 24.2055449,15.3692696 19.8156341,20.4353174 C17.0564478,23.6197605 15.7891054,27.400051 16.1142839,31.7111404 C16.1561953,32.2663911 16.2605806,32.816494 16.3557521,33.5136576 C15.5470754,33.3416773 14.8227834,33.2087728 14.1093906,33.029071 C13.5116193,32.8786175 12.9107019,32.7148267 12.340909,32.4792021 C11.9169634,32.303946 11.5679638,32.3542531 11.1708729,32.5358269 C9.30609625,33.3883577 7.43233054,34.2200637 5.56126155,35.0576194 C5.39361593,35.1326122 5.22136342,35.1962566 4.93068029,35.3139519 C5.78126834,33.5288668 6.58196722,31.8483737 7.40266671,30.126114 C7.16681673,29.9425514 6.9469223,29.7689332 6.72444353,29.5989418 C3.49310783,27.1285093 1.16078864,23.9997551 0.321324525,19.8464897 C-0.615333601,15.2123815 0.524139775,11.0718684 3.37096922,7.4558367 C6.44510906,3.55106529 10.5095042,1.36317189 15.2344815,0.503738442 C20.7977993,-0.508254387 26.0776252,0.342638543 30.9186735,3.47139279 C34.3532739,5.69122539 36.8525645,8.73258557 38.0699055,12.813666 C38.1456382,13.0673077 38.1938419,13.3297239 38.2741814,13.6704086" id="Fill-1"></path>
                    </g>
                    <g id="Group-6" transform="translate(19.157895, 16.307079)">
                        <path d="M18.8296675,9.98922661 C18.8390184,11.3890229 19.9761763,12.5480264 21.330343,12.5378292 C22.7065184,12.5275161 23.8355798,11.3358353 23.8188167,9.91124127 C23.8026237,8.52929008 22.6490447,7.39010158 21.2821061,7.40609263 C19.9143693,7.42231543 18.8203167,8.57459806 18.8296675,9.98922661 M11.4771412,7.40609263 C10.1271939,7.40887368 8.97076404,8.58073955 8.95947456,9.95712863 C8.94852719,11.3052437 10.124457,12.5177824 11.4615184,12.5369022 C12.8142026,12.5562537 14.0129395,11.3325907 14.0022202,9.94380275 C13.9915009,8.57019473 12.8302816,7.4031957 11.4771412,7.40609263 M29.4004921,29.8963458 C27.0608342,28.8767426 24.8477553,28.0033763 22.7197465,26.9522545 C21.3354746,26.2684632 20.0197377,26.2626694 18.5225711,26.428142 C12.6922991,27.0726508 7.43813246,25.6196669 3.29911491,21.2180725 C-1.28463947,16.3435832 -0.974235965,9.42397775 3.89597456,4.75076717 C6.53337807,2.22012555 9.70754474,0.804801741 13.2689746,0.262264809 C17.495457,-0.381548773 21.5537377,0.163769211 25.3670711,2.1868688 C27.9865711,3.57658376 30.1170886,5.51520889 31.4946325,8.20958496 C33.7215096,12.5655238 32.9285096,17.5955202 29.4105272,21.2570072 C28.62015,22.0796193 27.6924746,22.7711742 26.79365,23.4781409 C26.488036,23.718586 26.4374044,23.8853333 26.6086851,24.2274027 C27.5271237,26.0623178 28.4243518,27.908357 29.4004921,29.8963458" id="Fill-4"></path>
                    </g>
                </g>
            </g>
        </g>
    </g>
</svg>