<?xml version="1.0" encoding="UTF-8"?>
<svg width="55px" height="50px" viewBox="0 0 55 50" version="1.1" xmlns="http://www.w3.org/2000/svg" xmlns:xlink="http://www.w3.org/1999/xlink">
    <!-- Generator: Sketch 52.5 (67469) - http://www.bohemiancoding.com/sketch -->
    <title>Group 7</title>
    <desc>Created with Sketch.</desc>
    <g id="Page-1" stroke="none" stroke-width="1" fill="none" fill-rule="evenodd">
        <g id="osakakuma_website" transform="translate(-962.000000, -585.000000)" fill="#1D1E1C">
            <g id="Group-13" transform="translate(401.000000, 582.000000)">
                <g id="Group" transform="translate(3.000000, 0.000000)">
                    <g id="Group-7" transform="translate(558.000000, 3.000000)">
                        <g id="Group-3">
                            <path d="M27.3119677,8.21333366 C25.8627657,8.20409135 24.6416282,9.49105084 24.6537504,11.0148919 C24.665635,12.5086005 25.8859406,13.7969527 27.2867725,13.7946737 C28.6896248,13.7925214 29.9071969,12.5023968 29.9146842,11.0100808 C29.9221715,9.50915563 28.7246842,8.22244936 27.3119677,8.21333366 M16.2475705,10.9924825 C16.2421036,9.48712602 15.044854,8.21687865 13.6280968,8.21333366 C12.1809151,8.20966206 10.9614414,9.51118134 10.9866367,11.0326169 C11.0114754,12.5299971 12.2411698,13.8120189 13.6360594,13.7946737 C15.0455671,13.777202 16.2530374,12.4816332 16.2475705,10.9924825 M40.4823073,14.7937291 C39.6924601,14.7177649 39.0263311,14.6050847 38.3588947,14.5968553 C31.5753124,14.5125351 25.6020187,16.6321884 20.9588438,22.1145218 C18.0404737,25.560636 16.7000153,29.6515592 17.0439542,34.3168981 C17.0882835,34.9177746 17.198691,35.5130804 17.2993531,36.2675312 C16.4440221,36.081419 15.677944,35.9375935 14.9233939,35.7431252 C14.2911358,35.5803087 13.6555501,35.403059 13.0528846,35.1480727 C12.6044805,34.9584155 12.2353463,35.0128564 11.8153463,35.2093504 C9.84298642,36.1319351 7.86111885,37.0319838 5.88210357,37.9383629 C5.70478608,38.0195179 5.52259593,38.0883921 5.21514261,38.2157587 C6.11480306,36.2839901 6.9616961,34.4654081 7.82974363,32.6016274 C7.58028693,32.4029811 7.34770628,32.2150964 7.11239219,32.0311365 C3.69463328,29.3577045 1.22775722,25.9718553 0.339862479,21.4773091 C-0.650833616,16.4624085 0.554378608,11.9816624 3.56544822,8.06849533 C6.81694228,3.84286229 11.1158217,1.47518601 16.1133939,0.545131476 C21.9976723,-0.550018504 27.5821036,0.370793728 32.7024431,3.75664297 C36.3351935,6.15888294 38.978674,9.4501568 40.2662462,13.8665865 C40.346348,14.1410703 40.3973328,14.4250497 40.4823073,14.7937291" id="Fill-1"></path>
                        </g>
                        <g id="Group-6" transform="translate(20.263158, 17.647059)">
                            <path d="M19.9159945,10.8100581 C19.9258849,12.324878 21.128648,13.5791188 22.5609397,13.5680837 C24.0165099,13.5569232 25.2107094,12.2673199 25.1929792,10.7256646 C25.175852,9.23015618 23.9557204,7.99735864 22.50992,8.0146637 C21.0632752,8.03221956 19.9061042,9.27918719 19.9159945,10.8100581 M12.139284,8.0146637 C10.711455,8.01767328 9.48830811,9.28583333 9.47636732,10.7753226 C9.46478838,12.2342145 10.7085603,13.5463896 12.1227599,13.5670805 C13.5534836,13.5880221 14.8213783,12.2638087 14.8100406,10.7609017 C14.7987029,9.27442202 13.5704901,8.01152873 12.139284,8.0146637 M31.0966743,32.3529788 C28.6220362,31.249593 26.2812796,30.3044608 24.0305011,29.1669665 C22.5663673,28.426987 21.1747226,28.4207171 19.5911809,28.5997868 C13.4245471,29.297256 7.86725548,27.724878 3.48944846,22.9615971 C-1.35875329,17.6865629 -1.03044189,10.1983618 4.12074232,5.14114569 C6.91030373,2.402557 10.2675954,0.870933653 14.0344923,0.283815549 C18.5048103,-0.412901277 22.7972226,0.177226402 26.8305559,2.36656749 C29.6011809,3.87047766 31.8546129,5.96840287 33.3116305,8.88418035 C35.6669814,13.598054 34.8282314,19.0413737 31.1072884,23.0037312 C30.2713125,23.8939387 29.2901173,24.6423199 28.3394375,25.4073792 C28.0161919,25.6675821 27.9626393,25.8480312 28.1438015,26.2182091 C29.115227,28.2039022 30.0642182,30.2016336 31.0966743,32.3529788" id="Fill-4"></path>
                        </g>
                    </g>
                </g>
            </g>
        </g>
    </g>
</svg>